<svg width="15" height="15" viewBox="0 0 15 15" fill="none" xmlns="http://www.w3.org/2000/svg">
<path d="M8 3.40674C6 3.40674 4.40625 5.03174 4.40625 7.00049C4.40625 9.00049 6 10.5942 8 10.5942C9.96875 10.5942 11.5938 9.00049 11.5938 7.00049C11.5938 5.03174 9.96875 3.40674 8 3.40674ZM8 9.34424C6.71875 9.34424 5.65625 8.31299 5.65625 7.00049C5.65625 5.71924 6.6875 4.68799 8 4.68799C9.28125 4.68799 10.3125 5.71924 10.3125 7.00049C10.3125 8.31299 9.28125 9.34424 8 9.34424ZM12.5625 3.28174C12.5625 2.81299 12.1875 2.43799 11.7188 2.43799C11.25 2.43799 10.875 2.81299 10.875 3.28174C10.875 3.75049 11.25 4.12549 11.7188 4.12549C12.1875 4.12549 12.5625 3.75049 12.5625 3.28174ZM14.9375 4.12549C14.875 3.00049 14.625 2.00049 13.8125 1.18799C13 0.375488 12 0.125488 10.875 0.0629883C9.71875 0.000488281 6.25 0.000488281 5.09375 0.0629883C3.96875 0.125488 3 0.375488 2.15625 1.18799C1.34375 2.00049 1.09375 3.00049 1.03125 4.12549C0.96875 5.28174 0.96875 8.75049 1.03125 9.90674C1.09375 11.0317 1.34375 12.0005 2.15625 12.8442C3 13.6567 3.96875 13.9067 5.09375 13.9692C6.25 14.0317 9.71875 14.0317 10.875 13.9692C12 13.9067 13 13.6567 13.8125 12.8442C14.625 12.0005 14.875 11.0317 14.9375 9.90674C15 8.75049 15 5.28174 14.9375 4.12549ZM13.4375 11.1255C13.2188 11.7505 12.7188 12.2192 12.125 12.4692C11.1875 12.8442 9 12.7505 8 12.7505C6.96875 12.7505 4.78125 12.8442 3.875 12.4692C3.25 12.2192 2.78125 11.7505 2.53125 11.1255C2.15625 10.2192 2.25 8.03174 2.25 7.00049C2.25 6.00049 2.15625 3.81299 2.53125 2.87549C2.78125 2.28174 3.25 1.81299 3.875 1.56299C4.78125 1.18799 6.96875 1.28174 8 1.28174C9 1.28174 11.1875 1.18799 12.125 1.56299C12.7188 1.78174 13.1875 2.28174 13.4375 2.87549C13.8125 3.81299 13.7188 6.00049 13.7188 7.00049C13.7188 8.03174 13.8125 10.2192 13.4375 11.1255Z" fill="white"/>
</svg>
