<svg width="60" height="60" viewBox="0 0 60 60" fill="none" xmlns="http://www.w3.org/2000/svg">
<path d="M43.5019 0H6.49927V60H53.5006V9.99875L43.5019 0Z" fill="#E8E8E8"/>
<path d="M45.0492 4.99947H6.49927V0H43.5019L45.0492 4.99947Z" fill="#007934"/>
<path d="M23.9521 57.1793C23.4844 57.1793 23.0407 57.1338 22.6206 57.043V55.049C22.7591 55.0749 22.9064 55.1042 23.0623 55.1367C23.2183 55.1691 23.3871 55.1853 23.5689 55.1853C23.9932 55.1853 24.2962 55.0575 24.4781 54.8022C24.6599 54.5465 24.7508 54.1094 24.7508 53.4901V44.7031H27.329V53.2693C27.329 54.5552 27.0476 55.5285 26.4847 56.1887C25.9219 56.8491 25.0777 57.1793 23.9521 57.1793Z" fill="#A4A9AD"/>
<path d="M35.5902 51.3149C35.5902 51.9036 35.4408 52.4265 35.142 52.8832C34.8434 53.3401 34.4125 53.6952 33.8497 53.9483C33.2867 54.2016 32.6265 54.3282 31.8688 54.3282C31.2367 54.3282 30.7063 54.2837 30.2777 54.1951C29.849 54.1064 29.403 53.9516 28.9397 53.7306V51.4447C29.4291 51.6956 29.9377 51.8917 30.4661 52.0322C30.9943 52.1731 31.4791 52.2434 31.9208 52.2434C32.3018 52.2434 32.581 52.1775 32.7585 52.0453C32.936 51.9131 33.0249 51.7433 33.0249 51.5355C33.0249 51.4057 32.9891 51.2921 32.9178 51.1945C32.8464 51.0972 32.7316 50.9986 32.5737 50.8989C32.4154 50.7995 31.9944 50.5959 31.3103 50.2886C30.6911 50.0072 30.2268 49.7343 29.9173 49.4703C29.6078 49.2061 29.3782 48.9029 29.2288 48.5607C29.0794 48.2188 29.0048 47.8141 29.0048 47.3462C29.0048 46.4719 29.3228 45.79 29.9593 45.3006C30.5959 44.8114 31.4704 44.5668 32.5832 44.5668C33.5659 44.5668 34.5683 44.794 35.59 45.2485L34.8042 47.2295C33.9166 46.8224 33.1504 46.6188 32.5052 46.6188C32.1718 46.6188 31.9293 46.6773 31.7777 46.7943C31.626 46.9113 31.5506 47.0563 31.5506 47.2295C31.5506 47.4155 31.6467 47.5823 31.8395 47.7294C32.0322 47.8766 32.5549 48.1451 33.408 48.5346C34.2263 48.9025 34.7947 49.2977 35.1127 49.7198C35.4311 50.1425 35.5902 50.6741 35.5902 51.3149Z" fill="#A4A9AD"/>
<path d="M19.4456 38.4683C18.5984 38.4683 17.86 38.3794 17.2307 38.2019V35.0793C17.8765 35.2404 18.4652 35.3213 18.9977 35.3213C19.8208 35.3213 20.4097 35.065 20.765 34.5529C21.12 34.0403 21.2975 33.2394 21.2975 32.1502V15.5686H25.0494V32.1259C25.0494 34.1915 24.5774 35.765 23.6333 36.8465C22.6893 37.9274 21.2933 38.4683 19.4456 38.4683Z" fill="#007934"/>
<path d="M39.9485 28.3495C39.9485 29.9474 39.3738 31.206 38.2238 32.1258C37.0738 33.0456 35.4742 33.5057 33.4248 33.5057C31.5367 33.5057 29.8664 33.1509 28.4141 32.4407V28.9549C29.6082 29.4874 30.6188 29.8627 31.4458 30.0805C32.2731 30.2986 33.0294 30.4075 33.7155 30.4075C34.5384 30.4075 35.1697 30.2499 35.6094 29.9353C36.0493 29.6204 36.2692 29.1528 36.2692 28.5312C36.2692 28.1845 36.1724 27.8756 35.9785 27.6052C35.7847 27.3349 35.5006 27.0747 35.1253 26.8247C34.7501 26.5746 33.9855 26.1754 32.8317 25.6265C31.7502 25.1181 30.9392 24.6301 30.399 24.162C29.8583 23.694 29.4265 23.1494 29.1037 22.528C28.781 21.9066 28.6197 21.1803 28.6197 20.3493C28.6197 18.784 29.1502 17.5535 30.2112 16.6578C31.2721 15.7623 32.7389 15.3145 34.6108 15.3145C35.5308 15.3145 36.4081 15.4233 37.2434 15.6412C38.0784 15.8591 38.9519 16.1656 39.8636 16.561L38.6535 19.4776C37.7093 19.0903 36.9286 18.8202 36.3113 18.6666C35.6941 18.5137 35.0868 18.4367 34.4899 18.4367C33.7796 18.4367 33.235 18.6023 32.8559 18.933C32.4765 19.2641 32.2871 19.6957 32.2871 20.2282C32.2871 20.5591 32.3637 20.8475 32.5171 21.0936C32.67 21.3398 32.9142 21.5775 33.2491 21.8075C33.5837 22.0374 34.3765 22.451 35.6274 23.0483C37.2814 23.8391 38.4154 24.6318 39.0285 25.4266C39.6419 26.2215 39.9485 27.1958 39.9485 28.3495Z" fill="#007934"/>
<path d="M43.502 9.99875H53.5007L43.502 0V9.99875Z" fill="#D1D3D3"/>
</svg>
