<svg width="14" height="14" viewBox="0 0 14 14" fill="none" xmlns="http://www.w3.org/2000/svg">
<path d="M3.125 14.0005V4.65674H0.21875V14.0005H3.125ZM1.65625 3.40674C2.59375 3.40674 3.34375 2.62549 3.34375 1.68799C3.34375 0.781738 2.59375 0.0317383 1.65625 0.0317383C0.75 0.0317383 0 0.781738 0 1.68799C0 2.62549 0.75 3.40674 1.65625 3.40674ZM13.9688 14.0005H14V8.87549C14 6.37549 13.4375 4.43799 10.5 4.43799C9.09375 4.43799 8.15625 5.21924 7.75 5.93799H7.71875V4.65674H4.9375V14.0005H7.84375V9.37549C7.84375 8.15674 8.0625 7.00049 9.5625 7.00049C11.0625 7.00049 11.0938 8.37549 11.0938 9.46924V14.0005H13.9688Z" fill="white"/>
</svg>
