<svg width="25" height="25" viewBox="0 0 25 25" fill="none" xmlns="http://www.w3.org/2000/svg">
<path d="M16.6285 8.92929C16.6287 8.11249 16.3866 7.31398 15.9329 6.63475C15.4792 5.95553 14.8343 5.42609 14.0797 5.11341C13.3251 4.80072 12.4948 4.71883 11.6936 4.87809C10.8925 5.03734 10.1566 5.43059 9.57898 6.00811C9.00135 6.58563 8.60796 7.32146 8.44855 8.12256C8.28914 8.92367 8.37088 9.75405 8.68342 10.5087C8.99596 11.2633 9.52528 11.9084 10.2044 12.3622C10.8836 12.816 11.682 13.0582 12.4988 13.0582C13.5936 13.057 14.6431 12.6216 15.4173 11.8475C16.1915 11.0735 16.6271 10.024 16.6285 8.92929ZM9.93164 8.92929C9.93149 8.42152 10.0819 7.9251 10.3639 7.50283C10.6459 7.08056 11.0468 6.75139 11.5159 6.55697C11.9849 6.36254 12.5011 6.31159 12.9992 6.41056C13.4972 6.50953 13.9547 6.75397 14.3138 7.11296C14.6729 7.47196 14.9175 7.92939 15.0166 8.42739C15.1158 8.9254 15.065 9.44161 14.8707 9.91075C14.6764 10.3799 14.3474 10.7809 13.9252 11.063C13.503 11.3451 13.0066 11.4957 12.4988 11.4957C11.8184 11.4949 11.166 11.2242 10.6847 10.7432C10.2035 10.2621 9.93268 9.60976 9.93164 8.92929Z" fill="#21BF73"/>
<path d="M16.3578 16.8313L16.5516 16.5969C17.0031 16.0414 17.5117 15.4984 18.0039 14.9734L18.4883 14.4531C19.5652 13.2892 20.2793 11.8364 20.5433 10.2728C20.8072 8.70922 20.6095 7.10257 19.9744 5.6496C19.3392 4.19663 18.2942 2.96039 16.9672 2.09224C15.6402 1.2241 14.0889 0.761719 12.5031 0.761719C10.9174 0.761719 9.36607 1.2241 8.03908 2.09224C6.7121 2.96039 5.66706 4.19663 5.03189 5.6496C4.39673 7.10257 4.19902 8.70922 4.46297 10.2728C4.72691 11.8364 5.44106 13.2892 6.51797 14.4531L7.01641 14.993C7.52735 15.5398 8.05547 16.1102 8.52891 16.6938L8.64375 16.8344C5.88281 17.4672 4.21875 18.75 4.21875 20.3125C4.21875 22.85 8.48516 24.2188 12.5 24.2188C16.5149 24.2188 20.7813 22.85 20.7813 20.3125C20.7813 18.75 19.118 17.468 16.3578 16.8313ZM8.16172 13.9258L7.66719 13.3914C6.84135 12.5018 6.27802 11.4009 6.03966 10.2107C5.80131 9.02048 5.89724 7.78752 6.31683 6.64851C6.73641 5.5095 7.46325 4.50895 8.41676 3.7578C9.37026 3.00665 10.5132 2.53425 11.7188 2.39298C11.9822 2.36126 12.2472 2.34482 12.5125 2.34377C14.1252 2.3388 15.6822 2.93262 16.882 4.01017C17.5343 4.59151 18.0642 5.2969 18.4409 6.08519C18.8177 6.87348 19.0337 7.72889 19.0764 8.60154C19.1191 9.47419 18.9876 10.3466 18.6896 11.1679C18.3916 11.9892 17.933 12.7429 17.3406 13.3852L16.8633 13.8969C16.3531 14.4438 15.8258 15.0047 15.3414 15.6L12.5 19.0781L9.73907 15.7031C9.23516 15.082 8.68985 14.4945 8.16172 13.9258ZM12.5 22.6563C8.39844 22.6563 5.78125 21.268 5.78125 20.3125C5.78125 19.5859 7.2711 18.6359 9.76953 18.2078L11.8953 20.807C11.9686 20.8966 12.0609 20.9688 12.1654 21.0183C12.27 21.0679 12.3843 21.0936 12.5 21.0936C12.6157 21.0936 12.73 21.0679 12.8346 21.0183C12.9392 20.9688 13.0314 20.8966 13.1047 20.807L15.2344 18.2078C17.7344 18.6359 19.2188 19.5859 19.2188 20.3125C19.2188 21.268 16.6016 22.6563 12.5 22.6563Z" fill="#21BF73"/>
</svg>
