<svg width="60" height="60" viewBox="0 0 60 60" fill="none" xmlns="http://www.w3.org/2000/svg">
<path d="M30 13.4399C13.4344 13.4399 0 20.4976 0 29.2163C0 37.9351 13.4344 44.9963 30 44.9963C46.5656 44.9963 60 37.9351 60 29.2163C60 20.4976 46.5656 13.4399 30 13.4399ZM30 15.0146C46.0687 15.0146 58.4253 21.7819 58.4253 29.2163C58.4253 36.6507 46.0594 43.4216 30 43.4216C13.9313 43.4216 1.57471 36.6507 1.57471 29.2163C1.57471 21.7819 13.9406 15.0146 30 15.0146ZM26.3562 18.1421L23.324 33.7793H26.7078L28.4546 24.8181C31.209 24.8181 32.3485 24.7085 32.8491 25.2466C33.3685 25.8035 33.1023 26.4143 31.6736 33.7793H35.105C36.59 26.1649 37.2465 24.5492 35.874 23.2874C34.5672 22.0817 31.8592 22.2949 28.938 22.2949L29.7437 18.1421H26.3562ZM12.1655 22.3059L9.12964 37.9541H12.5354L13.3411 33.7976C17.1529 33.7976 19.5209 34.0745 21.709 32.0251C24.1296 29.7995 24.7615 25.8387 23.0347 23.855C22.1347 22.8162 20.6857 22.3059 18.7207 22.3059H12.1655ZM38.7744 22.3059L35.7349 37.9541H39.1479L39.9536 33.7976C43.9605 33.7976 46.1784 34.0295 48.3215 32.0251C50.7422 29.7995 51.3741 25.8387 49.6472 23.855C48.7472 22.8162 47.2983 22.3059 45.3333 22.3059H38.7744ZM17.5049 24.7705C19.6327 24.8305 20.8504 25.281 20.3357 27.9529C19.6026 31.7104 17.0173 31.322 13.8354 31.322L15.1062 24.7742C15.9875 24.7742 16.7956 24.7505 17.5049 24.7705ZM44.1174 24.7705C46.2479 24.8305 47.4519 25.281 46.9373 27.9529C46.1948 31.7648 43.5345 31.322 40.437 31.322L41.7078 24.7742C42.5937 24.7742 43.4073 24.7505 44.1174 24.7705Z" fill="black"/>
</svg>
