<svg width="909" height="982" viewBox="0 0 909 982" fill="none" xmlns="http://www.w3.org/2000/svg">
<path fill-rule="evenodd" clip-rule="evenodd" d="M-619.156 571.302C-585.309 513.551 -551.86 457.583 -517.827 401.722C-532.551 433.228 -547.191 465.072 -562.001 497.299C-581.256 521.741 -600.315 546.273 -619.156 571.302ZM-642.261 600.951C-594.006 518.038 -546.917 439.333 -498.195 360.062C-462.03 284.028 -424.702 209.875 -382.558 136.943C-372.923 117.497 -362.884 98.3897 -352.35 79.6472C-345.572 65.5997 -338.492 51.8727 -331.064 38.4886C-325.331 26.2679 -319.303 14.4016 -312.943 2.91296C-307.783 -8.36594 -302.315 -19.2448 -296.501 -29.6985C-295.87 -31.1104 -295.234 -32.5143 -294.591 -33.9103C-290.358 -43.104 -285.871 -51.9557 -281.106 -60.447C-276.58 -70.8017 -271.69 -80.6487 -266.401 -89.9566C-262.073 -100.08 -257.347 -109.632 -252.185 -118.579C-248.012 -128.561 -243.402 -137.909 -238.31 -146.58C-234.271 -156.47 -229.752 -165.653 -224.703 -174.084C-220.779 -183.931 -216.327 -192.995 -211.293 -201.222C-207.473 -211.054 -203.076 -220.023 -198.039 -228.066C-188.895 -252.252 -175.933 -270.706 -158.145 -282.346C-136.342 -296.614 -107.755 -300.339 -71.1712 -292.55C-44.7413 -286.922 -19.13 -280.746 5.7524 -274.193C11.4031 -278.002 17.0797 -281.789 22.7794 -285.554C66.6214 -317.949 112.047 -348.785 157.699 -377.268C308.482 -471.344 462.122 -539.985 569.671 -554.187C573.846 -554.92 577.957 -555.567 582.003 -556.128C588.314 -557.384 594.483 -558.43 600.497 -559.259C607.841 -560.826 614.984 -562.081 621.912 -563.011C629.853 -564.792 637.552 -566.172 644.985 -567.133C653.323 -569.08 661.382 -570.544 669.133 -571.502C677.744 -573.584 686.051 -575.109 694.019 -576.043C702.839 -578.244 711.326 -579.813 719.441 -580.71C728.417 -583.017 737.037 -584.619 745.251 -585.469C750.051 -586.738 754.745 -587.791 759.324 -588.619C761.843 -589.872 764.339 -591.076 766.813 -592.231C790.612 -606.945 812.851 -617.82 832.957 -624.323C863.143 -634.086 888.997 -634.135 908.016 -621.86L905.305 -617.659C888.13 -628.744 864.08 -629.134 834.496 -619.565C823.646 -616.056 812.115 -611.226 799.998 -605.152C828.907 -613.901 853.874 -614.082 872.843 -603.572L870.42 -599.199C852.48 -609.139 827.946 -608.931 798.173 -599.344C793.872 -597.959 789.47 -596.38 784.973 -594.613C806.364 -598.689 825.187 -597.584 840.539 -590.377L838.414 -585.851C825.434 -591.944 809.425 -593.423 790.838 -590.554C798.786 -589.915 806.197 -588.298 813.003 -585.638L811.183 -580.981C800 -585.352 786.847 -586.753 771.976 -585.338C776.947 -584.685 781.699 -583.649 786.215 -582.215L784.701 -577.449C776.873 -579.936 768.2 -581.165 758.758 -581.182C757.915 -580.631 757.07 -580.075 756.223 -579.515C757.303 -579.289 758.371 -579.044 759.427 -578.781L758.217 -573.929C755.64 -574.572 752.983 -575.097 750.249 -575.506C744.472 -571.578 738.61 -567.438 732.67 -563.095C690.756 -532.443 645.098 -491.709 598.338 -443.18C607.225 -445.739 615.981 -448.234 624.598 -450.664L625.955 -445.852C614.686 -442.674 603.178 -439.385 591.453 -435.987C578.845 -422.726 566.167 -408.909 553.469 -394.58C584.163 -403.848 613.924 -412.983 642.496 -422.027L644.005 -417.26C613.006 -407.448 580.631 -397.534 547.2 -387.466C535.856 -374.519 524.503 -361.17 513.178 -347.451C564.104 -361.797 613.435 -376.925 660.456 -393.356L662.106 -388.636C612.857 -371.427 561.088 -355.646 507.634 -340.702C500.22 -331.633 492.82 -322.407 485.446 -313.033C483.217 -310.201 480.992 -307.355 478.768 -304.496C547.51 -320.893 614.377 -340.264 678.454 -364.668L680.234 -359.995C614.044 -334.787 544.919 -314.94 473.894 -298.202C465.95 -287.899 458.042 -277.43 450.184 -266.805C534.317 -281.801 616.495 -303.104 696.477 -335.967L698.377 -331.342C616.351 -297.639 532.076 -276.055 445.883 -260.968C439.524 -252.304 433.198 -243.539 426.914 -234.679C524.328 -244.861 619.577 -265.524 714.518 -307.259L716.53 -302.682C619.58 -260.064 522.37 -239.315 423.082 -229.258C418.138 -222.239 413.22 -215.161 408.331 -208.028C517.324 -210.223 623.46 -227.581 732.573 -278.546L734.689 -274.015C623.58 -222.118 515.585 -204.86 404.871 -202.963C401.173 -197.53 397.492 -192.065 393.83 -186.571C513.101 -177.933 628.022 -189.326 750.638 -249.829L752.851 -245.345C628.236 -183.856 511.517 -172.728 390.654 -181.792C388.045 -177.853 385.446 -173.899 382.858 -169.93C511.47 -147.961 633.176 -150.806 768.712 -221.109L771.015 -216.671C633.466 -145.323 509.975 -142.886 379.89 -165.367C378.234 -162.812 376.582 -160.251 374.934 -157.684C378.601 -156.684 382.26 -155.705 385.913 -154.748C519.038 -119.857 642.811 -114.21 786.793 -192.388L789.179 -187.994C643.732 -109.021 518.556 -114.815 384.645 -149.911C380.476 -151.004 376.298 -152.125 372.111 -153.273C252.411 34.3087 157.474 252.574 142.948 452.904C133.45 583.883 98.0287 666.319 46.2554 712.88C-3.57674 757.695 -68.0915 768.867 -137.882 758.718C-134.719 832.543 -133.791 907.291 -136.25 981.882L-141.247 981.718C-138.782 906.912 -139.725 831.965 -142.916 757.951C-144.063 757.768 -145.21 757.58 -146.359 757.386C-155.602 755.826 -164.934 753.904 -174.335 751.648C-172.806 817.932 -173.178 884.946 -176.354 951.853L-181.348 951.616C-178.156 884.359 -177.8 817.012 -179.362 750.412C-189.918 747.754 -200.556 744.682 -211.248 741.235C-211.119 801.06 -212.614 861.478 -216.455 921.829L-221.445 921.512C-217.574 860.701 -216.088 799.842 -216.247 739.597C-226.95 736.037 -237.701 732.108 -248.472 727.849C-249.572 782.184 -252.068 837.017 -256.552 891.814L-261.536 891.406C-257.006 836.06 -254.508 780.702 -253.428 725.866C-264.235 721.495 -275.058 716.797 -285.867 711.812C-288.084 761.527 -291.51 811.672 -296.644 861.808L-301.618 861.299C-296.421 810.543 -292.976 759.808 -290.766 709.532C-301.634 704.431 -312.485 699.045 -323.288 693.413C-326.566 739.268 -330.902 785.523 -336.727 831.815L-341.688 831.191C-335.792 784.336 -331.424 737.512 -328.136 691.091C-339.124 686.563 -350.082 681.753 -360.979 676.705C-365.246 718.165 -370.403 759.97 -376.8 801.837L-381.743 801.081C-375.27 758.724 -370.07 716.421 -365.775 674.466C-376.815 669.273 -387.786 663.842 -398.654 658.218C-403.879 695.873 -409.849 733.835 -416.856 771.88L-421.773 770.975C-414.672 732.416 -408.636 693.937 -403.362 655.766C-408.516 653.066 -413.645 650.324 -418.747 647.544C-424.688 645.006 -430.597 642.411 -436.469 639.767C-442.591 673.615 -449.318 707.732 -456.884 741.953L-461.766 740.874C-454.123 706.305 -447.337 671.838 -441.166 637.639C-452.448 632.491 -463.584 627.168 -474.534 621.728C-481.451 651.649 -488.835 681.801 -496.862 712.073L-501.695 710.791C-493.578 680.181 -486.119 649.69 -479.135 619.43C-490.428 613.758 -501.515 607.969 -512.347 602.126C-520.085 628.659 -528.172 655.397 -536.739 682.271L-541.503 680.753C-532.838 653.571 -524.665 626.528 -516.844 599.689C-521.814 596.984 -526.728 594.27 -531.582 591.552C-537.937 588.827 -544.195 586.093 -550.349 583.362C-558.76 606.29 -567.401 629.393 -576.361 652.645L-581.026 650.847C-572.035 627.515 -563.366 604.333 -554.926 581.324C-555.932 580.874 -556.935 580.425 -557.934 579.976C-562.163 578.694 -566.342 577.415 -570.467 576.145L-571.556 575.985L-571.803 575.949C-575.37 575.425 -578.9 574.906 -582.391 574.396C-585.685 574.501 -588.947 574.612 -592.176 574.733C-599.678 590.92 -607.27 607.213 -614.983 623.618L-619.507 621.49C-612.314 606.189 -605.223 590.981 -598.211 575.863C-600.304 576.367 -602.385 576.876 -604.452 577.39C-607.883 578.999 -611.284 580.622 -614.654 582.261C-617.914 584.649 -621.151 587.052 -624.362 589.471C-625.908 591.061 -627.45 592.656 -628.988 594.254L-629.605 593.661C-630.881 595.386 -632.157 597.115 -633.431 598.846L-634.704 597.909C-635.782 599.759 -636.861 601.611 -637.94 603.466L-642.261 600.951ZM-174.459 746.475C-164.728 748.84 -155.076 750.844 -145.527 752.456C-144.73 752.59 -143.935 752.722 -143.14 752.851C-143.434 746.252 -143.745 739.662 -144.074 733.079C-154.199 733.142 -164.469 732.693 -174.851 731.775C-174.71 736.671 -174.579 741.571 -174.459 746.475ZM-179.862 731.297C-179.728 735.935 -179.603 740.577 -179.487 745.222C-190.002 742.541 -200.603 739.445 -211.263 735.974C-211.275 732.904 -211.29 729.836 -211.31 726.77C-200.736 728.711 -190.243 730.234 -179.862 731.297ZM-174.999 726.742C-164.636 727.676 -154.402 728.136 -144.326 728.082C-144.883 717.208 -145.486 706.357 -146.13 695.533C-155.898 697.379 -165.84 698.673 -175.922 699.459C-175.582 708.536 -175.273 717.631 -174.999 726.742ZM-180.909 699.806C-180.579 708.606 -180.279 717.423 -180.012 726.255C-190.351 725.176 -200.807 723.637 -211.347 721.679C-211.404 714.513 -211.483 707.356 -211.584 700.21C-210.542 700.244 -209.502 700.273 -208.463 700.297C-199.185 700.515 -189.993 700.362 -180.909 699.806ZM-176.113 694.46C-166.055 693.669 -156.151 692.364 -146.432 690.502C-147.388 674.772 -148.431 659.1 -149.549 643.497C-158.842 647.011 -168.325 649.956 -177.967 652.376C-177.28 666.354 -176.659 680.384 -176.113 694.46ZM-182.911 653.568C-182.24 667.267 -181.633 681.017 -181.099 694.809C-190.072 695.361 -199.161 695.514 -208.346 695.299C-209.448 695.273 -210.552 695.241 -211.657 695.205C-211.845 683.03 -212.093 670.887 -212.395 658.782C-202.435 657.531 -192.596 655.808 -182.911 653.568ZM-178.221 647.283C-168.61 644.833 -159.167 641.849 -149.925 638.289C-151.25 620.1 -152.675 602.005 -154.185 584.022C-162.928 589.175 -171.871 593.756 -180.985 597.808C-179.982 614.215 -179.055 630.711 -178.221 647.283ZM-185.863 599.919C-184.883 616.03 -183.978 632.225 -183.162 648.493C-192.797 650.755 -202.594 652.496 -212.523 653.758C-212.907 639.114 -213.368 624.527 -213.897 610.006C-204.406 607.139 -195.051 603.791 -185.863 599.919ZM-181.314 592.475C-172.239 588.363 -163.342 583.713 -154.652 578.481C-156.379 558.164 -158.209 537.992 -160.117 517.989C-168.251 524.714 -176.586 530.88 -185.095 536.526C-183.751 555.043 -182.483 573.7 -181.314 592.475ZM-189.882 539.636C-188.568 557.839 -187.329 576.175 -186.187 594.624C-195.324 598.545 -204.634 601.935 -214.088 604.838C-214.72 587.987 -215.442 571.227 -216.234 554.574C-207.296 550.086 -198.503 545.12 -189.882 539.636ZM-185.515 530.787C-177.052 525.053 -168.77 518.788 -160.695 511.954C-162.855 489.53 -165.11 467.322 -167.422 445.366C-174.903 453.494 -182.576 461.096 -190.419 468.207C-188.71 488.863 -187.064 509.733 -185.515 530.787ZM-195.093 472.37C-193.419 492.705 -191.809 513.244 -190.294 533.958C-198.86 539.519 -207.604 544.553 -216.497 549.102C-217.431 529.879 -218.458 510.801 -219.551 491.894C-211.245 485.856 -203.085 479.36 -195.093 472.37ZM-190.944 461.904C-183.159 454.687 -175.545 446.967 -168.126 438.708C-170.714 414.306 -173.368 390.222 -176.038 366.501C-182.855 375.738 -189.84 384.501 -196.975 392.821C-194.919 415.541 -192.892 438.583 -190.944 461.904ZM-201.526 398.046C-199.506 420.455 -197.518 443.17 -195.608 466.15C-203.542 473.242 -211.646 479.827 -219.897 485.945C-221.17 464.237 -222.527 442.757 -223.928 421.541C-216.321 414.141 -208.848 406.32 -201.526 398.046ZM-197.609 385.838C-190.537 377.406 -183.617 368.52 -176.867 359.153C-179.817 333.047 -182.779 307.392 -185.683 282.251C-191.857 292.153 -198.163 301.658 -204.587 310.789C-202.274 335.351 -199.926 360.388 -197.609 385.838ZM-209.028 317.015C-206.742 341.301 -204.428 366.037 -202.149 391.166C-209.407 399.548 -216.818 407.469 -224.364 414.96C-225.977 390.743 -227.64 366.879 -229.295 343.422C-222.426 334.991 -215.666 326.197 -209.028 317.015ZM-205.313 303.081C-198.954 293.851 -192.716 284.241 -186.61 274.228C-189.773 246.848 -192.858 220.092 -195.774 194.043C-201.358 204.026 -207.027 213.706 -212.774 223.098C-210.5 248.034 -208.091 273.6 -205.63 299.722C-205.524 300.841 -205.419 301.961 -205.313 303.081ZM-217.152 230.173C-215.046 253.135 -212.834 276.613 -210.578 300.551C-210.3 303.501 -210.022 306.458 -209.742 309.422C-216.313 318.7 -223.007 327.584 -229.812 336.1C-230.204 330.554 -230.595 325.031 -230.984 319.533C-232.464 298.633 -233.919 278.081 -235.306 257.917C-229.178 248.959 -223.124 239.717 -217.152 230.173ZM-213.534 214.734C-207.852 205.275 -202.248 195.526 -196.73 185.471C-199.849 157.415 -202.758 130.202 -205.342 103.937C-210.394 113.306 -215.483 122.474 -220.608 131.449C-218.527 158.277 -216.127 186.078 -213.534 214.734ZM-225.023 139.12C-222.909 165.836 -220.496 193.475 -217.905 221.927C-223.81 231.535 -229.796 240.838 -235.857 249.854C-237.817 221.094 -239.622 193.142 -241.142 166.12C-235.734 157.317 -230.36 148.321 -225.023 139.12ZM-221.29 122.525C-216.229 113.539 -211.203 104.36 -206.214 94.9796C-206.857 88.2936 -207.479 81.6709 -208.076 75.1134C-209.977 54.2385 -211.633 34.0154 -212.98 14.5055C-217.506 22.4953 -222.029 30.3797 -226.549 38.1629C-225.773 55.0462 -224.768 72.4732 -223.576 90.4063C-222.876 100.943 -222.111 111.652 -221.29 122.525ZM-231.177 46.0978C-230.457 60.6116 -229.578 75.5 -228.565 90.7378C-227.705 103.679 -226.748 116.875 -225.711 130.312C-230.981 139.519 -236.288 148.522 -241.627 157.331C-242.575 139.864 -243.396 122.796 -244.053 106.16C-244.541 93.7942 -244.939 81.6696 -245.231 69.7995C-240.55 62.0034 -235.865 54.1044 -231.177 46.0978ZM-226.955 28.8819C-222.503 21.16 -218.047 13.3381 -213.588 5.4123C-215.17 -19.0302 -216.238 -42.3117 -216.661 -64.307C-220.589 -59.8391 -224.446 -55.3733 -228.229 -50.9112C-228.616 -26.0127 -228.124 0.645811 -226.955 28.8819ZM-233.307 -44.871C-233.557 -19.2777 -232.92 8.05532 -231.612 36.9246C-236.226 44.8592 -240.836 52.6878 -245.442 60.415C-246.078 28.8023 -245.923 -0.938208 -244.695 -28.5546C-242.035 -32.6202 -239.364 -36.7012 -236.681 -40.798C-235.563 -42.1553 -234.438 -43.5129 -233.307 -44.871ZM-228.075 -58.794C-224.376 -63.1014 -220.61 -67.4115 -216.779 -71.7227C-216.863 -78.3329 -216.885 -84.8225 -216.842 -91.1879C-220.365 -87.7947 -223.844 -84.401 -227.277 -81.0076C-227.633 -73.7765 -227.897 -66.3702 -228.075 -58.794ZM-232.521 -75.7895C-232.84 -68.2931 -233.064 -60.6203 -233.2 -52.7775C-235.709 -49.8069 -238.185 -46.8379 -240.628 -43.871L-240.715 -43.7657L-240.789 -43.6515C-241.93 -41.9103 -243.068 -40.1719 -244.204 -38.4363C-243.7 -47.5831 -243.071 -56.4844 -242.304 -65.1306C-241.926 -65.6242 -241.547 -66.1177 -241.168 -66.6113C-240.669 -67.2595 -240.171 -67.9077 -239.671 -68.5558C-237.312 -70.9666 -234.928 -73.3779 -232.521 -75.7895ZM-226.04 -100.743C-222.923 -103.736 -219.763 -106.693 -216.559 -109.614L-216.523 -109.646L-216.512 -110.031L-216.503 -110.329C-219.703 -107.602 -222.849 -104.822 -225.942 -101.989C-225.975 -101.574 -226.008 -101.159 -226.04 -100.743ZM-231.332 -96.9497C-231.367 -96.4618 -231.401 -95.9731 -231.434 -95.4836C-234.336 -92.6123 -237.2 -89.7092 -240.025 -86.775C-239.95 -87.3842 -239.875 -87.9919 -239.798 -88.5982C-237.021 -91.4284 -234.2 -94.2124 -231.332 -96.9497ZM-225.322 -109.282C-222.354 -111.919 -219.339 -114.51 -216.276 -117.054C-216.23 -118.231 -216.182 -119.402 -216.132 -120.569C-219.132 -118.129 -222.076 -115.627 -224.966 -113.063C-225.088 -111.809 -225.207 -110.549 -225.322 -109.282ZM-230.45 -108.062C-230.559 -106.829 -230.664 -105.589 -230.767 -104.344C-233.451 -101.858 -236.097 -99.3333 -238.703 -96.7698C-238.523 -98.0415 -238.339 -99.3065 -238.151 -100.565C-235.629 -103.116 -233.062 -105.615 -230.45 -108.062ZM-224.205 -120.353C-221.455 -122.698 -218.657 -124.991 -215.81 -127.23C-215.712 -129.071 -215.607 -130.898 -215.495 -132.713C-218.24 -130.49 -220.929 -128.2 -223.566 -125.844C-223.787 -124.028 -224 -122.198 -224.205 -120.353ZM-229.203 -120.627C-229.391 -118.929 -229.572 -117.22 -229.746 -115.498C-232.145 -113.339 -234.506 -111.139 -236.831 -108.897C-236.551 -110.567 -236.264 -112.223 -235.97 -113.867C-233.756 -116.173 -231.501 -118.426 -229.203 -120.627ZM-222.593 -133.322C-220.121 -135.421 -217.603 -137.466 -215.039 -139.456C-214.874 -141.707 -214.697 -143.936 -214.508 -146.145C-216.94 -144.096 -219.32 -141.981 -221.65 -139.8C-221.978 -137.664 -222.292 -135.504 -222.593 -133.322ZM-227.539 -134.041C-227.801 -132.148 -228.053 -130.239 -228.295 -128.313C-230.328 -126.465 -232.329 -124.579 -234.299 -122.655C-233.934 -124.465 -233.56 -126.258 -233.175 -128.035C-231.332 -130.084 -229.453 -132.086 -227.539 -134.041ZM-220.359 -147.713C-218.233 -149.573 -216.068 -151.382 -213.862 -153.141C-213.622 -155.552 -213.368 -157.937 -213.097 -160.295C-215.149 -158.415 -217.157 -156.475 -219.122 -154.475C-219.55 -152.249 -219.963 -149.995 -220.359 -147.713ZM-225.437 -147.674C-225.743 -145.887 -226.039 -144.083 -226.325 -142.263C-227.885 -140.776 -229.422 -139.261 -230.937 -137.718C-230.527 -139.381 -230.107 -141.028 -229.678 -142.659C-228.289 -144.365 -226.875 -146.037 -225.437 -147.674ZM-217.323 -163.2C-215.636 -164.768 -213.92 -166.297 -212.174 -167.786C-211.871 -170.073 -211.553 -172.333 -211.219 -174.566C-212.803 -172.912 -214.355 -171.212 -215.875 -169.466C-216.374 -167.406 -216.857 -165.317 -217.323 -163.2ZM-222.977 -160.672C-223.237 -159.422 -223.493 -158.163 -223.742 -156.895C-224.65 -155.954 -225.549 -155 -226.438 -154.035C-226.093 -155.156 -225.743 -156.269 -225.387 -157.373C-224.594 -158.488 -223.79 -159.588 -222.977 -160.672ZM-213.187 -179.712C-212.094 -180.816 -210.986 -181.9 -209.863 -182.963C-209.56 -184.71 -209.246 -186.438 -208.921 -188.149C-209.897 -186.928 -210.858 -185.683 -211.803 -184.415C-211.82 -184.359 -211.837 -184.303 -211.854 -184.247C-212.309 -182.753 -212.753 -181.241 -213.187 -179.712ZM-207.24 -197.828C-207.099 -197.983 -206.958 -198.138 -206.816 -198.292C-206.737 -198.645 -206.656 -198.997 -206.576 -199.348C-206.649 -199.229 -206.722 -199.111 -206.795 -198.992C-206.944 -198.606 -207.093 -198.218 -207.24 -197.828ZM-193.54 -225.829C-193.86 -224.975 -194.175 -224.113 -194.486 -223.244C-190.83 -227.054 -186.956 -230.558 -182.854 -233.746C-161.597 -250.267 -134.459 -258.091 -100.318 -256.205L-100.279 -256.202L-100.241 -256.199C-76.6566 -254.159 -53.5536 -251.7 -30.8853 -248.939C-26.7291 -251.869 -22.555 -254.789 -18.3641 -257.698C-40.5366 -261.951 -63.2084 -265.901 -86.4356 -269.433C-120.896 -274.148 -147.373 -268.444 -167.596 -253.981C-177.653 -246.788 -186.251 -237.366 -193.54 -225.829ZM-8.36767 -255.754C-11.9331 -252.999 -15.4851 -250.235 -19.0228 -247.461C-16.8681 -247.187 -14.7175 -246.911 -12.5706 -246.632C-8.48376 -249.143 -4.38272 -251.646 -0.268287 -254.14C-2.96073 -254.682 -5.66047 -255.22 -8.36767 -255.754ZM6.05623 -257.959C3.01254 -258.581 -0.0405104 -259.197 -3.10315 -259.807C0.636934 -262.677 4.39138 -265.536 8.15927 -268.385C11.7012 -267.444 15.2284 -266.496 18.7413 -265.54C14.5002 -263.023 10.2715 -260.496 6.05623 -257.959ZM6.96531 -252.67C3.06713 -250.32 -0.819357 -247.961 -4.6933 -245.594C-0.713934 -245.064 3.25213 -244.525 7.20527 -243.978C11.1446 -246.044 15.0944 -248.103 19.0538 -250.155C15.0405 -251.002 11.0111 -251.84 6.96531 -252.67ZM26.0677 -253.777C21.8268 -254.684 17.5679 -255.582 13.2903 -256.47C17.332 -258.89 21.3858 -261.301 25.4508 -263.702C29.6077 -262.555 33.7444 -261.399 37.8615 -260.233L37.4114 -259.86L36.9088 -259.442L36.5496 -259.143C33.0488 -257.36 29.5546 -255.572 26.0677 -253.777ZM30.6436 -247.679C28.2714 -245.68 25.9055 -243.677 23.5461 -241.668C24.8056 -241.486 26.0638 -241.304 27.3207 -241.121C31.0428 -242.74 34.7716 -244.354 38.5068 -245.963C35.8925 -246.538 33.2715 -247.11 30.6436 -247.679ZM46.3774 -249.341C42.7597 -250.148 39.1289 -250.949 35.4848 -251.743C36.7607 -252.811 38.0385 -253.877 39.3179 -254.942C41.3661 -255.985 43.4166 -257.026 45.4693 -258.064C49.7295 -256.841 53.9686 -255.608 58.1872 -254.367C54.2443 -252.698 50.3075 -251.023 46.3774 -249.341ZM46.8615 -244.11C43.4688 -242.657 40.081 -241.2 36.6988 -239.738C40.3208 -239.198 43.9322 -238.653 47.533 -238.103C50.9484 -239.286 54.3676 -240.466 57.7901 -241.642C54.1602 -242.47 50.5174 -243.293 46.8615 -244.11ZM65.76 -244.943C62.0946 -245.789 58.416 -246.63 54.7239 -247.466C58.3911 -249.026 62.064 -250.581 65.742 -252.131C67.7421 -251.535 69.7376 -250.938 71.7286 -250.339C69.7347 -248.544 67.7452 -246.746 65.76 -244.943ZM67.1853 -239.482C65.8026 -238.223 64.4221 -236.962 63.0438 -235.699C64.614 -235.452 66.1822 -235.204 67.7484 -234.956C70.7292 -235.726 73.7113 -236.495 76.6945 -237.261C73.5344 -238.005 70.3648 -238.745 67.1853 -239.482ZM87.1185 -239.93C83.414 -240.814 79.6961 -241.693 75.9646 -242.569C79.3235 -243.709 82.6852 -244.846 86.0496 -245.979C89.7961 -244.826 93.5267 -243.669 97.2417 -242.507C93.8662 -241.65 90.4917 -240.791 87.1185 -239.93ZM87.1591 -234.78C84.8089 -234.18 82.4594 -233.578 80.1106 -232.976C82.7232 -232.553 85.3306 -232.129 87.9327 -231.704C90.278 -232.105 92.6231 -232.505 94.9681 -232.905C92.3715 -233.532 89.7685 -234.157 87.1591 -234.78ZM100.407 -236.733C99.4547 -236.964 98.5019 -237.195 97.5483 -237.426C99.1579 -237.834 100.768 -238.243 102.378 -238.65C101.72 -238.012 101.063 -237.373 100.407 -236.733ZM107.428 -235.023C107 -235.127 106.571 -235.232 106.143 -235.337C107.275 -236.435 108.408 -237.532 109.543 -238.627C111.765 -237.921 113.981 -237.214 116.192 -236.505C113.271 -236.012 110.35 -235.518 107.428 -235.023ZM107.244 -229.92C105.846 -229.683 104.447 -229.445 103.049 -229.208C104.722 -228.929 106.393 -228.65 108.062 -228.37C109.424 -228.486 110.787 -228.6 112.149 -228.715C110.516 -229.117 108.882 -229.519 107.244 -229.92ZM127.661 -230.019C124.993 -230.685 122.319 -231.351 119.637 -232.015C121.932 -232.402 124.226 -232.789 126.521 -233.175C129.176 -232.314 131.823 -231.452 134.463 -230.589L132.672 -230.439L132.671 -230.439L132.623 -230.435C130.97 -230.296 129.316 -230.158 127.661 -230.019ZM147.805 -224.948C146.085 -225.384 144.363 -225.82 142.637 -226.256C143.967 -226.368 145.295 -226.479 146.624 -226.591C148.285 -226.042 149.943 -225.493 151.598 -224.943C150.334 -224.945 149.07 -224.946 147.805 -224.948ZM258.998 -196.652C254.549 -197.752 250.086 -198.863 245.607 -199.986C250.364 -199.22 255.107 -198.467 259.839 -197.727C259.559 -197.369 259.278 -197.011 258.998 -196.652ZM199.259 -206.617C207.883 -204.403 216.446 -202.21 224.955 -200.046C108.887 -57.4946 10.7157 107.198 -28.501 261.031L-28.512 261.074L-28.5215 261.118C-50.5058 362.27 -86.3985 433.279 -130.54 482.577C-138.768 491.765 -147.286 500.204 -156.06 507.948C-158.264 485.186 -160.563 462.653 -162.919 440.384C-117.536 389.247 -79.5344 318.088 -54.0451 218.907C-10.7011 76.9662 85.9334 -74.5366 199.259 -206.617ZM186.729 -209.836C187.598 -209.612 188.467 -209.389 189.335 -209.166L189.336 -209.166C190.847 -208.778 192.356 -208.39 193.863 -208.003C80.8982 -75.9786 -15.4566 75.3778 -58.8435 217.5L-58.8599 217.554L-58.8738 217.608C-83.6045 313.865 -120.122 383.346 -163.637 433.617C-166.271 408.895 -168.97 384.506 -171.679 360.499C-137.402 312.52 -107.558 252.17 -84.4529 175.599C-37.3641 45.7156 56.8267 -92.0811 166.397 -213.334C173.204 -212.161 179.981 -210.993 186.729 -209.836ZM284.655 -185.285C285.112 -185.177 285.569 -185.068 286.026 -184.96C286.001 -184.926 285.975 -184.892 285.95 -184.858C285.518 -185 285.086 -185.143 284.655 -185.285ZM289.291 -189.326C281.015 -191.278 272.694 -193.287 264.322 -195.341C264.716 -195.843 265.11 -196.345 265.504 -196.847C274.37 -195.479 283.193 -194.16 291.979 -192.903C291.082 -191.712 290.186 -190.52 289.291 -189.326ZM291.332 -183.71C291.208 -183.544 291.084 -183.378 290.96 -183.212C298.816 -180.638 306.621 -178.117 314.379 -175.659C314.951 -176.46 315.522 -177.26 316.095 -178.06C307.881 -179.879 299.628 -181.765 291.332 -183.71ZM319.267 -182.48C311.088 -184.28 302.869 -186.15 294.606 -188.079C295.615 -189.421 296.626 -190.762 297.638 -192.1C306.363 -190.876 315.052 -189.713 323.708 -188.624C322.225 -186.58 320.744 -184.532 319.267 -182.48ZM321.408 -176.892C320.736 -175.954 320.064 -175.016 319.393 -174.077C326.984 -171.692 334.532 -169.37 342.042 -167.119C343.117 -168.706 344.193 -170.29 345.272 -171.873C337.35 -173.472 329.397 -175.149 321.408 -176.892ZM348.336 -176.356C340.454 -177.936 332.54 -179.592 324.591 -181.316C326.183 -183.523 327.779 -185.724 329.378 -187.921C335.308 -187.195 341.223 -186.506 347.125 -185.855C349.535 -185.589 351.943 -185.33 354.349 -185.077C352.339 -182.179 350.334 -179.272 348.336 -176.356ZM350.597 -170.808C349.419 -169.082 348.242 -167.353 347.067 -165.622C354.71 -163.359 362.314 -161.173 369.886 -159.073C371.433 -161.489 372.985 -163.899 374.541 -166.304C371.658 -166.817 368.772 -167.341 365.881 -167.877C360.799 -168.819 355.704 -169.797 350.597 -170.808ZM377.496 -170.86C373.934 -171.486 370.366 -172.131 366.793 -172.793C362.428 -173.602 358.056 -174.438 353.673 -175.298C355.786 -178.372 357.905 -181.437 360.03 -184.492C368.36 -183.654 376.667 -182.897 384.953 -182.234C382.458 -178.456 379.972 -174.665 377.496 -170.86ZM-12.6085 -261.679C-36.3732 -266.299 -60.7148 -270.58 -85.7 -274.379L-85.7184 -274.382L-85.7367 -274.384C-121.107 -279.227 -148.974 -273.447 -170.505 -258.048C-175.447 -254.512 -180.037 -250.484 -184.295 -245.983C-176.562 -259.786 -167.011 -270.569 -155.407 -278.162C-135.08 -291.464 -107.985 -295.276 -72.2125 -287.659C-47.3632 -282.368 -23.2368 -276.59 0.243828 -270.468C-4.05623 -267.55 -8.34077 -264.62 -12.6085 -261.679ZM-239.182 -129.906C-238.551 -130.83 -237.914 -131.746 -237.271 -132.654C-237.442 -131.901 -237.61 -131.146 -237.777 -130.388C-238.454 -129.626 -239.125 -128.859 -239.792 -128.085C-239.59 -128.694 -239.387 -129.301 -239.182 -129.906ZM-243.701 -115.348C-242.445 -116.988 -241.171 -118.603 -239.878 -120.193C-240.13 -118.883 -240.378 -117.564 -240.62 -116.237C-241.987 -114.795 -243.338 -113.334 -244.673 -111.855C-244.353 -113.026 -244.029 -114.191 -243.701 -115.348ZM-247.449 -101.012C-245.723 -103.089 -243.969 -105.13 -242.186 -107.136C-242.412 -105.739 -242.633 -104.333 -242.849 -102.919C-244.712 -101.014 -246.549 -99.0815 -248.363 -97.1219C-248.063 -98.4266 -247.759 -99.7232 -247.449 -101.012ZM-250.504 -87.2565C-248.397 -89.672 -246.256 -92.0481 -244.08 -94.3841C-244.238 -93.2267 -244.392 -92.064 -244.543 -90.896C-246.785 -88.5902 -248.997 -86.2547 -251.181 -83.8901C-250.959 -85.0178 -250.733 -86.1399 -250.504 -87.2565ZM-252.938 -74.4902C-250.514 -77.23 -248.054 -79.9318 -245.556 -82.5949C-245.6 -82.218 -245.643 -81.8406 -245.685 -81.4627C-245.714 -81.213 -245.742 -80.963 -245.77 -80.7128C-248.308 -77.9905 -250.815 -75.2424 -253.292 -72.4687C-253.175 -73.1444 -253.057 -73.8182 -252.938 -74.4902ZM-257.324 -45.247C-254.222 -49.4149 -251.093 -53.5806 -247.936 -57.7442C-248.634 -48.7933 -249.195 -39.5903 -249.629 -30.1459C-253.318 -24.506 -256.984 -18.8957 -260.63 -13.3139C-259.711 -24.304 -258.615 -34.9539 -257.324 -45.247ZM-261.438 -2.92861C-257.659 -8.72079 -253.856 -14.5435 -250.029 -20.3979C-251.035 7.33236 -251.02 37.0424 -250.266 68.4732C-255.058 76.4444 -259.846 84.3074 -264.629 92.0672C-264.516 58.2874 -263.568 26.5215 -261.438 -2.92861ZM-264.639 101.582C-259.772 93.7433 -254.9 85.8 -250.023 77.7466C-249.758 87.1377 -249.431 96.677 -249.049 106.358C-248.3 125.323 -247.34 144.837 -246.222 164.852C-251.8 173.908 -257.413 182.758 -263.057 191.413C-263.786 167.52 -264.307 144.33 -264.526 121.925C-264.593 115.069 -264.631 108.287 -264.639 101.582ZM-262.784 200.089C-257.067 191.435 -251.381 182.586 -245.729 173.53C-244.182 200.368 -242.369 228.082 -240.415 256.56C-246.726 265.743 -253.114 274.623 -259.572 283.22C-260.8 254.725 -261.915 226.975 -262.784 200.089ZM-259.233 291.021C-252.707 282.473 -246.249 273.644 -239.867 264.514C-238.603 282.805 -237.286 301.405 -235.949 320.282L-235.949 320.284C-235.443 327.416 -234.936 334.589 -234.427 341.799C-241.467 350.378 -248.62 358.574 -255.872 366.415C-256.288 357.066 -256.705 347.779 -257.119 338.559L-257.119 338.558L-257.122 338.492L-257.127 338.384C-257.845 322.391 -258.554 306.597 -259.233 291.021ZM-255.561 373.41C-248.244 365.64 -241.025 357.519 -233.917 349.021C-232.288 372.167 -230.653 395.698 -229.072 419.562C-236.824 427.021 -244.712 434.041 -252.716 440.655C-253.617 417.932 -254.583 395.501 -255.561 373.41ZM-252.47 446.915C-244.406 440.373 -236.457 433.432 -228.644 426.06C-227.272 446.948 -225.945 468.087 -224.702 489.442C-233.12 495.459 -241.684 501.003 -250.37 506.111C-250.996 486.187 -251.707 466.445 -252.47 446.915ZM-250.193 511.796C-241.453 506.746 -232.835 501.269 -224.361 495.328C-223.294 513.913 -222.293 532.66 -221.382 551.545C-230.397 555.951 -239.56 559.871 -248.842 563.347C-249.214 546.045 -249.672 528.855 -250.193 511.796ZM-248.731 568.639C-239.405 565.203 -230.193 561.329 -221.123 556.975C-220.351 573.322 -219.649 589.771 -219.033 606.308C-228.568 609.051 -238.242 611.311 -248.027 613.13C-248.19 598.228 -248.429 583.394 -248.731 568.639ZM-247.975 618.205C-238.152 616.405 -228.432 614.168 -218.844 611.453C-218.329 625.692 -217.879 639.994 -217.505 654.351C-222.828 654.94 -228.188 655.395 -233.579 655.723C-238.29 656.01 -243.025 656.199 -247.78 656.295C-247.784 643.555 -247.851 630.856 -247.975 618.205ZM-233.275 660.714C-227.947 660.39 -222.646 659.943 -217.377 659.367C-217.083 671.212 -216.841 683.093 -216.656 695.004C-226.99 694.518 -237.43 693.581 -247.944 692.237C-247.845 681.9 -247.792 671.585 -247.782 661.295C-242.925 661.199 -238.089 661.007 -233.275 660.714ZM-247.995 697.27C-237.443 698.604 -226.962 699.533 -216.582 700.013C-216.485 706.906 -216.407 713.808 -216.35 720.719C-226.9 718.632 -237.53 716.133 -248.209 713.264C-248.125 707.927 -248.054 702.596 -247.995 697.27ZM-248.294 718.415C-237.577 721.268 -226.906 723.75 -216.312 725.821C-216.293 728.653 -216.277 731.485 -216.265 734.32C-226.922 730.739 -237.633 726.79 -248.368 722.51C-248.355 721.822 -248.343 721.134 -248.33 720.446C-248.318 719.769 -248.306 719.092 -248.294 718.415ZM-198.8 -209.637C-198.661 -210.133 -198.521 -210.627 -198.379 -211.119C-192.781 -218.266 -186.598 -224.504 -179.786 -229.798C-159.667 -245.434 -133.797 -253.04 -100.63 -251.214C-79.0185 -249.344 -57.8092 -247.121 -36.9652 -244.635C-41.0165 -241.757 -45.0502 -238.869 -49.0651 -235.971C-70.6625 -236.948 -92.5621 -237.657 -114.791 -238.006L-114.852 -238.007L-114.913 -238.005C-147.805 -236.927 -174.206 -227.075 -195.193 -209.441C-196.831 -208.065 -198.434 -206.642 -200.005 -205.174C-199.614 -206.679 -199.213 -208.167 -198.8 -209.637ZM-34.4164 -235.266C-31.1386 -237.891 -27.8473 -240.508 -24.543 -243.118C-22.8034 -242.901 -21.0664 -242.681 -19.3318 -242.46C-23.282 -240.014 -27.2183 -237.56 -31.1398 -235.097C-32.2312 -235.154 -33.3234 -235.211 -34.4164 -235.266ZM-22.4591 -234.631C-18.805 -236.909 -15.1385 -239.18 -11.4602 -241.445C-7.76319 -240.961 -4.07758 -240.47 -0.403004 -239.973C-4.15212 -237.991 -7.89132 -236.003 -11.62 -234.01C-15.2248 -234.223 -18.8378 -234.43 -22.4591 -234.631ZM-2.07502 -233.43C1.31103 -235.227 4.7054 -237.019 8.10767 -238.806C9.37229 -238.63 10.6356 -238.454 11.8976 -238.277C9.83429 -236.499 7.77614 -234.718 5.72343 -232.934C3.12816 -233.102 0.528681 -233.267 -2.07502 -233.43ZM16.4904 -242.678L16.9498 -242.613C17.7634 -243.309 18.5779 -244.004 19.3931 -244.699C18.7015 -244.34 18.0102 -243.981 17.3192 -243.621C16.7856 -243.343 16.2521 -243.066 15.7188 -242.788L16.4904 -242.678ZM18.2843 -237.173L18.4838 -237.344L18.6275 -237.324L18.2843 -237.173ZM19.0387 -232.044C22.0239 -233.355 25.0138 -234.663 28.0082 -235.967C31.1457 -235.508 34.2753 -235.045 37.3971 -234.578C34.3664 -233.52 31.3389 -232.458 28.3146 -231.395C25.2285 -231.615 22.1366 -231.831 19.0387 -232.044ZM52.035 -232.354C50.6894 -232.561 49.3423 -232.768 47.9938 -232.975C45.6027 -232.146 43.2134 -231.315 40.826 -230.482C43.344 -230.295 45.8582 -230.105 48.3686 -229.914L49.8149 -230.292C50.5543 -230.98 51.2943 -231.667 52.035 -232.354ZM72.7565 -229.095C71.1704 -229.349 69.5824 -229.602 67.9924 -229.855C66.5384 -229.479 65.0847 -229.102 63.6313 -228.725C65.2263 -228.598 66.8199 -228.471 68.4119 -228.343C69.8601 -228.594 71.3083 -228.845 72.7565 -229.095ZM207.471 -211.37C215.354 -210.035 223.197 -208.72 231.002 -207.432C231.564 -208.116 232.127 -208.799 232.69 -209.481C224.181 -210.129 215.64 -210.807 207.066 -211.508L207.471 -211.37ZM160.57 -214.339C156.212 -215.09 151.842 -215.843 147.459 -216.597L143.092 -216.978L143.042 -216.983L142.909 -216.994C138.822 -217.351 134.727 -217.709 130.623 -218.067C25.934 -108.212 -64.7389 15.1782 -114.87 132.301C-134.346 187.515 -156.805 234.701 -181.443 275.353L-181.018 279.036L-181.015 279.057L-181.014 279.071L-181.012 279.08L-181.012 279.086L-181.009 279.111L-181.007 279.125L-181.006 279.134L-181.005 279.14L-181.004 279.155C-178.213 303.314 -175.366 327.957 -172.525 353.026C-139.909 306.233 -111.445 247.763 -89.2201 174.089L-89.2003 174.024L-89.1771 173.959C-42.1237 44.1339 51.5733 -93.2903 160.57 -214.339ZM236.709 -206.495C245.647 -205.033 254.537 -203.61 263.383 -202.235C264.646 -203.836 265.911 -205.435 267.178 -207.03C257.754 -207.646 248.296 -208.313 238.798 -209.021C238.101 -208.18 237.405 -207.338 236.709 -206.495ZM269.062 -201.358C277.891 -200.005 286.678 -198.702 295.426 -197.462C297.347 -199.995 299.273 -202.521 301.203 -205.039C291.92 -205.513 282.605 -206.05 273.256 -206.639C271.856 -204.883 270.458 -203.122 269.062 -201.358ZM301.1 -196.665C309.792 -195.457 318.448 -194.313 327.071 -193.243C329.607 -196.715 332.152 -200.175 334.704 -203.621C332.596 -203.691 330.486 -203.764 328.375 -203.842C321.359 -204.1 314.326 -204.4 307.276 -204.739C305.212 -202.056 303.153 -199.365 301.1 -196.665ZM347.673 -190.824C350.99 -190.459 354.302 -190.105 357.609 -189.765C360.675 -194.159 363.754 -198.532 366.844 -202.885C358.18 -202.99 349.496 -203.175 340.789 -203.431C338.103 -199.818 335.425 -196.19 332.756 -192.547C337.739 -191.947 342.711 -191.372 347.673 -190.824ZM363.308 -189.191C371.599 -188.374 379.866 -187.64 388.11 -187C391.645 -192.32 395.197 -197.611 398.766 -202.873C390.174 -202.77 381.565 -202.756 372.936 -202.823C369.714 -198.302 366.504 -193.757 363.308 -189.191ZM-253.267 717.066C-253.287 718.214 -253.307 719.362 -253.327 720.511C-262.294 716.854 -271.275 712.971 -280.254 708.884C-271.241 711.85 -262.239 714.585 -253.267 717.066ZM-252.983 696.61C-253.039 701.702 -253.105 706.799 -253.184 711.902C-263.901 708.911 -274.664 705.555 -285.439 701.873C-285.29 698.261 -285.146 694.651 -285.009 691.044C-274.289 693.272 -263.603 695.142 -252.983 696.61ZM-252.776 661.361C-252.787 671.407 -252.837 681.478 -252.932 691.57C-263.503 690.094 -274.142 688.216 -284.82 685.978C-284.507 677.415 -284.227 668.867 -283.978 660.336C-273.514 661.072 -263.103 661.428 -252.776 661.361ZM-252.961 619.08C-252.843 631.464 -252.778 643.893 -252.775 656.362C-263.05 656.43 -273.415 656.073 -283.836 655.336C-283.534 644.467 -283.282 633.627 -283.074 622.82C-274.431 622.104 -265.84 621.1 -257.319 619.783C-255.864 619.558 -254.412 619.324 -252.961 619.08ZM-253.692 570.422C-253.4 584.882 -253.17 599.417 -253.013 614.018C-254.7 614.305 -256.39 614.579 -258.083 614.841C-266.32 616.115 -274.625 617.092 -282.981 617.796C-282.748 604.849 -282.577 591.952 -282.459 579.111C-282.088 579.016 -281.717 578.921 -281.347 578.824C-272.042 576.408 -262.815 573.62 -253.692 570.422ZM-255.109 514.585C-254.604 531.325 -254.161 548.189 -253.801 565.158C-263.231 568.516 -272.778 571.428 -282.415 573.936C-282.292 558.619 -282.242 543.386 -282.252 528.25C-273.1 524.103 -264.044 519.561 -255.109 514.585ZM-257.324 450.795C-256.581 469.989 -255.89 489.382 -255.282 508.947C-264.162 513.979 -273.162 518.568 -282.257 522.756C-282.285 504.756 -282.393 486.896 -282.555 469.201C-274.042 463.453 -265.625 457.329 -257.324 450.795ZM-260.349 378.43C-259.389 400.182 -258.445 422.254 -257.566 444.602C-265.804 451.204 -274.16 457.389 -282.612 463.191C-282.818 442.189 -283.097 421.423 -283.403 400.931C-275.628 393.779 -267.938 386.288 -260.349 378.43ZM-262.108 339.041L-262.102 339.162L-262.1 339.216L-262.1 339.218L-262.095 339.334C-261.616 349.978 -261.134 360.709 -260.655 371.52C-268.175 379.444 -275.797 386.996 -283.504 394.206C-283.696 381.617 -283.897 369.135 -284.095 356.767L-284.096 356.682L-284.098 356.573C-284.282 345.124 -284.464 333.775 -284.637 322.532C-277.685 314.362 -270.794 305.914 -263.975 297.166C-263.369 310.965 -262.742 324.927 -262.108 339.041ZM-267.553 207.252C-266.658 233.884 -265.535 261.324 -264.312 289.463C-271.056 298.253 -277.872 306.741 -284.751 314.95C-285.168 287.087 -285.512 259.891 -285.656 233.473C-279.592 224.935 -273.556 216.199 -267.553 207.252ZM-269.616 109.563C-269.596 113.673 -269.566 117.811 -269.525 121.974C-269.284 146.653 -268.679 172.259 -267.835 198.682C-273.756 207.621 -279.711 216.349 -285.695 224.881C-285.809 194.72 -285.639 165.603 -284.994 137.702C-284.963 136.351 -284.93 135.003 -284.897 133.658C-279.809 125.736 -274.715 117.706 -269.616 109.563ZM-267.032 5.64681C-268.902 35.1163 -269.658 66.7241 -269.64 100.163C-274.644 108.211 -279.642 116.148 -284.635 123.979C-283.583 88.159 -281.672 54.4575 -278.485 23.2275C-274.691 17.3976 -270.873 11.5378 -267.032 5.64681ZM-263.325 -37.135C-264.512 -26.6188 -265.508 -15.7609 -266.332 -4.57903C-270.009 1.05659 -273.665 6.66338 -277.299 12.2425C-275.831 -0.626318 -274.129 -13.0518 -272.162 -25.0077C-269.241 -29.0524 -266.295 -33.0948 -263.325 -37.135ZM-260.937 -55.9712L-260.968 -55.7504C-263.392 -52.7765 -265.794 -49.7891 -268.173 -46.7884L-268.082 -47.2367C-265.729 -50.174 -263.348 -53.0856 -260.937 -55.9712ZM-259.242 -67.1829C-259.34 -66.5741 -259.437 -65.9638 -259.534 -65.3523C-261.635 -62.9137 -263.713 -60.4563 -265.77 -57.9802C-265.64 -58.5577 -265.508 -59.1339 -265.375 -59.7087C-263.358 -62.2287 -261.314 -64.7203 -259.242 -67.1829ZM-257.129 -79.3989C-257.292 -78.5186 -257.453 -77.6352 -257.613 -76.7486C-259.308 -74.8178 -260.986 -72.8687 -262.647 -70.9015C-262.448 -71.673 -262.248 -72.4417 -262.046 -73.2079C-260.428 -75.2972 -258.79 -77.361 -257.129 -79.3989ZM-254.624 -91.9701C-254.796 -91.1671 -254.966 -90.3613 -255.134 -89.5526C-256.302 -88.2028 -257.459 -86.841 -258.606 -85.4676C-258.415 -86.1052 -258.224 -86.7408 -258.031 -87.3744C-256.908 -88.923 -255.773 -90.455 -254.624 -91.9701ZM-251.88 -103.95L-251.923 -103.773C-251.961 -103.619 -251.999 -103.465 -252.036 -103.31C-252.461 -102.795 -252.884 -102.277 -253.305 -101.758L-253.266 -101.867C-252.807 -102.565 -252.345 -103.259 -251.88 -103.95ZM-202.232 -195.882C-202.775 -193.427 -203.292 -190.93 -203.785 -188.39C-183.737 -205.253 -159.263 -215.975 -129.516 -219.78L-129.434 -219.791L-129.351 -219.796C-108.423 -221.074 -87.6848 -222.045 -67.1255 -222.782C-63.2944 -225.614 -59.4444 -228.437 -55.5762 -231.253C-75.0696 -232.084 -94.8072 -232.691 -114.811 -233.005C-146.7 -231.949 -171.966 -222.427 -191.977 -205.613C-195.555 -202.606 -198.972 -199.36 -202.232 -195.882ZM-40.2794 -230.553C-42.6317 -228.654 -44.9766 -226.751 -47.3142 -224.845C-44.3807 -226.722 -41.4382 -228.596 -38.487 -230.465C-39.0842 -230.494 -39.6816 -230.523 -40.2794 -230.553ZM-29.8205 -230.021C-33.1999 -227.896 -36.5682 -225.765 -39.9248 -223.629C-36.7449 -223.714 -33.5692 -223.794 -30.3978 -223.869C-26.9549 -225.747 -23.502 -227.62 -20.0396 -229.488C-23.2932 -229.671 -26.5534 -229.849 -29.8205 -230.021ZM-10.5074 -228.935C-13.5043 -227.33 -16.4943 -225.722 -19.4771 -224.109C-16.5548 -224.169 -13.636 -224.225 -10.7207 -224.278C-7.67336 -225.651 -4.62028 -227.021 -1.56162 -228.388C-4.53805 -228.574 -7.51997 -228.756 -10.5074 -228.935ZM9.18364 -227.697C7.91978 -227.137 6.65678 -226.576 5.39476 -226.015L4.60904 -225.328C4.29755 -225.055 3.98627 -224.783 3.67507 -224.51C5.48848 -224.536 7.30051 -224.561 9.11123 -224.584C11.5627 -225.461 14.0166 -226.335 16.4729 -227.208C14.0467 -227.373 11.617 -227.536 9.18364 -227.697ZM28.9861 -226.334C27.4959 -225.809 26.0066 -225.284 24.5181 -224.758C25.115 -224.763 25.7119 -224.769 26.3085 -224.775C27.2024 -224.783 28.0959 -224.791 28.9892 -224.799C29.7439 -224.999 30.4988 -225.2 31.2538 -225.4L32.6772 -225.778L33.5352 -226.005C32.0202 -226.116 30.5038 -226.225 28.9861 -226.334ZM201.591 -216.975C196.911 -217.362 192.22 -217.756 187.518 -218.154L186.172 -218.61C184.868 -219.052 183.562 -219.494 182.254 -219.936C189.592 -219.945 196.912 -219.963 204.214 -219.994C203.339 -218.989 202.464 -217.983 201.591 -216.975ZM108.157 -220.012C110.607 -219.802 113.053 -219.591 115.496 -219.38C118.419 -219.128 121.337 -218.875 124.251 -218.622C20.3979 -109.152 -69.5252 13.616 -119.499 130.409L-119.531 130.484L-119.558 130.561C-138.043 182.979 -159.217 228.09 -182.385 267.198C-185.571 239.606 -188.669 212.666 -191.586 186.469C-175.346 156.756 -159.856 124.403 -145.299 89.0131C-93.2193 -14.375 -7.60322 -122.409 90.5558 -220.025C92.4072 -220.025 94.2574 -220.024 96.1062 -220.023C100.129 -220.021 104.146 -220.017 108.157 -220.012ZM236.598 -214.199C227.032 -214.919 217.425 -215.678 207.772 -216.467C208.807 -217.655 209.843 -218.841 210.88 -220.026C221.181 -220.082 231.448 -220.167 241.683 -220.291C239.985 -218.266 238.29 -216.235 236.598 -214.199ZM270.974 -211.795C261.595 -212.396 252.18 -213.049 242.725 -213.744C244.575 -215.961 246.429 -218.172 248.287 -220.377C258.329 -220.517 268.341 -220.697 278.323 -220.929C275.867 -217.895 273.417 -214.85 270.974 -211.795ZM304.91 -209.86C295.663 -210.316 286.385 -210.836 277.072 -211.411C279.671 -214.65 282.278 -217.876 284.893 -221.089C293.158 -221.3 301.403 -221.548 309.629 -221.839C311.208 -221.895 312.787 -221.952 314.364 -222.011C311.202 -217.981 308.05 -213.93 304.91 -209.86ZM338.335 -208.507C335.08 -208.608 331.821 -208.719 328.559 -208.839C322.719 -209.053 316.868 -209.297 311.004 -209.568C314.299 -213.823 317.606 -218.056 320.925 -222.266C330.549 -222.655 340.149 -223.106 349.725 -223.629C345.913 -218.62 342.116 -213.579 338.335 -208.507ZM370.378 -207.846C361.756 -207.93 353.112 -208.094 344.443 -208.33C348.377 -213.586 352.328 -218.81 356.296 -224C365.334 -224.527 374.352 -225.12 383.352 -225.787C379.007 -219.849 374.681 -213.868 370.378 -207.846ZM402.201 -207.92C393.651 -207.792 385.083 -207.755 376.494 -207.8C380.947 -214.008 385.423 -220.171 389.919 -226.288C398.802 -226.984 407.667 -227.755 416.515 -228.609C411.717 -221.767 406.945 -214.87 402.201 -207.92ZM-272.795 -58.5C-271.803 -59.9368 -270.803 -61.363 -269.793 -62.7786C-269.859 -62.5006 -269.924 -62.2223 -269.989 -61.9437C-270.953 -60.7323 -271.911 -59.5145 -272.863 -58.2903L-272.795 -58.5ZM-277.124 -44.3037C-275.6 -46.3997 -274.061 -48.4781 -272.505 -50.5386C-272.574 -50.2053 -272.644 -49.8716 -272.713 -49.5375L-272.737 -49.4208C-274.28 -47.4851 -275.811 -45.5385 -277.33 -43.5812L-277.22 -43.9654L-277.124 -44.3037ZM-280.791 -30.7479C-278.834 -33.3855 -276.856 -36.004 -274.857 -38.6034L-274.944 -38.1341C-276.944 -35.5441 -278.928 -32.9444 -280.896 -30.335L-280.791 -30.7479ZM-276.903 -26.9822L-276.829 -27.4235C-279.208 -24.2703 -281.564 -21.1027 -283.897 -17.921C-283.977 -17.5743 -284.056 -17.2271 -284.135 -16.8796C-281.741 -20.2488 -279.33 -23.6163 -276.903 -26.9822ZM-283.336 21.5148C-282.001 8.59789 -280.446 -3.9092 -278.64 -15.9797C-281.396 -12.1131 -284.13 -8.24436 -286.843 -4.37329C-289.655 9.29917 -292.124 23.5614 -294.298 38.3748C-290.665 32.782 -287.011 27.1624 -283.336 21.5148ZM-295.94 50.0869C-292.114 44.1904 -288.265 38.2645 -284.392 32.3077C-287.271 63.4442 -288.96 96.8402 -289.86 132.141C-295.122 140.324 -300.377 148.392 -305.625 156.351L-305.582 155.613C-305.54 154.906 -305.498 154.199 -305.456 153.493C-303.265 116.82 -300.245 82.2276 -295.94 50.0869ZM-306.18 166.241C-300.822 158.174 -295.456 149.996 -290.084 141.702C-290.702 170.594 -290.827 200.725 -290.668 231.918C-296.986 240.788 -303.334 249.443 -309.708 257.9C-308.866 226.228 -307.767 195.614 -306.18 166.241ZM-309.928 266.443C-303.465 257.97 -297.026 249.297 -290.619 240.409C-290.445 266.504 -290.089 293.322 -289.671 320.761C-296.889 329.2 -304.173 337.339 -311.512 345.204C-311.058 318.342 -310.569 292.056 -309.928 266.443ZM-311.636 352.611C-304.219 344.774 -296.855 336.664 -289.555 328.255C-289.406 337.87 -289.25 347.56 -289.093 357.321L-289.091 357.413C-288.872 371.064 -288.65 384.852 -288.44 398.766C-296.462 406.086 -304.573 413.045 -312.754 419.676C-312.484 404.41 -312.237 389.29 -311.993 374.334L-311.993 374.327L-311.993 374.321L-311.988 374.045C-311.871 366.862 -311.754 359.717 -311.636 352.611ZM-312.87 426.186C-304.618 419.599 -296.436 412.687 -288.341 405.42C-288.044 425.552 -287.776 445.94 -287.58 466.551C-296.307 472.364 -305.131 477.78 -314.028 482.84C-313.941 479.143 -313.857 475.453 -313.776 471.77C-313.437 456.445 -313.141 441.245 -312.87 426.186ZM-314.167 488.659C-305.205 483.64 -296.317 478.269 -287.526 472.507C-287.373 489.862 -287.273 507.37 -287.252 525.011C-293.835 527.927 -300.466 530.638 -307.133 533.16C-309.911 534.21 -312.695 535.228 -315.485 536.214C-314.98 520.251 -314.547 504.394 -314.167 488.659ZM-305.364 537.836C-299.291 535.54 -293.25 533.088 -287.248 530.471C-287.243 545.293 -287.296 560.207 -287.42 575.201C-297.24 577.609 -307.145 579.609 -317.106 581.245C-316.565 567.957 -316.086 554.729 -315.657 541.572C-312.217 540.375 -308.786 539.13 -305.364 537.836ZM-317.316 586.342C-307.303 584.723 -297.343 582.744 -287.466 580.358C-287.584 592.915 -287.753 605.526 -287.982 618.185C-298.202 618.914 -308.492 619.246 -318.82 619.226C-318.272 608.228 -317.773 597.265 -317.316 586.342ZM-319.072 624.221C-308.695 624.247 -298.352 623.923 -288.076 623.203C-288.281 633.756 -288.527 644.342 -288.821 654.956C-299.357 654.091 -309.945 652.846 -320.554 651.267C-320.025 642.231 -319.532 633.214 -319.072 624.221ZM-320.851 656.274C-310.194 657.851 -299.554 659.094 -288.963 659.958C-289.205 668.26 -289.476 676.58 -289.778 684.914C-300.545 682.549 -311.345 679.826 -322.144 676.791C-321.691 669.941 -321.26 663.102 -320.851 656.274ZM-322.486 681.885C-311.638 684.914 -300.787 687.63 -289.967 689.988C-290.095 693.379 -290.229 696.772 -290.368 700.168C-301.212 696.366 -312.064 692.241 -322.895 687.836C-322.756 685.852 -322.62 683.868 -322.486 681.885ZM-206.486 -172.41C-206.088 -175.135 -205.667 -177.818 -205.222 -180.459C-204.871 -180.783 -204.519 -181.104 -204.166 -181.424C-184.268 -199.422 -159.6 -210.877 -128.963 -214.81C-110.572 -215.932 -92.3268 -216.818 -74.218 -217.515C-77.8426 -214.811 -81.4493 -212.099 -85.0375 -209.381C-104.605 -206.996 -124.232 -204.407 -143.914 -201.563L-144.018 -201.548L-144.119 -201.524C-168.187 -195.964 -188.807 -186.106 -206.486 -172.41ZM-75.1549 -210.57C-71.9172 -212.999 -68.6649 -215.422 -65.3985 -217.841L-64.5894 -217.869L-63.6133 -217.903C-66.3959 -215.59 -69.167 -213.273 -71.9262 -210.951C-73.0023 -210.824 -74.0785 -210.697 -75.1549 -210.57ZM-58.2798 -223.086L-57.311 -223.117C-54.8177 -225.17 -52.3155 -227.22 -49.8048 -229.265C-52.6396 -227.21 -55.4647 -225.15 -58.2798 -223.086ZM-56.9611 -212.675C-54.0184 -214.587 -51.0657 -216.495 -48.1035 -218.399C-45.3855 -218.478 -42.6704 -218.554 -39.9584 -218.627C-43.0208 -216.939 -46.075 -215.247 -49.1204 -213.551C-51.7329 -213.262 -54.3464 -212.97 -56.9611 -212.675ZM-36.2716 -214.949C-33.8756 -216.268 -31.4745 -217.585 -29.0684 -218.898C-26.795 -218.951 -24.5237 -219.002 -22.2544 -219.05C-24.7378 -217.918 -27.2171 -216.784 -29.6921 -215.648C-31.8844 -215.417 -34.0777 -215.184 -36.2716 -214.949ZM83.4737 -220.024C78.6483 -220.021 73.8144 -220.015 68.9718 -220.005C60.5794 -219.272 52.1741 -218.527 43.756 -217.766C-45.2959 -133.734 -123.51 -42.4518 -175.742 45.7348C-184.071 63.1091 -192.526 79.8467 -201.092 95.9931C-198.55 122.295 -195.663 149.59 -192.551 177.765C-177.629 149.928 -163.361 119.787 -149.887 87.0229L-149.851 86.9346L-149.808 86.8494C-98.07 -15.8934 -13.5161 -123.023 83.4737 -220.024ZM167.43 -224.93L170.183 -224.93C171.393 -226.252 172.605 -227.572 173.818 -228.891C168.976 -228.478 164.129 -228.067 159.278 -227.657C162.004 -226.748 164.721 -225.839 167.43 -224.93ZM176.969 -224.932C187.553 -224.938 198.097 -224.962 208.603 -225.015C210.801 -227.519 213.003 -230.015 215.211 -232.503C203.901 -231.488 192.567 -230.499 181.207 -229.523C179.792 -227.995 178.38 -226.465 176.969 -224.932ZM215.295 -225.052C225.543 -225.116 235.756 -225.211 245.937 -225.346C249.014 -228.99 252.102 -232.617 255.2 -236.228C244.32 -235.172 233.416 -234.153 222.489 -233.161C220.084 -230.467 217.687 -227.764 215.295 -225.052ZM252.567 -225.44C262.565 -225.591 272.532 -225.784 282.469 -226.03C286.342 -230.778 290.231 -235.498 294.134 -240.188C293.052 -240.073 291.971 -239.958 290.889 -239.843C281.412 -238.838 271.916 -237.87 262.402 -236.932C259.113 -233.12 255.834 -229.289 252.567 -225.44ZM309.453 -226.836C312.447 -226.942 315.438 -227.053 318.427 -227.171C323.025 -232.991 327.645 -238.768 332.285 -244.499C321.978 -243.267 311.646 -242.091 301.291 -240.961C297.2 -236.073 293.125 -231.153 289.067 -226.201C295.875 -226.386 302.671 -226.596 309.453 -226.836ZM325.018 -227.44C334.611 -227.846 344.178 -228.317 353.72 -228.86C358.969 -235.71 364.246 -242.5 369.545 -249.227C359.529 -247.878 349.488 -246.592 339.425 -245.362C334.601 -239.436 329.798 -233.461 325.018 -227.44ZM360.322 -229.249C369.319 -229.794 378.295 -230.408 387.25 -231.096C392.99 -238.885 398.763 -246.599 404.563 -254.232C395.292 -252.827 385.999 -251.485 376.686 -250.2C371.206 -243.283 365.75 -236.298 360.322 -229.249ZM393.851 -231.618C402.69 -232.336 411.51 -233.129 420.312 -234.006C426.434 -242.676 432.595 -251.256 438.789 -259.742C429.774 -258.202 420.738 -256.732 411.682 -255.325C405.707 -247.506 399.762 -239.602 393.851 -231.618ZM-327.403 680.49C-327.514 682.133 -327.626 683.776 -327.739 685.419C-334.708 681.714 -341.658 677.907 -348.579 674.009C-341.53 676.291 -334.468 678.456 -327.403 680.49ZM-325.814 655.515C-326.21 662.129 -326.626 668.753 -327.063 675.387C-337.99 672.22 -348.912 668.74 -359.796 664.993C-359.281 659.8 -358.78 654.614 -358.291 649.433C-347.476 651.766 -336.639 653.809 -325.814 655.515ZM-324.077 624.182C-324.525 632.935 -325.004 641.71 -325.518 650.504C-336.282 648.798 -347.062 646.755 -357.823 644.423C-357.151 637.183 -356.504 629.956 -355.879 622.743C-345.27 623.546 -334.658 624.042 -324.077 624.182ZM-322.353 587.125C-322.801 597.778 -323.29 608.467 -323.825 619.189C-334.343 619.055 -344.897 618.565 -355.451 617.767C-354.679 608.707 -353.942 599.671 -353.236 590.661C-342.914 589.821 -332.609 588.658 -322.353 587.125ZM-320.716 543.297C-321.14 556.15 -321.612 569.067 -322.143 582.041C-332.335 583.589 -342.579 584.766 -352.844 585.62C-351.978 574.392 -351.16 563.206 -350.382 552.068C-340.448 549.49 -330.549 546.582 -320.716 543.297ZM-319.236 491.457C-319.615 506.851 -320.044 522.359 -320.543 537.965C-330.312 541.277 -340.146 544.21 -350.017 546.811C-349.065 532.982 -348.174 519.228 -347.329 505.561C-341.326 502.783 -335.341 499.871 -329.382 496.815C-325.991 495.076 -322.609 493.291 -319.236 491.457ZM-317.943 430.189C-318.194 443.906 -318.467 457.733 -318.775 471.659C-318.878 476.321 -318.985 480.995 -319.096 485.679C-323.271 487.984 -327.461 490.211 -331.664 492.366C-336.751 494.975 -341.858 497.478 -346.981 499.882C-346.31 488.896 -345.669 477.967 -345.05 467.102C-344.712 461.181 -344.381 455.28 -344.055 449.398C-335.292 443.316 -326.582 436.925 -317.943 430.189ZM-316.98 373.468L-316.988 373.938L-316.995 374.37C-317.261 390.646 -317.529 407.11 -317.827 423.739C-326.386 430.514 -335.019 436.939 -343.704 443.053C-342.738 425.474 -341.815 408.078 -340.903 390.888C-340.736 387.737 -340.569 384.594 -340.402 381.457C-332.463 373.895 -324.566 366.065 -316.725 357.937C-316.8 362.481 -316.875 367.04 -316.95 371.614L-316.975 373.133L-316.98 373.468ZM-315.094 273.166C-315.697 298.381 -316.163 324.227 -316.604 350.608C-324.353 358.752 -332.161 366.598 -340.015 374.176C-338.657 348.685 -337.3 323.674 -335.838 299.226C-328.9 290.748 -321.983 282.067 -315.094 273.166ZM-311.613 174.385C-313.077 203.382 -314.097 233.555 -314.886 264.719C-321.672 273.589 -328.485 282.24 -335.322 290.689C-333.402 259.328 -331.286 228.92 -328.745 199.641C-323.043 191.339 -317.332 182.924 -311.613 174.385ZM-302.23 59.7865C-305.86 89.1417 -308.487 120.373 -310.447 153.195C-310.673 156.981 -310.891 160.789 -311.1 164.619C-316.688 173.023 -322.269 181.306 -327.841 189.478C-327.223 182.689 -326.58 175.963 -325.909 169.301C-322.676 137.202 -318.802 106.655 -313.965 77.9123C-310.077 71.9 -306.166 65.8586 -302.23 59.7865ZM-293.948 5.84056C-296.514 19.4771 -298.765 33.6456 -300.746 48.3083C-304.438 53.9987 -308.109 59.6617 -311.759 65.2986C-308.691 48.4285 -305.262 32.2176 -301.402 16.7202C-298.935 13.0915 -296.451 9.465 -293.948 5.84056ZM-291.248 -7.74769C-291.342 -7.29729 -291.436 -6.84625 -291.53 -6.39461C-293.585 -3.45809 -295.628 -0.520247 -297.66 2.41895C-297.501 1.84094 -297.341 1.26397 -297.181 0.688085C-295.22 -2.1344 -293.242 -4.94637 -291.248 -7.74769ZM-288.535 -20.0576L-288.537 -20.0474L-288.684 -19.8468L-288.535 -20.0576ZM-207.469 -165.208C-207.8 -162.617 -208.11 -159.99 -208.401 -157.328C-193.656 -168.197 -177.171 -176.899 -158.713 -183.234L-158.595 -183.275L-158.474 -183.303C-139.955 -187.665 -121.374 -191.818 -102.747 -195.797C-99.4911 -198.326 -96.2181 -200.851 -92.9287 -203.371C-109.604 -201.288 -126.327 -199.052 -143.096 -196.629C-168.186 -190.817 -189.441 -180.189 -207.469 -165.208ZM-83.0913 -204.582C-85.8989 -202.452 -88.6948 -200.319 -91.4788 -198.182C-89.7689 -198.54 -88.0587 -198.897 -86.3482 -199.253C-85.3321 -199.936 -84.3147 -200.618 -83.2959 -201.3C-81.8172 -202.566 -80.3349 -203.831 -78.849 -205.095C-80.2628 -204.925 -81.6769 -204.754 -83.0913 -204.582ZM-66.2947 -206.576C-68.6449 -205.031 -70.9884 -203.484 -73.3251 -201.935C-71.4705 -202.313 -69.6155 -202.689 -67.7603 -203.064C-65.2963 -204.465 -62.8261 -205.864 -60.3497 -207.26C-62.3307 -207.034 -64.3123 -206.806 -66.2947 -206.576ZM-47.5656 -208.695C-49.0498 -207.867 -50.5319 -207.039 -52.0119 -206.211C-50.8755 -206.435 -49.739 -206.659 -48.6025 -206.882C-47.0188 -207.624 -45.4332 -208.364 -43.8457 -209.103C-45.0854 -208.968 -46.3254 -208.831 -47.5656 -208.695ZM-11.8118 -217.491C-12.5791 -217.413 -13.3465 -217.336 -14.1141 -217.258C-13.6375 -217.474 -13.1609 -217.69 -12.684 -217.905L-12.0157 -218.208L-11.1896 -218.581L-10.1635 -219.044L-9.97072 -219.131C-10.585 -218.585 -11.1986 -218.038 -11.8118 -217.491ZM30.0048 -216.507C31.9075 -216.683 33.8094 -216.859 35.7108 -217.033C-51.7325 -133.923 -128.492 -43.8812 -180.1 43.2815L-180.156 43.3759L-180.203 43.4747C-187.366 58.4197 -194.622 72.8903 -201.96 86.9159C-202.348 82.8054 -202.727 78.7199 -203.097 74.6599C-205.245 51.0652 -207.077 28.3402 -208.501 6.5664C-207.735 5.20219 -206.968 3.83493 -206.201 2.46458C-157.209 -67.8012 -90.5928 -139.744 -15.3661 -207.586C-13.1168 -208.209 -10.8661 -208.83 -8.61407 -209.45C4.25144 -211.852 17.1261 -214.201 30.0048 -216.507ZM178.857 -234.342C168.335 -233.44 157.789 -232.549 147.218 -231.66C146.336 -231.952 145.452 -232.244 144.568 -232.535C145.997 -234.002 147.429 -235.466 148.863 -236.927C153.87 -237.766 158.875 -238.604 163.878 -239.442L163.953 -239.454C171.737 -240.757 179.516 -242.06 187.289 -243.364C184.47 -240.368 181.659 -237.361 178.857 -234.342ZM220.075 -237.964C208.841 -236.947 197.576 -235.956 186.283 -234.981C189.333 -238.246 192.393 -241.499 195.462 -244.737C207.569 -246.772 219.661 -248.813 231.732 -250.871C227.832 -246.594 223.946 -242.291 220.075 -237.964ZM259.925 -241.713C249.109 -240.652 238.263 -239.627 227.39 -238.63C231.498 -243.196 235.624 -247.734 239.765 -252.244C250.579 -254.096 261.377 -255.962 272.155 -257.851L274.395 -258.244C269.551 -252.776 264.727 -247.265 259.925 -241.713ZM298.751 -245.714C295.956 -245.411 293.16 -245.112 290.362 -244.815C282.645 -243.997 274.912 -243.203 267.165 -242.43C272.196 -248.213 277.251 -253.951 282.327 -259.641C293.476 -261.612 304.602 -263.609 315.702 -265.639C310.026 -259.062 304.374 -252.419 298.751 -245.714ZM336.821 -250.082C326.556 -248.835 316.265 -247.645 305.947 -246.503C311.792 -253.432 317.667 -260.293 323.568 -267.084C334.4 -269.084 345.205 -271.117 355.982 -273.192C349.565 -265.578 343.176 -257.873 336.821 -250.082ZM374.017 -254.88C364.038 -253.513 354.033 -252.21 344.002 -250.964C350.572 -258.972 357.178 -266.889 363.811 -274.707C374.265 -276.742 384.69 -278.817 395.084 -280.94C388.029 -272.37 381.004 -263.681 374.017 -254.88ZM408.932 -259.959C399.711 -258.536 390.467 -257.178 381.201 -255.877C388.396 -264.887 395.63 -273.78 402.895 -282.545C412.377 -284.507 421.832 -286.509 431.258 -288.557C423.78 -279.162 416.334 -269.626 408.932 -259.959ZM443.044 -265.548C434.083 -263.991 425.1 -262.503 416.095 -261.078C423.693 -270.946 431.336 -280.674 439.011 -290.254C448.105 -292.258 457.171 -294.307 466.206 -296.404C458.446 -286.273 450.721 -275.985 443.044 -265.548ZM-310.132 19.8309C-308.645 17.5737 -307.149 15.3228 -305.642 13.0785C-305.775 13.6011 -305.907 14.1245 -306.038 14.6488C-307.595 16.941 -309.144 19.2341 -310.687 21.5281C-310.503 20.9614 -310.318 20.3956 -310.132 19.8309ZM-315.901 38.3752C-313.733 35.088 -311.552 31.8027 -309.357 28.5192C-312.839 43.7625 -315.942 59.6275 -318.725 76.064C-322.468 81.8531 -326.19 87.6153 -329.891 93.352C-325.691 74.24 -321.061 55.89 -315.901 38.3752ZM-332.816 107.117C-328.813 100.904 -324.787 94.6619 -320.736 88.3889C-324.755 113.946 -328.064 140.81 -330.884 168.8C-331.848 178.37 -332.754 188.074 -333.613 197.906C-339.636 206.665 -345.649 215.296 -351.652 223.81C-349.97 210.701 -348.209 197.804 -346.347 185.134C-342.362 158.017 -337.92 131.961 -332.816 107.117ZM-352.98 234.333C-346.82 225.659 -340.65 216.865 -334.469 207.939C-336.87 236.738 -338.887 266.594 -340.733 297.33C-348.095 306.301 -355.481 315.046 -362.885 323.586C-359.786 292.959 -356.558 263.154 -352.98 234.333ZM-363.748 332.175C-356.226 323.588 -348.719 314.797 -341.235 305.776C-342.646 329.763 -343.964 354.272 -345.291 379.219C-353.658 387.146 -362.074 394.775 -370.522 402.143C-368.264 378.417 -366.036 355.072 -363.748 332.175ZM-371.208 409.351C-362.662 401.986 -354.146 394.358 -345.674 386.433L-345.901 390.714L-345.901 390.719C-346.879 409.152 -347.87 427.816 -348.912 446.677C-351.332 448.343 -353.756 449.985 -356.184 451.604C-362.938 456.109 -369.718 460.439 -376.517 464.611L-376.307 462.46C-374.562 444.572 -372.875 426.86 -371.208 409.351ZM-353.41 455.764C-352.026 454.841 -350.643 453.91 -349.261 452.972C-349.518 457.576 -349.778 462.191 -350.041 466.817C-350.711 478.564 -351.406 490.383 -352.136 502.266C-361.896 506.714 -371.707 510.813 -381.541 514.612C-380.016 499.92 -378.551 485.324 -377.127 470.839C-369.196 466.034 -361.286 461.017 -353.41 455.764ZM-382.122 520.191C-372.218 516.414 -362.329 512.337 -352.485 507.912C-353.314 521.24 -354.188 534.648 -355.12 548.125C-365.341 550.699 -375.598 552.926 -385.856 554.857C-384.567 543.249 -383.326 531.691 -382.122 520.191ZM-386.435 560.041C-376.108 558.125 -365.78 555.917 -355.485 553.363C-356.246 564.204 -357.045 575.089 -357.89 586.013C-368.449 586.783 -379.025 587.221 -389.583 587.377C-388.501 578.237 -387.453 569.124 -386.435 560.041ZM-390.178 592.378C-379.557 592.232 -368.913 591.806 -358.282 591.047C-358.969 599.797 -359.686 608.571 -360.436 617.367C-371.236 616.453 -382.033 615.224 -392.791 613.732C-391.897 606.599 -391.027 599.481 -390.178 592.378ZM-393.415 618.689C-382.597 620.187 -371.734 621.423 -360.863 622.343C-361.468 629.328 -362.094 636.326 -362.743 643.336C-373.71 640.87 -384.652 638.11 -395.533 635.108C-394.813 629.627 -394.107 624.154 -393.415 618.689ZM-396.194 640.11C-385.253 643.118 -374.247 645.882 -363.212 648.352C-363.68 653.33 -364.16 658.313 -364.653 663.302C-366.741 662.567 -368.827 661.823 -370.912 661.069C-379.63 655.876 -388.287 650.557 -396.866 645.132C-396.641 643.457 -396.417 641.783 -396.194 640.11ZM-209.718 -143.456C-209.524 -145.838 -209.317 -148.196 -209.095 -150.528C-193.833 -162.402 -176.631 -171.784 -157.206 -178.465C-142.099 -182.023 -126.951 -185.441 -111.772 -188.738C-114.586 -186.522 -117.388 -184.302 -120.175 -182.079C-137.946 -176.543 -155.57 -170.86 -173.02 -165.009L-173.153 -164.964L-173.281 -164.905C-186.349 -158.819 -198.467 -151.647 -209.718 -143.456ZM-106.96 -186.162C-104.842 -187.825 -102.716 -189.487 -100.582 -191.146C-99.4861 -191.38 -98.3897 -191.613 -97.2931 -191.846C-99.6995 -190.205 -102.098 -188.563 -104.488 -186.918C-105.312 -186.666 -106.136 -186.414 -106.96 -186.162ZM-85.2816 -192.999C-84.5846 -193.601 -83.8868 -194.202 -83.1881 -194.803C-82.6579 -194.913 -82.1278 -195.023 -81.5975 -195.132C-81.9773 -194.913 -82.357 -194.693 -82.7364 -194.474L-83.5498 -194.003C-84.1274 -193.668 -84.7046 -193.334 -85.2816 -192.999ZM139.282 -234.273C138.578 -234.504 137.873 -234.735 137.168 -234.965L140.5 -235.524C140.094 -235.107 139.688 -234.69 139.282 -234.273ZM126.897 -238.309C133.413 -239.406 139.926 -240.499 146.436 -241.59C149.966 -245.181 153.511 -248.756 157.067 -252.314C143.214 -248.892 129.363 -245.446 115.527 -241.968C119.333 -240.751 123.123 -239.531 126.897 -238.309ZM163.25 -244.407L163.276 -244.411L163.301 -244.415C173.206 -246.074 183.102 -247.731 192.986 -249.391C197.879 -254.543 202.795 -259.659 207.731 -264.737C193.99 -261.387 180.238 -258.022 166.486 -254.637C162.593 -250.778 158.715 -246.899 154.852 -243L163.18 -244.395L163.25 -244.407ZM201.212 -250.775C213.241 -252.8 225.252 -254.834 237.239 -256.884C243.261 -263.43 249.316 -269.914 255.397 -276.334L253.432 -275.856L247.317 -274.37L247.301 -274.366L247.285 -274.362L247.269 -274.358L247.253 -274.354L247.237 -274.35C237.136 -271.895 227.022 -269.436 216.901 -266.972C211.648 -261.615 206.417 -256.215 201.212 -250.775ZM271.292 -262.776C274.113 -263.27 276.933 -263.766 279.752 -264.263C286.725 -272.065 293.737 -279.777 300.78 -287.39C288.672 -284.43 276.534 -281.474 264.375 -278.517C257.994 -271.839 251.642 -265.089 245.324 -258.271C253.994 -259.761 262.65 -261.261 271.292 -262.776ZM287.737 -265.678C298.832 -267.651 309.902 -269.65 320.943 -271.684C328.726 -280.624 336.551 -289.439 344.409 -298.121C332.844 -295.256 321.243 -292.401 309.612 -289.552C302.286 -281.698 294.991 -273.737 287.737 -265.678ZM328.862 -273.15C339.65 -275.157 350.408 -277.198 361.136 -279.281C369.611 -289.25 378.13 -299.059 386.68 -308.695C375.538 -305.878 364.354 -303.077 353.133 -300.286C345.007 -291.382 336.912 -282.333 328.862 -273.15ZM369.021 -280.821C379.434 -282.866 389.817 -284.953 400.166 -287.088C405.441 -293.44 410.731 -299.726 416.032 -305.942C419.81 -310.37 423.594 -314.764 427.382 -319.121C416.744 -316.358 406.058 -313.615 395.33 -310.888C394.631 -310.108 393.934 -309.326 393.236 -308.544C385.134 -299.455 377.058 -290.21 369.021 -280.821ZM408.035 -288.722C417.458 -290.691 426.851 -292.701 436.214 -294.758C439.914 -299.368 443.622 -303.942 447.335 -308.481C452.954 -315.348 458.588 -322.134 464.231 -328.834C454.854 -326.324 445.434 -323.833 435.974 -321.36C430.586 -315.213 425.205 -308.991 419.836 -302.697C415.896 -298.077 411.962 -293.418 408.035 -288.722ZM444.027 -296.487C453.055 -298.5 462.054 -300.556 471.021 -302.662C474.513 -307.183 478.012 -311.67 481.516 -316.125C487.428 -323.639 493.356 -331.059 499.296 -338.381C490.475 -335.937 481.61 -333.515 472.705 -331.112C465.522 -322.652 458.352 -314.05 451.205 -305.315C448.81 -302.387 446.417 -299.444 444.027 -296.487ZM-397.644 650.872C-397.18 651.058 -396.716 651.243 -396.252 651.428C-396.703 651.145 -397.153 650.862 -397.604 650.578L-397.644 650.872ZM-402.25 647.638L-402.426 648.939C-407.155 647.011 -411.868 645.044 -416.561 643.04C-422.814 639.631 -429.026 636.166 -435.191 632.652C-434.948 631.292 -434.706 629.933 -434.465 628.574C-432.445 629.234 -430.422 629.887 -428.395 630.534C-419.776 636.328 -411.055 642.037 -402.25 647.638ZM-401.257 640.253C-401.343 640.894 -401.429 641.536 -401.514 642.177C-404.849 640.047 -408.172 637.901 -411.481 635.741C-408.015 636.769 -404.54 637.774 -401.058 638.756C-401.125 639.255 -401.191 639.754 -401.257 640.253ZM-398.366 617.985C-399.03 623.232 -399.707 628.487 -400.398 633.749C-409.046 631.302 -417.652 628.706 -426.197 625.986C-428.531 624.416 -430.857 622.839 -433.175 621.256C-432.655 618.283 -432.138 615.312 -431.626 612.343C-420.62 614.457 -409.52 616.357 -398.366 617.985ZM-395.219 592.426C-396.04 599.279 -396.88 606.147 -397.742 613.027C-408.815 611.408 -419.841 609.519 -430.78 607.415C-429.887 602.198 -429.007 596.988 -428.139 591.787C-417.223 592.254 -406.237 592.487 -395.219 592.426ZM-391.57 560.969C-392.559 569.763 -393.576 578.584 -394.624 587.43C-405.558 587.501 -416.468 587.279 -427.314 586.822C-426.15 579.798 -425.008 572.79 -423.885 565.798C-413.147 564.461 -402.362 562.871 -391.57 560.969ZM-387.356 522.158C-388.529 533.322 -389.738 544.538 -390.992 555.8C-401.697 557.714 -412.4 559.317 -423.063 560.665C-421.58 551.366 -420.129 542.098 -418.707 532.864C-408.269 529.582 -397.807 526.032 -387.356 522.158ZM-382.467 474.041C-383.857 488.133 -385.287 502.325 -386.775 516.605C-397.128 520.491 -407.501 524.055 -417.86 527.352C-415.986 515.118 -414.16 502.946 -412.369 490.845C-402.394 485.53 -392.417 479.947 -382.467 474.041ZM-376.676 414.024C-378.183 429.858 -379.71 445.849 -381.283 461.975C-381.409 463.258 -381.534 464.543 -381.66 465.829L-381.858 467.854C-391.701 473.768 -401.578 479.361 -411.46 484.685C-410.136 475.7 -408.83 466.754 -407.538 457.851C-406.511 450.769 -405.491 443.713 -404.478 436.687C-395.194 429.401 -385.92 421.862 -376.676 414.024ZM-369.412 338.598C-371.607 360.754 -373.753 383.31 -375.932 406.203L-375.932 406.204L-375.935 406.234L-375.995 406.875C-385.116 414.695 -394.271 422.219 -403.441 429.49L-402.316 421.68L-402.309 421.627L-402.308 421.623C-399.597 402.791 -396.917 384.181 -394.221 365.825C-385.942 356.969 -377.669 347.904 -369.412 338.598ZM-359.062 242.864C-362.472 271.088 -365.572 300.217 -368.565 330.096C-376.674 339.327 -384.8 348.32 -392.936 357.107C-388.59 327.716 -384.181 298.996 -379.51 271.082C-372.709 261.81 -365.892 252.409 -359.062 242.864ZM-340.205 118.597C-344.306 139.761 -347.962 161.73 -351.294 184.407C-353.599 200.093 -355.75 216.127 -357.787 232.476C-364.42 241.807 -371.04 251 -377.646 260.067C-374.196 239.924 -370.593 220.216 -366.76 200.996C-362.469 179.478 -357.892 158.588 -352.923 138.4C-348.71 131.83 -344.471 125.229 -340.205 118.597ZM-325.05 52.385C-329.626 69.312 -333.757 86.9364 -337.525 105.194C-341.388 111.191 -345.228 117.161 -349.048 123.105C-343.392 101.439 -337.237 80.6301 -330.444 60.7736C-328.655 57.9759 -326.857 55.1797 -325.05 52.385ZM-320.286 35.5727L-320.418 36.0182L-320.487 36.2512C-321.322 37.5182 -322.154 38.7854 -322.985 40.053L-322.809 39.5889C-321.971 38.248 -321.13 36.9093 -320.286 35.5727ZM-210.215 -136.854C-210.343 -134.999 -210.464 -133.129 -210.577 -131.244C-203.303 -136.684 -195.718 -141.785 -187.803 -146.534L-187.672 -146.612L-187.533 -146.674C-171.02 -154.023 -154.219 -161.244 -137.171 -168.343C-135.079 -170.057 -132.977 -171.77 -130.867 -173.481C-144.439 -169.184 -157.919 -164.798 -171.297 -160.313C-185.346 -153.759 -198.283 -145.914 -210.215 -136.854ZM-46.7616 -198.751C-39.8914 -200.716 -33.0053 -202.664 -26.1049 -204.595C-97.9122 -139.087 -161.556 -69.9211 -209.054 -2.18096C-210.505 -25.9482 -211.444 -48.5412 -211.752 -69.8496C-181.23 -104.069 -146.604 -138.371 -109.104 -172.032C-100.847 -176.173 -92.5185 -180.29 -84.1242 -184.381C-71.7685 -189.228 -59.3095 -194.018 -46.7616 -198.751ZM109.613 -245.635L107.982 -245.224L106.478 -244.844C102.391 -246.136 98.2855 -247.423 94.1604 -248.705C103.71 -251.904 113.279 -255.078 122.862 -258.228C118.426 -254.054 114.009 -249.856 109.613 -245.635ZM163.95 -259.161C149.108 -255.506 134.265 -251.823 119.435 -248.104C124.307 -252.737 129.205 -257.342 134.124 -261.917C150.34 -267.209 166.59 -272.433 182.846 -277.592C176.514 -271.505 170.214 -265.36 163.95 -259.161ZM214.333 -271.492C200.715 -268.175 187.082 -264.846 173.445 -261.497C180.146 -268.067 186.887 -274.575 193.662 -281.016C208.308 -285.638 222.954 -290.21 237.58 -294.733C229.79 -287.085 222.038 -279.336 214.333 -271.492ZM261.773 -283.03C258.6 -282.258 255.426 -281.486 252.251 -280.715L246.034 -279.203L245.937 -279.18C238.491 -277.37 231.037 -275.558 223.577 -273.743C231.686 -281.924 239.845 -290 248.043 -297.962C261.533 -302.116 275.002 -306.23 288.434 -310.306C279.504 -301.361 270.612 -292.265 261.773 -283.03ZM306.975 -294.054C294.955 -291.11 282.902 -288.171 270.824 -285.232C280.038 -294.775 289.306 -304.166 298.613 -313.39C311.228 -317.206 323.806 -320.989 336.335 -324.741C326.508 -314.712 316.715 -304.477 306.975 -294.054ZM350.461 -304.775C338.971 -301.919 327.442 -299.075 315.881 -296.237C324.392 -305.269 332.944 -314.156 341.52 -322.886C343.108 -324.502 344.696 -326.112 346.285 -327.717C358.225 -331.286 370.116 -334.826 381.948 -338.341C375.864 -332.022 369.788 -325.617 363.727 -319.129C359.297 -314.388 354.874 -309.603 350.461 -304.775ZM392.622 -315.359C381.544 -312.546 370.421 -309.75 359.259 -306.965C361.963 -309.898 364.67 -312.815 367.38 -315.716C375.472 -324.376 383.586 -332.887 391.713 -341.24C403.124 -344.626 414.476 -347.989 425.759 -351.33C414.689 -339.646 403.632 -327.647 392.622 -315.359ZM433.227 -325.81C422.649 -323.048 412.02 -320.306 401.347 -317.581C412.66 -330.1 424.014 -342.308 435.375 -354.177L435.741 -354.285L435.742 -354.285L435.747 -354.287L435.799 -354.302L435.883 -354.327L435.983 -354.356C446.544 -357.483 457.041 -360.591 467.466 -363.681C456.039 -351.411 444.615 -338.777 433.227 -325.81ZM469.901 -335.535C460.61 -333.031 451.274 -330.548 441.897 -328.082C453.561 -341.254 465.257 -354.068 476.946 -366.492C486.049 -369.193 495.095 -371.881 504.077 -374.556C492.675 -361.921 481.271 -348.903 469.901 -335.535ZM504.765 -345.092C496.038 -342.656 487.266 -340.242 478.452 -337.848C490.062 -351.389 501.7 -364.555 513.328 -377.315C521.679 -379.807 529.974 -382.289 538.207 -384.762C527.048 -371.909 515.89 -358.675 504.765 -345.092ZM-345.238 84.2809C-343.953 82.2078 -342.664 80.1357 -341.37 78.0643C-347.244 96.7941 -352.613 116.266 -357.583 136.403C-361.707 142.835 -365.807 149.239 -369.885 155.616C-362.306 130.875 -354.156 107.058 -345.238 84.2809ZM-375.092 173.06C-370.472 165.818 -365.824 158.542 -361.144 151.231C-364.858 167.116 -368.348 183.391 -371.664 200.018C-376.13 222.412 -380.284 245.465 -384.247 269.091C-391.796 279.374 -399.327 289.499 -406.838 299.487C-400.563 271.196 -394.064 243.627 -387.127 216.905C-383.262 202.013 -379.262 187.391 -375.092 173.06ZM-409.416 311.203C-401.649 300.938 -393.86 290.533 -386.051 279.965C-390.513 307.142 -394.749 335.048 -398.941 363.554C-408.077 373.303 -417.221 382.802 -426.362 392.091C-420.768 364.59 -415.175 337.594 -409.416 311.203ZM-428.182 401.055C-418.862 391.66 -409.532 382.054 -400.207 372.192C-402.555 388.256 -404.895 404.504 -407.258 420.914L-407.26 420.927L-407.26 420.928L-407.267 420.98C-407.889 425.3 -408.513 429.632 -409.139 433.975C-419.23 441.858 -429.336 449.447 -439.43 456.798L-438.723 453.295C-438.123 450.321 -437.524 447.353 -436.927 444.389L-435.342 436.522L-435.272 436.177L-435.261 436.121L-435.255 436.094L-435.229 435.961C-432.868 424.244 -430.523 412.606 -428.182 401.055ZM-440.897 464.062C-430.666 456.674 -420.414 449.047 -410.17 441.122C-410.938 446.444 -411.71 451.781 -412.487 457.133C-413.953 467.241 -415.437 477.403 -416.946 487.613C-427.633 493.265 -438.321 498.613 -448.976 503.723C-446.241 490.42 -443.553 477.197 -440.897 464.062ZM-450.243 509.868C-439.48 504.753 -428.671 499.399 -417.853 493.74C-419.589 505.44 -421.36 517.202 -423.174 529.021C-434.221 532.443 -445.246 535.573 -456.209 538.48C-454.19 528.906 -452.203 519.367 -450.243 509.868ZM-457.367 543.956C-446.313 541.056 -435.184 537.932 -424.02 534.513C-425.395 543.412 -426.796 552.342 -428.228 561.299C-439.475 562.639 -450.672 563.705 -461.776 564.569C-460.288 557.681 -458.819 550.81 -457.367 543.956ZM-462.881 569.668C-451.693 568.813 -440.401 567.754 -429.05 566.423C-430.129 573.131 -431.227 579.855 -432.344 586.593C-443.678 586.04 -454.937 585.239 -466.075 584.258C-465 579.387 -463.935 574.524 -462.881 569.668ZM-467.165 589.184C-455.949 590.177 -444.602 590.991 -433.17 591.555C-433.998 596.515 -434.837 601.482 -435.688 606.456C-444.656 604.676 -453.561 602.756 -462.382 600.73C-464.501 599.198 -466.611 597.663 -468.712 596.125C-468.194 593.81 -467.678 591.496 -467.165 589.184ZM-451.975 608.179C-446.853 609.289 -441.705 610.36 -436.535 611.385C-436.923 613.638 -437.314 615.892 -437.708 618.148C-442.5 614.847 -447.257 611.523 -451.975 608.179ZM-452.96 622.319C-448.417 623.906 -443.85 625.465 -439.262 626.992C-439.371 627.608 -439.481 628.225 -439.59 628.842L-439.799 630.012C-444.212 627.47 -448.6 624.904 -452.96 622.319ZM-211.098 -121.27C-211.047 -122.415 -210.993 -123.554 -210.937 -124.689C-202.818 -130.964 -194.301 -136.797 -185.361 -142.168C-173.864 -147.284 -162.228 -152.337 -150.466 -157.33C-151.461 -156.497 -152.453 -155.664 -153.443 -154.83C-169.994 -146.08 -186.192 -137.229 -201.984 -128.284L-202.122 -128.206L-202.249 -128.111C-205.242 -125.872 -208.191 -123.592 -211.098 -121.27ZM76.7184 -248.101L77.8549 -248.486L77.3263 -248.646L76.7184 -248.101ZM85.9848 -251.23C101.12 -256.325 116.306 -261.355 131.522 -266.325C139.717 -273.936 147.973 -281.465 156.278 -288.903C135.789 -280.875 115.349 -272.678 95.0298 -264.322C90.5632 -260.418 86.1151 -256.492 81.6874 -252.546C83.1222 -252.108 84.5547 -251.67 85.9848 -251.23ZM142.904 -270.029C158.937 -275.229 174.996 -280.363 191.054 -285.434C201.236 -295.102 211.492 -304.616 221.802 -313.963C204.432 -307.477 187.044 -300.864 169.681 -294.129C160.698 -286.201 151.767 -278.164 142.904 -270.029ZM201.984 -288.877C216.475 -293.429 230.962 -297.932 245.424 -302.387C257.01 -313.625 268.671 -324.633 280.376 -335.389C265.136 -329.927 249.845 -324.361 234.531 -318.694C223.62 -308.941 212.762 -298.996 201.984 -288.877ZM255.995 -305.638C269.354 -309.736 282.687 -313.796 295.979 -317.818C301.37 -323.154 306.773 -328.433 312.185 -333.653C319.402 -340.615 326.636 -347.472 333.879 -354.22C320.169 -349.481 306.387 -344.652 292.556 -339.736C291.633 -338.899 290.71 -338.061 289.787 -337.221C278.477 -326.925 267.203 -316.39 255.995 -305.638ZM306.263 -320.926C318.764 -324.697 331.225 -328.437 343.634 -332.146C356.899 -345.524 370.217 -358.523 383.538 -371.104C370.972 -366.901 358.321 -362.618 345.602 -358.256C335.604 -349.066 325.615 -339.66 315.656 -330.054C312.522 -327.031 309.391 -323.988 306.263 -320.926ZM353.686 -335.148C365.527 -338.681 377.317 -342.186 389.044 -345.667C402.746 -359.73 416.483 -373.346 430.196 -386.469C418.513 -382.68 406.733 -378.817 394.871 -374.879C381.135 -362.08 367.388 -348.821 353.686 -335.148ZM398.909 -348.593C410.233 -351.951 421.496 -355.286 432.687 -358.599C446.615 -373.125 460.555 -387.145 474.446 -400.607C463.464 -397.15 452.374 -393.62 441.19 -390.02C427.115 -376.73 413 -362.904 398.909 -348.593ZM442.404 -361.475C453.086 -364.638 463.699 -367.781 474.235 -370.906C488.134 -385.655 502.026 -399.858 515.847 -413.459C505.719 -410.359 495.48 -407.193 485.139 -403.961C470.939 -390.381 456.672 -376.2 442.404 -361.475ZM483.816 -373.75C492.795 -376.417 501.716 -379.07 510.571 -381.712C523.924 -396.34 537.264 -410.435 550.535 -423.947C542.518 -421.553 534.418 -419.113 526.241 -416.628C512.166 -402.958 498.001 -388.646 483.816 -373.75ZM519.917 -384.503C528.134 -386.96 536.293 -389.406 544.389 -391.843C556.938 -406.14 569.479 -419.949 581.963 -433.227C574.88 -431.16 567.722 -429.054 560.492 -426.91C547.033 -413.373 533.487 -399.22 519.917 -384.503ZM-473.379 616.716C-470.84 617.981 -468.291 619.239 -465.732 620.491C-468.232 618.976 -470.721 617.455 -473.199 615.929L-473.379 616.716ZM-477.729 613.314L-477.98 614.412C-481.144 612.819 -484.291 611.218 -487.421 609.608C-484.206 610.853 -480.975 612.089 -477.729 613.314ZM-471.881 610.164C-462.47 613.673 -452.939 617.082 -443.314 620.353C-450.454 615.407 -457.514 610.411 -464.485 605.379C-466.487 604.917 -468.485 604.45 -470.478 603.977C-470.943 606.038 -471.411 608.101 -471.881 610.164ZM-475.341 602.812C-475.73 604.538 -476.122 606.265 -476.515 607.993C-481.326 604.995 -486.095 601.978 -490.819 598.949C-485.697 600.265 -480.536 601.555 -475.341 602.812ZM-472.185 588.726C-472.494 590.114 -472.803 591.502 -473.113 592.891C-475.32 591.262 -477.517 589.63 -479.705 587.995C-477.205 588.247 -474.699 588.491 -472.185 588.726ZM-468.081 570.052C-469.077 574.629 -470.081 579.213 -471.095 583.803C-476.585 583.292 -482.044 582.738 -487.467 582.151C-491.959 578.744 -496.406 575.329 -500.802 571.91C-490.034 571.434 -479.112 570.837 -468.081 570.052ZM-462.776 545.359C-464.16 551.878 -465.559 558.411 -466.976 564.959C-478.865 565.82 -490.639 566.458 -502.247 566.96C-501.019 562.621 -499.798 558.288 -498.585 553.963C-492.097 552.492 -485.563 550.973 -478.994 549.389C-473.611 548.092 -468.203 546.751 -462.776 545.359ZM-455.9 512.537C-457.78 521.624 -459.685 530.745 -461.619 539.897C-467.825 541.505 -474.01 543.045 -480.165 544.528C-485.822 545.892 -491.453 547.208 -497.052 548.486C-495.194 541.836 -493.352 535.203 -491.525 528.586C-479.748 523.456 -467.857 518.137 -455.9 512.537ZM-446.866 468.347C-449.42 480.962 -452.005 493.655 -454.636 506.417C-466.426 511.986 -478.167 517.279 -489.814 522.382C-487.058 512.37 -484.333 502.398 -481.632 492.47C-470.103 484.666 -458.501 476.654 -446.866 468.347ZM-434.584 407.478C-436.428 416.6 -438.277 425.774 -440.134 434.994L-440.167 435.154C-441.315 440.854 -442.467 446.571 -443.624 452.306C-443.953 453.938 -444.283 455.572 -444.613 457.206L-444.924 458.747L-445.404 461.123C-456.839 469.352 -468.253 477.29 -479.608 485.021C-476.513 473.62 -473.447 462.279 -470.399 451.004L-470.398 451.003L-469.809 448.822C-468.962 445.688 -468.116 442.56 -467.271 439.437C-456.408 429.012 -445.505 418.383 -434.584 407.478ZM-416.577 320.636C-422.065 346.117 -427.418 372.131 -432.782 398.583C-443.447 409.313 -454.101 419.772 -464.725 430.028C-458.056 405.403 -451.439 381.111 -444.749 357.211C-435.393 345.188 -426.001 333.01 -416.577 320.636ZM-384.487 187.808C-387.041 196.983 -389.531 206.265 -391.967 215.648C-399.789 245.781 -407.055 276.984 -414.067 309.066C-423.124 321.026 -432.152 332.798 -441.149 344.418C-430.317 306.12 -419.238 268.863 -407.396 232.889C-405.29 226.493 -403.16 220.137 -401.004 213.825C-395.537 205.194 -390.033 196.524 -384.487 187.808ZM-359.033 106.879C-366.422 127.53 -373.264 148.923 -379.693 170.976C-384.411 178.374 -389.099 185.738 -393.759 193.071C-383.485 164.289 -372.569 136.452 -360.725 109.695L-360.215 108.846L-359.771 108.106C-359.525 107.697 -359.279 107.288 -359.033 106.879ZM-211.363 -114.624C-211.374 -114.334 -211.384 -114.043 -211.394 -113.752L-211.411 -113.234C-200.219 -121.015 -188.744 -128.763 -177.012 -136.47C-184.553 -132.338 -192.012 -128.185 -199.381 -124.012C-203.456 -120.962 -207.449 -117.832 -211.363 -114.624ZM74.9738 -254.583L76.0854 -254.247C77.646 -255.642 79.2091 -257.035 80.7747 -258.426C78.1795 -257.346 75.5866 -256.264 72.996 -255.179C73.6558 -254.98 74.315 -254.782 74.9738 -254.583ZM92.3623 -268.631C83.3666 -264.93 74.3945 -261.197 65.4521 -257.434C61.0019 -258.756 56.5286 -260.07 52.0319 -261.374C76.4067 -273.629 101.08 -285.598 125.897 -297.234C114.624 -287.844 103.437 -278.304 92.3623 -268.631ZM167.042 -298.468C146.915 -290.656 126.821 -282.679 106.827 -274.548C119.078 -285.079 131.457 -295.443 143.927 -305.617C165.896 -315.748 187.948 -325.609 209.979 -335.169C195.573 -323.234 181.242 -310.987 167.042 -298.468ZM231.907 -323.055C214.829 -316.731 197.724 -310.283 180.632 -303.716C195.831 -316.917 211.165 -329.798 226.57 -342.313C244.511 -349.98 262.42 -357.44 280.239 -364.677C273.707 -359.256 267.18 -353.757 260.663 -348.185C251.05 -339.965 241.459 -331.584 231.907 -323.055ZM289.94 -344.113C274.945 -338.779 259.891 -333.344 244.807 -327.809C251.162 -333.403 257.532 -338.929 263.913 -344.385C274.485 -353.425 285.085 -362.27 295.689 -370.904C310.959 -377.013 326.151 -382.952 341.229 -388.712C324.121 -374.442 306.992 -359.551 289.94 -344.113ZM342.99 -362.646C329.489 -358.013 315.912 -353.291 302.281 -348.483C320.075 -364.368 337.929 -379.638 355.731 -394.209C369.125 -399.247 382.418 -404.138 395.585 -408.875C378.096 -394.184 360.527 -378.745 342.99 -362.646ZM392.261 -379.281C379.878 -375.168 367.407 -370.976 354.864 -366.705C373.032 -383.152 391.208 -398.869 409.27 -413.758C421.28 -418.009 433.175 -422.126 444.937 -426.105C427.47 -411.31 409.873 -395.67 392.261 -379.281ZM438.581 -394.433C427.061 -390.722 415.441 -386.937 403.737 -383.079C421.871 -399.722 439.965 -415.546 457.89 -430.449C468.84 -434.088 479.664 -437.603 490.348 -440.988C473.226 -426.342 455.931 -410.792 438.581 -394.433ZM482.531 -408.384C471.697 -404.996 460.752 -401.535 449.711 -398.005C467.475 -414.524 485.156 -430.17 502.626 -444.84C512.733 -447.98 522.706 -450.999 532.529 -453.893C516.026 -439.619 499.323 -424.418 482.531 -408.384ZM523.628 -421.06C513.647 -418.025 503.552 -414.924 493.354 -411.757C510.448 -427.855 527.425 -443.063 544.167 -457.283C553.206 -459.887 562.11 -462.38 570.868 -464.759C555.296 -451.06 539.517 -436.466 523.628 -421.06ZM557.848 -431.341C550.028 -429.02 542.125 -426.655 534.145 -424.246C550.215 -439.616 566.151 -454.131 581.851 -467.704C588.221 -469.389 594.509 -471.011 600.709 -472.569C586.567 -459.57 572.255 -445.806 557.848 -431.341ZM588.763 -440.413C581.885 -438.418 574.932 -436.385 567.909 -434.316C612.569 -478.586 656.154 -515.932 696.406 -544.423C705.762 -551.046 714.932 -557.185 723.887 -562.819C681.523 -531.164 635.612 -489.599 588.763 -440.413ZM-424.101 241.026C-410.509 208.297 -396.295 176.35 -381.089 145.279C-389.683 166.829 -397.79 188.975 -405.544 211.649C-411.777 221.489 -417.961 231.279 -424.101 241.026ZM-435.015 267.789C-427.483 255.775 -419.889 243.707 -412.225 231.568C-425.282 271.252 -437.412 312.482 -449.297 354.911C-461.175 370.167 -472.999 385.177 -484.763 400.028C-468.52 354.833 -452.207 310.686 -435.015 267.789ZM-490.03 414.724C-477.697 399.193 -465.293 383.505 -452.825 367.563C-459.141 390.316 -465.408 413.4 -471.728 436.764C-484.911 449.4 -498.039 461.745 -511.073 473.928L-509.186 468.608L-509.095 468.351C-506.27 460.382 -503.455 452.441 -500.645 444.53C-497.101 434.547 -493.565 424.611 -490.03 414.724ZM-514.713 484.192C-501.329 471.705 -487.829 459.06 -474.258 446.12L-474.635 447.517L-475.213 449.655L-475.218 449.673L-475.247 449.778L-475.267 449.852C-478.802 462.929 -482.36 476.091 -485.959 489.328C-499.42 498.423 -512.788 507.247 -526.002 515.942C-522.211 505.313 -518.451 494.729 -514.713 484.192ZM-528.809 523.802C-515.359 514.96 -501.727 505.993 -487.98 496.752C-490.532 506.117 -493.106 515.518 -495.709 524.953C-509.037 530.74 -522.246 536.305 -535.253 541.779C-533.093 535.773 -530.946 529.781 -528.809 523.802ZM-532.867 546.2C-521.222 541.3 -509.392 536.314 -497.419 531.143C-499.131 537.329 -500.856 543.529 -502.595 549.742C-509.466 551.287 -516.288 552.781 -523.049 554.24C-526.356 551.558 -529.629 548.877 -532.867 546.2ZM-518.052 558.274C-513.438 557.272 -508.796 556.253 -504.128 555.21C-505.208 559.054 -506.294 562.903 -507.386 566.758C-510.977 563.93 -514.533 561.102 -518.052 558.274ZM-529.843 572.961C-522.957 572.756 -515.987 572.525 -508.946 572.249C-509.622 574.627 -510.301 577.007 -510.983 579.389C-514.908 578.894 -518.809 578.388 -522.684 577.873C-525.086 576.236 -527.472 574.598 -529.843 572.961ZM-504.61 575.282C-505.06 576.858 -505.51 578.435 -505.961 580.013C-503.03 580.372 -500.086 580.724 -497.129 581.067C-499.639 579.14 -502.132 577.212 -504.61 575.282ZM-513.428 584.127C-513.079 584.172 -512.73 584.216 -512.38 584.26L-512.517 584.737C-512.821 584.534 -513.125 584.33 -513.428 584.127ZM-508.017 587.178L-508.151 587.645C-506.844 588.512 -505.532 589.378 -504.217 590.244C-494.597 592.838 -484.824 595.36 -474.929 597.764C-479.793 594.182 -484.609 590.585 -489.374 586.979C-495.42 586.319 -501.417 585.617 -507.358 584.886L-507.523 585.46L-507.896 586.759L-508.017 587.178ZM-519.622 591.194C-518.01 591.647 -516.393 592.098 -514.77 592.547L-514.945 593.15C-516.509 592.499 -518.068 591.847 -519.622 591.194ZM-509.949 593.874L-510.297 595.074C-506.505 596.635 -502.685 598.187 -498.839 599.729C-501.334 598.112 -503.815 596.493 -506.283 594.871C-507.507 594.539 -508.73 594.207 -509.949 593.874ZM-216.692 -102.641L-217.225 -102.2C-217.047 -102.366 -216.869 -102.531 -216.691 -102.697L-216.692 -102.641ZM-211.598 -106.836L-211.593 -107.012C-211.115 -107.346 -210.637 -107.68 -210.158 -108.014C-210.639 -107.621 -211.118 -107.229 -211.598 -106.836ZM-127.765 -161.817C-136.562 -156.411 -145.246 -150.98 -153.808 -145.525C-161.524 -139.791 -169.122 -134.038 -176.591 -128.273C-188.732 -117.546 -200.483 -106.787 -211.797 -96.0182C-211.871 -89.8832 -211.882 -83.6255 -211.834 -77.2482C-186.33 -105.547 -158.077 -133.871 -127.765 -161.817ZM56.9229 -269.417C84.7444 -283.308 112.931 -296.823 141.258 -309.893C163.095 -327.696 185.208 -344.915 207.415 -361.424C198.023 -356.853 188.624 -352.208 179.228 -347.494C156.755 -336.217 134.303 -324.544 112 -312.529C93.4116 -298.507 75.0175 -284.114 56.9229 -269.417ZM159.653 -318.308C181.069 -328.023 202.538 -337.476 223.961 -346.636C227.608 -349.596 231.258 -352.536 234.911 -355.454C255.634 -372.008 276.453 -387.883 297.208 -402.962C275.635 -393.507 253.861 -383.579 232.005 -373.23C225.381 -368.455 218.759 -363.613 212.145 -358.708C194.559 -345.666 177.031 -332.179 159.653 -318.308ZM240.867 -353.807C258.35 -361.165 275.786 -368.323 293.123 -375.263C318.114 -395.592 343.137 -414.755 367.9 -432.533C351.749 -426.109 335.399 -419.371 318.907 -412.342C292.973 -394.067 266.854 -374.481 240.867 -353.807ZM308.85 -381.51C323.731 -387.375 338.525 -393.074 353.2 -398.599C377.809 -418.72 402.324 -437.513 426.451 -454.751C413.579 -450.112 400.526 -445.238 387.323 -440.144C361.424 -422.113 335.152 -402.484 308.85 -381.51ZM367.949 -404.107C381.002 -408.942 393.95 -413.635 406.769 -418.176C430.309 -437.557 453.661 -455.543 476.551 -471.915C465.846 -468.448 454.974 -464.791 443.954 -460.954C419.008 -443.672 393.56 -424.637 367.949 -404.107ZM420.673 -423.061C432.378 -427.138 443.965 -431.084 455.418 -434.895C477.388 -453.136 499.111 -470.002 520.353 -485.301C511.173 -482.673 501.834 -479.881 492.352 -476.931C468.92 -460.674 444.925 -442.637 420.673 -423.061ZM468.563 -439.23C479.234 -442.715 489.778 -446.079 500.181 -449.315C520.197 -466.095 539.944 -481.603 559.234 -495.683C551.173 -493.697 542.958 -491.562 534.599 -489.284C513.065 -474.221 490.968 -457.468 468.563 -439.23ZM512.623 -453.146C522.472 -456.147 532.186 -459.03 541.749 -461.79C572.745 -488.07 602.956 -510.989 631.639 -529.924C654.724 -545.163 676.851 -557.842 697.63 -567.618C696.793 -567.667 695.95 -567.708 695.102 -567.742C668.112 -557.669 638.262 -542.161 606.519 -521.976C598.726 -517.02 590.823 -511.785 582.823 -506.282C584.999 -506.752 587.163 -507.211 589.314 -507.658L590.331 -502.762C584.337 -501.518 578.238 -500.177 572.04 -498.743C552.683 -484.996 532.811 -469.743 512.623 -453.146ZM553.521 -465.147C562.304 -467.621 570.953 -469.987 579.455 -472.242C607.279 -496.249 634.379 -517.322 660.192 -534.981C681.675 -549.677 702.297 -562.03 721.73 -571.744C721.175 -571.79 720.617 -571.832 720.057 -571.869C693.965 -561.64 665.106 -546.025 634.394 -525.751C608.526 -508.675 581.384 -488.32 553.521 -465.147ZM606.818 -479.239L607.038 -478.345C636.912 -505.418 665.975 -529.009 693.518 -548.504C699.505 -552.743 705.424 -556.789 711.265 -560.637C695.856 -552.251 679.721 -542.283 663.015 -530.854C639.786 -514.963 615.488 -496.274 590.539 -475.14C596.031 -476.555 601.459 -477.922 606.818 -479.239ZM-547.101 574.489C-542.673 575.123 -538.202 575.755 -533.691 576.379C-535.222 575.319 -536.747 574.26 -538.264 573.201C-541.096 573.278 -543.913 573.353 -546.713 573.426L-547.101 574.489ZM-552.086 573.564L-552.158 573.761L-552.762 573.674L-552.913 573.586L-552.086 573.564ZM-549.155 565.522C-549.517 566.516 -549.879 567.51 -550.241 568.504L-553.345 568.584L-554.165 568.605L-554.24 568.607L-554.245 568.607L-554.264 568.608L-554.447 568.612L-555.492 568.639L-556.973 568.677L-558.056 568.705C-559.064 568.731 -560.07 568.757 -561.074 568.783C-561.613 568.464 -562.151 568.145 -562.689 567.826C-558.679 566.96 -554.636 566.095 -550.561 565.226L-549.799 565.064L-549.155 565.522ZM-543.155 563.65L-543.155 563.65L-542.669 563.546L-542.598 563.531C-536.572 562.25 -530.481 560.955 -524.335 559.632C-521.114 562.236 -517.86 564.842 -514.577 567.447C-522.058 567.717 -529.46 567.942 -536.768 568.146C-538.911 566.646 -541.041 565.148 -543.155 563.65ZM-541.147 558.111C-540.005 554.958 -538.867 551.809 -537.733 548.663C-534.953 550.969 -532.147 553.277 -529.316 555.587C-533.282 556.437 -537.226 557.277 -541.147 558.111ZM-543.824 550.813C-544.85 553.652 -545.878 556.493 -546.909 559.336L-548.686 559.715C-550.698 558.275 -552.697 556.838 -554.682 555.402C-551.084 553.876 -547.464 552.347 -543.824 550.813ZM-535.753 528.368C-537.169 532.323 -538.59 536.283 -540.017 540.249C-542.045 538.549 -544.059 536.85 -546.058 535.155C-542.637 532.897 -539.201 530.636 -535.753 528.368ZM-522.643 491.588C-526.054 501.191 -529.483 510.831 -532.94 520.505C-538.672 524.275 -544.373 528.025 -550.037 531.766C-552.768 529.431 -555.469 527.102 -558.139 524.78C-547.315 514.586 -536.377 504.39 -525.351 494.112L-525.345 494.106L-525.343 494.105L-525.269 494.035L-525.238 494.006L-525.226 493.996L-525.222 493.992L-525.222 493.992L-522.643 491.588ZM-499.663 426.843C-501.559 432.168 -503.457 437.506 -505.357 442.856C-508.198 450.856 -511.044 458.884 -513.9 466.939C-515.598 471.728 -517.299 476.526 -519.004 481.334C-522.112 484.234 -525.214 487.126 -528.31 490.011L-528.31 490.012L-528.32 490.021L-528.342 490.041C-539.634 500.568 -550.84 511.015 -561.934 521.468C-563.288 520.282 -564.634 519.097 -565.971 517.915C-563.552 512.653 -561.138 507.401 -558.729 502.159L-558.729 502.158L-557.71 499.941C-543.025 481.305 -528.218 462.709 -513.299 443.973L-513.297 443.971L-513.296 443.97L-513.296 443.969L-513.032 443.638L-512.728 443.256L-512.36 442.794L-512.334 442.761C-508.119 437.468 -503.895 432.163 -499.663 426.843ZM-449.588 291.084C-464.946 330.545 -479.701 370.989 -494.454 412.245C-501.985 421.728 -509.491 431.154 -516.971 440.548L-516.974 440.55C-527.648 453.956 -538.27 467.295 -548.834 480.633C-530.45 440.66 -512.263 401.291 -493.782 362.43C-479.222 338.742 -464.516 315.003 -449.588 291.084ZM-411.813 199.593C-418.725 215.257 -425.452 231.111 -432.037 247.143C-434.541 253.24 -437.024 259.364 -439.49 265.512C-450.789 283.534 -461.951 301.434 -473.007 319.263C-453.322 278.887 -433.113 239.033 -411.813 199.593ZM31.4417 -267.23C35.1564 -266.195 38.855 -265.152 42.5376 -264.103C55.9959 -275.205 69.6324 -286.143 83.403 -296.889C65.9337 -287.191 48.5921 -277.295 31.4417 -267.23ZM109.294 -316.75C80.7768 -301.382 52.5004 -285.455 24.7346 -269.085C20.9175 -270.134 17.0832 -271.175 13.2315 -272.206C17.3543 -275.303 21.4926 -278.385 25.6453 -281.454C70.0727 -310.794 115.924 -338.755 161.944 -364.683C186.46 -378.496 211.017 -391.728 235.425 -404.28C218.1 -393.271 200.741 -381.826 183.429 -369.996C158.548 -352.995 133.756 -335.196 109.294 -316.75ZM229.453 -377.553C211.992 -369.281 194.482 -360.742 176.986 -351.963C164.272 -345.583 151.564 -339.076 138.884 -332.452C154.592 -343.887 170.402 -355.039 186.249 -365.868C219.501 -388.588 252.911 -409.879 285.907 -429.373C311.593 -441.693 336.96 -453.163 361.778 -463.667C318.494 -438.608 273.898 -409.57 229.453 -377.553ZM316.46 -416.734C296.088 -408.046 275.503 -398.917 254.808 -389.394C303.966 -423.656 352.977 -454.036 399.848 -479.185C413.063 -484.359 426.078 -489.226 438.857 -493.767C399.38 -472.077 358.148 -446.088 316.46 -416.734ZM384.961 -444.592C369.745 -438.715 354.335 -432.548 338.776 -426.11C382.856 -456.138 426.163 -482.175 467.122 -503.099C467.666 -503.377 468.209 -503.654 468.752 -503.93C476.921 -506.577 484.973 -509.075 492.899 -511.419L492.641 -511.281C458.148 -492.778 421.924 -470.301 384.961 -444.592ZM441.667 -465.452C429.569 -461.233 417.297 -456.798 404.877 -452.159C435.772 -472.937 466.014 -491.323 495.005 -506.874C502.314 -510.795 509.541 -514.534 516.674 -518.084C522.523 -519.63 528.291 -521.083 533.974 -522.439C529.493 -520.038 524.98 -517.561 520.437 -515.009C495.033 -500.74 468.636 -484.112 441.667 -465.452ZM490.133 -481.477C480.09 -478.347 469.888 -475.043 459.546 -471.571C481.173 -486.037 502.361 -499.121 522.886 -510.65C533.115 -516.395 543.17 -521.749 553.024 -526.693C557.773 -527.676 562.455 -528.586 567.065 -529.42C560.857 -526.022 554.578 -522.459 548.235 -518.738C529.383 -507.677 509.955 -495.209 490.133 -481.477ZM532.446 -493.879C523.841 -491.526 515.087 -489.023 506.198 -486.374C521.348 -496.526 536.232 -505.898 550.766 -514.425C585.317 -534.696 617.836 -550.158 647.194 -559.953L647.359 -559.955C624.914 -550.347 600.989 -537.725 576.035 -522.467C561.821 -513.776 547.264 -504.224 532.446 -493.879ZM569.951 -503.391C562.392 -501.634 554.688 -499.739 546.851 -497.712C557.616 -504.992 568.224 -511.83 578.643 -518.201C611.634 -538.373 642.677 -553.823 670.733 -563.75C671.241 -563.744 671.748 -563.735 672.252 -563.724C650.713 -554.043 627.769 -541.414 603.836 -526.195C592.746 -519.143 581.437 -511.53 569.951 -503.391ZM-611.103 568.932C-597.843 551.396 -584.468 534.081 -570.984 516.845C-574.004 523.414 -577.034 529.999 -580.074 536.601C-580.421 536.338 -580.767 536.075 -581.113 535.812L-584.138 539.794C-583.6 540.203 -583.06 540.612 -582.519 541.021C-592.153 550.259 -601.687 559.543 -611.103 568.932ZM-578.129 544.332C-579.512 547.334 -580.898 550.339 -582.287 553.347C-579.464 551.423 -576.628 549.503 -573.782 547.585C-575.24 546.498 -576.689 545.414 -578.129 544.332ZM-568.152 522.659C-569.423 525.423 -570.696 528.189 -571.97 530.958C-569.847 528.943 -567.719 526.928 -565.587 524.915C-566.446 524.162 -567.301 523.41 -568.152 522.659ZM-589.953 557.148L-589.639 557.341L-590.348 558.876L-590.931 559.279L-591.96 558.795L-593.132 558.243C-592.491 557.619 -591.851 556.995 -591.209 556.371C-590.791 556.629 -590.372 556.889 -589.953 557.148ZM338.108 -458.894C358.331 -467.794 378.251 -476.094 397.746 -483.732C411.033 -490.857 424.151 -497.564 437.055 -503.823C455.702 -512.868 473.919 -520.984 491.566 -528.075C466.068 -519.255 439.191 -508.327 411.35 -495.55C387.537 -484.621 363.036 -472.347 338.108 -458.894ZM438.338 -498.887C447.974 -502.301 457.479 -505.529 466.834 -508.564C486.587 -518.595 505.82 -527.45 524.354 -534.996C497.541 -525.764 468.986 -513.754 439.237 -499.324C438.937 -499.179 438.638 -499.033 438.338 -498.887ZM498.056 -518.13C503.739 -519.764 509.355 -521.316 514.9 -522.786C529.014 -529.798 542.8 -536.091 556.184 -541.607C537.678 -535.282 518.235 -527.41 498.056 -518.13ZM539.166 -528.787C543.278 -529.728 547.346 -530.618 551.365 -531.455C563.63 -537.592 575.615 -543.113 587.268 -547.971C571.914 -542.771 555.837 -536.346 539.166 -528.787ZM572.837 -535.502L573.292 -532.787C588.621 -540.968 603.499 -548.121 617.817 -554.158C602.75 -549.109 586.908 -542.722 570.428 -535.092C571.233 -535.231 572.036 -535.367 572.837 -535.502ZM159.489 -369.039C201.005 -392.43 242.667 -414.174 283.551 -433.789C326.559 -459.191 368.884 -481.562 409.264 -500.094C425.665 -507.621 441.753 -514.518 457.444 -520.73C367.784 -489.673 263.53 -437.404 160.345 -373.026C142.22 -361.717 124.132 -350.038 106.169 -338.039C123.871 -348.653 141.669 -358.999 159.489 -369.039ZM-601.636 566.586L-601.441 566.613L-601.347 566.547L-601.536 566.488L-601.636 566.586ZM-597.495 562.511L-596.178 562.922L-595.676 562.572L-596.313 562.271L-596.946 561.972L-597.495 562.511ZM-574.807 540.575C-573.012 541.922 -571.203 543.273 -569.381 544.627C-564.411 541.295 -559.408 537.967 -554.375 534.634C-556.873 532.493 -559.347 530.357 -561.795 528.227C-566.152 532.34 -570.49 536.454 -574.807 540.575ZM-583.907 562.57L-584.645 562.225L-585.68 561.741C-585.414 561.559 -585.149 561.376 -584.883 561.193L-584.171 560.705C-583.545 561.088 -582.918 561.472 -582.288 561.856L-582.887 562.12C-583.227 562.27 -583.567 562.42 -583.907 562.57ZM-576.696 559.409C-577.683 558.809 -578.666 558.209 -579.646 557.611C-576.286 555.322 -572.907 553.037 -569.511 550.754C-567.935 551.919 -566.348 553.087 -564.752 554.257C-568.761 555.972 -572.743 557.688 -576.696 559.409ZM-559.401 551.975C-561.315 550.579 -563.214 549.186 -565.1 547.796C-560.234 544.54 -555.333 541.285 -550.403 538.025C-547.759 540.273 -545.088 542.526 -542.391 544.783C-548.106 547.189 -553.778 549.583 -559.401 551.975ZM-577.871 565.377L-576.914 565.82L-576.073 565.633C-576.407 565.431 -576.741 565.23 -577.074 565.028L-577.871 565.377ZM-571.452 562.582C-570.628 563.079 -569.802 563.576 -568.973 564.073C-564.455 563.088 -559.895 562.107 -555.297 561.124C-556.891 559.977 -558.476 558.831 -560.052 557.686C-563.878 559.317 -567.678 560.948 -571.452 562.582ZM707.181 -571.947C706.72 -571.746 706.258 -571.543 705.795 -571.339L705.816 -571.503C706.071 -571.587 706.325 -571.67 706.579 -571.752L706.87 -571.847L707.181 -571.947ZM-149.887 575.54C-151.651 554.888 -153.521 534.388 -155.47 514.067C-145.592 505.558 -136.024 496.197 -126.815 485.913C-81.9664 435.824 -45.7648 363.973 -23.6449 262.223C15.487 108.764 113.778 -55.8915 230.053 -198.387C238.099 -195.646 246.084 -192.932 254.013 -190.254C135.668 -37.6378 36.5134 139.675 1.84914 304.553L1.84218 304.587L1.83605 304.62C-17.642 411.605 -53.3867 484.598 -98.7832 533.096C-114.7 550.1 -131.825 564.116 -149.887 575.54ZM-519.608 585.999C-525.526 584.333 -531.376 582.647 -537.151 580.954C-532.971 581.538 -528.755 582.115 -524.505 582.683C-522.88 583.788 -521.247 584.894 -519.608 585.999ZM-149.412 581.14C-147.869 599.433 -146.41 617.843 -145.057 636.353C-116.795 624.752 -90.4832 607.601 -67.0256 583.615C-20.3766 535.915 15.2249 460.94 32.1975 348.114L32.201 348.09L32.2051 348.066C62.1759 172.089 162.256 -17.938 282.808 -180.63C274.934 -183.228 267.009 -185.876 259.03 -188.562C140.535 -36.0514 41.3229 141.141 6.74912 305.549C-12.8471 413.158 -48.902 487.123 -95.1329 536.513C-112.002 554.534 -130.202 569.258 -149.412 581.14ZM-141.488 689.503C-142.464 673.469 -143.531 657.496 -144.676 641.595C-115.269 629.756 -87.8533 612.063 -63.4509 587.111C-15.8365 538.424 20.0666 462.343 37.1381 348.883C67.0244 173.437 167.135 -16.424 287.811 -178.983C295.701 -176.393 303.541 -173.855 311.336 -171.379C188.994 1.15559 88.4135 203.518 63.3145 390.244L63.3124 390.259L63.3106 390.275C48.8438 508.947 13.3809 585.903 -34.519 632.808C-65.5439 663.188 -101.918 681.089 -141.488 689.503ZM-141.183 694.548C-100.537 686.032 -63.0198 667.714 -31.0207 636.38C17.9788 588.399 53.7257 510.201 68.272 390.894C93.2974 204.746 193.892 2.5859 316.343 -169.795C323.973 -167.392 331.561 -165.05 339.112 -162.779C217.481 17.8835 119.049 229.292 99.1988 423.948L99.1981 423.955L99.1974 423.963C87.2366 548.487 51.9085 627.423 2.75916 673.535C-36.8802 710.726 -85.772 726.807 -139.327 728.013C-139.899 716.832 -140.519 705.675 -141.183 694.548ZM-138.104 753.632C-138.409 746.749 -138.733 739.873 -139.075 733.007C-84.6216 731.753 -34.523 715.37 6.18026 677.182C56.5656 629.91 92.1515 549.595 104.173 424.452C123.963 230.399 222.401 19.2177 344.13 -161.278C351.813 -158.995 359.458 -156.787 367.07 -154.666C247.462 33.0898 152.531 251.6 137.961 452.543C128.507 582.924 93.3096 663.838 42.912 709.162C-5.68359 752.865 -68.8802 763.886 -138.104 753.632Z" fill="url(#paint0_linear_4_82)"/>
<defs>
<linearGradient id="paint0_linear_4_82" x1="1595" y1="-1735" x2="-510.006" y2="585.645" gradientUnits="userSpaceOnUse">
<stop stop-color="#21BF73"/>
<stop offset="1" stop-color="#B0EACD"/>
</linearGradient>
</defs>
</svg>
