<svg width="946" height="492" viewBox="0 0 946 492" fill="none" xmlns="http://www.w3.org/2000/svg">
<path fill-rule="evenodd" clip-rule="evenodd" d="M-582.156 81.3024C-548.309 23.5509 -514.86 -32.4171 -480.827 -88.2782C-495.551 -56.7719 -510.191 -24.9282 -525.001 7.29873C-544.256 31.7408 -563.315 56.2728 -582.156 81.3024ZM-605.261 110.951C-557.006 28.0377 -509.917 -50.6671 -461.195 -129.938C-425.03 -205.972 -387.702 -280.125 -345.558 -353.057C-335.923 -372.503 -325.884 -391.61 -315.35 -410.353C-308.572 -424.4 -301.492 -438.127 -294.064 -451.511C-288.331 -463.732 -282.303 -475.598 -275.943 -487.087C-270.783 -498.366 -265.315 -509.245 -259.501 -519.699C-258.87 -521.11 -258.234 -522.514 -257.591 -523.91C-253.358 -533.104 -248.871 -541.956 -244.106 -550.447C-239.58 -560.802 -234.69 -570.649 -229.401 -579.957C-225.073 -590.08 -220.347 -599.632 -215.185 -608.579C-211.012 -618.561 -206.402 -627.909 -201.31 -636.58C-197.271 -646.47 -192.752 -655.653 -187.703 -664.084C-183.779 -673.931 -179.327 -682.995 -174.293 -691.222C-170.473 -701.054 -166.076 -710.023 -161.039 -718.066C-151.895 -742.252 -138.933 -760.706 -121.145 -772.346C-99.3418 -786.614 -70.7546 -790.339 -34.1712 -782.55C-7.74131 -776.922 17.87 -770.746 42.7524 -764.193C48.4031 -768.002 54.0797 -771.789 59.7794 -775.554C103.621 -807.949 149.047 -838.785 194.699 -867.268C345.482 -961.344 499.122 -1029.98 606.671 -1044.19C610.846 -1044.92 614.957 -1045.57 619.003 -1046.13C625.314 -1047.38 631.483 -1048.43 637.497 -1049.26C644.841 -1050.83 651.984 -1052.08 658.912 -1053.01C666.853 -1054.79 674.552 -1056.17 681.985 -1057.13C690.323 -1059.08 698.382 -1060.54 706.133 -1061.5C714.744 -1063.58 723.051 -1065.11 731.019 -1066.04C739.839 -1068.24 748.326 -1069.81 756.441 -1070.71C765.417 -1073.02 774.037 -1074.62 782.251 -1075.47C787.051 -1076.74 791.745 -1077.79 796.324 -1078.62C798.843 -1079.87 801.339 -1081.08 803.813 -1082.23C827.612 -1096.94 849.851 -1107.82 869.957 -1114.32C900.143 -1124.09 925.997 -1124.14 945.016 -1111.86L942.305 -1107.66C925.13 -1118.74 901.08 -1119.13 871.496 -1109.57C860.646 -1106.06 849.115 -1101.23 836.998 -1095.15C865.907 -1103.9 890.874 -1104.08 909.843 -1093.57L907.42 -1089.2C889.48 -1099.14 864.946 -1098.93 835.173 -1089.34C830.872 -1087.96 826.47 -1086.38 821.973 -1084.61C843.364 -1088.69 862.187 -1087.58 877.539 -1080.38L875.414 -1075.85C862.434 -1081.94 846.425 -1083.42 827.838 -1080.55C835.786 -1079.91 843.197 -1078.3 850.003 -1075.64L848.183 -1070.98C837 -1075.35 823.847 -1076.75 808.976 -1075.34C813.947 -1074.69 818.699 -1073.65 823.215 -1072.21L821.701 -1067.45C813.873 -1069.94 805.2 -1071.16 795.758 -1071.18C794.915 -1070.63 794.07 -1070.08 793.223 -1069.51C794.303 -1069.29 795.371 -1069.04 796.427 -1068.78L795.217 -1063.93C792.64 -1064.57 789.983 -1065.1 787.249 -1065.51C781.472 -1061.58 775.61 -1057.44 769.67 -1053.09C727.756 -1022.44 682.098 -981.709 635.338 -933.18C644.225 -935.739 652.981 -938.234 661.598 -940.664L662.955 -935.852C651.686 -932.674 640.178 -929.385 628.453 -925.987C615.845 -912.726 603.167 -898.909 590.469 -884.58C621.163 -893.848 650.924 -902.983 679.496 -912.027L681.005 -907.26C650.006 -897.448 617.631 -887.534 584.2 -877.466C572.856 -864.519 561.503 -851.17 550.178 -837.451C601.104 -851.797 650.435 -866.925 697.456 -883.356L699.106 -878.636C649.857 -861.427 598.088 -845.646 544.634 -830.702C537.22 -821.633 529.82 -812.407 522.446 -803.033C520.217 -800.201 517.992 -797.355 515.768 -794.496C584.51 -810.893 651.377 -830.264 715.454 -854.668L717.234 -849.995C651.044 -824.787 581.919 -804.94 510.894 -788.202C502.95 -777.899 495.042 -767.43 487.184 -756.805C571.317 -771.801 653.495 -793.104 733.477 -825.967L735.377 -821.342C653.351 -787.639 569.076 -766.055 482.883 -750.968C476.524 -742.304 470.198 -733.539 463.914 -724.679C561.328 -734.861 656.577 -755.524 751.518 -797.259L753.53 -792.682C656.58 -750.064 559.37 -729.315 460.082 -719.258C455.138 -712.239 450.22 -705.161 445.331 -698.028C554.324 -700.223 660.46 -717.581 769.573 -768.546L771.689 -764.015C660.58 -712.118 552.585 -694.86 441.871 -692.963C438.173 -687.53 434.492 -682.065 430.83 -676.571C550.101 -667.933 665.022 -679.326 787.638 -739.829L789.851 -735.345C665.236 -673.856 548.517 -662.728 427.654 -671.792C425.045 -667.853 422.446 -663.899 419.858 -659.93C548.47 -637.961 670.176 -640.806 805.712 -711.109L808.015 -706.671C670.466 -635.323 546.975 -632.886 416.89 -655.367C415.234 -652.812 413.582 -650.251 411.934 -647.684C415.601 -646.684 419.26 -645.705 422.913 -644.748C556.038 -609.857 679.811 -604.21 823.793 -682.388L826.179 -677.994C680.732 -599.021 555.556 -604.815 421.645 -639.911C417.476 -641.004 413.298 -642.125 409.111 -643.273C289.411 -455.691 194.474 -237.426 179.948 -37.0956C170.45 93.8834 135.029 176.319 83.2554 222.88C33.4233 267.695 -31.0915 278.867 -100.882 268.718C-97.7185 342.543 -96.7914 417.291 -99.2496 491.882L-104.247 491.718C-101.782 416.912 -102.725 341.965 -105.916 267.951C-107.063 267.768 -108.21 267.58 -109.359 267.386C-118.602 265.826 -127.934 263.904 -137.335 261.648C-135.806 327.932 -136.178 394.946 -139.354 461.853L-144.348 461.616C-141.156 394.359 -140.8 327.012 -142.362 260.412C-152.918 257.754 -163.556 254.682 -174.248 251.235C-174.119 311.06 -175.614 371.478 -179.455 431.829L-184.445 431.512C-180.574 370.701 -179.088 309.842 -179.247 249.597C-189.95 246.037 -200.701 242.108 -211.472 237.849C-212.572 292.184 -215.068 347.017 -219.552 401.814L-224.536 401.406C-220.006 346.06 -217.508 290.702 -216.428 235.866C-227.235 231.495 -238.058 226.797 -248.867 221.812C-251.084 271.527 -254.51 321.672 -259.644 371.808L-264.618 371.299C-259.421 320.543 -255.976 269.808 -253.766 219.532C-264.634 214.431 -275.485 209.045 -286.288 203.413C-289.566 249.268 -293.902 295.523 -299.727 341.815L-304.688 341.191C-298.792 294.336 -294.424 247.512 -291.136 201.091C-302.124 196.563 -313.082 191.753 -323.979 186.705C-328.246 228.165 -333.403 269.97 -339.8 311.837L-344.743 311.081C-338.27 268.724 -333.07 226.421 -328.775 184.466C-339.815 179.273 -350.786 173.842 -361.654 168.218C-366.879 205.873 -372.849 243.835 -379.856 281.88L-384.773 280.975C-377.672 242.416 -371.636 203.937 -366.362 165.766C-371.516 163.066 -376.645 160.324 -381.747 157.544C-387.688 155.006 -393.597 152.411 -399.469 149.767C-405.591 183.615 -412.318 217.732 -419.884 251.953L-424.766 250.874C-417.123 216.305 -410.337 181.838 -404.166 147.639C-415.448 142.491 -426.584 137.168 -437.534 131.728C-444.451 161.649 -451.835 191.801 -459.862 222.073L-464.695 220.791C-456.578 190.181 -449.119 159.69 -442.135 129.43C-453.428 123.758 -464.515 117.969 -475.347 112.126C-483.085 138.659 -491.172 165.397 -499.739 192.271L-504.503 190.753C-495.838 163.571 -487.665 136.528 -479.844 109.689C-484.814 106.984 -489.728 104.27 -494.582 101.552C-500.937 98.8275 -507.195 96.0927 -513.349 93.3625C-521.76 116.29 -530.401 139.393 -539.361 162.645L-544.026 160.847C-535.035 137.515 -526.366 114.333 -517.926 91.3236C-518.932 90.874 -519.935 90.4246 -520.934 89.9756C-525.163 88.6938 -529.342 87.4154 -533.467 86.1453L-534.556 85.9854L-534.803 85.9491C-538.37 85.4248 -541.9 84.906 -545.391 84.3959C-548.685 84.5008 -551.947 84.6122 -555.176 84.733C-562.678 100.92 -570.27 117.213 -577.983 133.618L-582.507 131.49C-575.314 116.189 -568.223 100.981 -561.211 85.8625C-563.304 86.3672 -565.385 86.8761 -567.452 87.3902C-570.883 88.9993 -574.284 90.622 -577.654 92.2614C-580.914 94.6494 -584.151 97.0516 -587.362 99.4709C-588.908 101.061 -590.45 102.656 -591.988 104.254L-592.605 103.661C-593.881 105.386 -595.157 107.115 -596.431 108.846L-597.704 107.909C-598.782 109.759 -599.861 111.611 -600.94 113.466L-605.261 110.951ZM-137.459 256.475C-127.728 258.84 -118.076 260.844 -108.527 262.456C-107.73 262.59 -106.935 262.722 -106.14 262.851C-106.434 256.252 -106.745 249.662 -107.074 243.079C-117.199 243.142 -127.469 242.693 -137.851 241.775C-137.71 246.671 -137.579 251.571 -137.459 256.475ZM-142.862 241.297C-142.728 245.935 -142.603 250.577 -142.487 255.222C-153.002 252.541 -163.603 249.445 -174.263 245.974C-174.275 242.904 -174.29 239.836 -174.31 236.77C-163.736 238.711 -153.243 240.234 -142.862 241.297ZM-137.999 236.742C-127.636 237.676 -117.402 238.136 -107.326 238.082C-107.883 227.208 -108.486 216.357 -109.13 205.533C-118.898 207.379 -128.84 208.673 -138.922 209.459C-138.582 218.536 -138.273 227.631 -137.999 236.742ZM-143.909 209.806C-143.579 218.606 -143.279 227.423 -143.012 236.255C-153.351 235.176 -163.807 233.637 -174.347 231.679C-174.404 224.513 -174.483 217.356 -174.584 210.21C-173.542 210.244 -172.502 210.273 -171.463 210.297C-162.185 210.515 -152.993 210.362 -143.909 209.806ZM-139.113 204.46C-129.055 203.669 -119.151 202.364 -109.432 200.502C-110.388 184.772 -111.431 169.1 -112.549 153.497C-121.842 157.011 -131.325 159.956 -140.967 162.376C-140.28 176.354 -139.659 190.384 -139.113 204.46ZM-145.911 163.568C-145.24 177.267 -144.633 191.017 -144.099 204.809C-153.072 205.361 -162.161 205.514 -171.346 205.299C-172.448 205.273 -173.552 205.241 -174.657 205.205C-174.845 193.03 -175.093 180.887 -175.395 168.782C-165.435 167.531 -155.596 165.808 -145.911 163.568ZM-141.221 157.283C-131.61 154.833 -122.167 151.849 -112.925 148.289C-114.25 130.1 -115.675 112.005 -117.185 94.0223C-125.928 99.1746 -134.871 103.756 -143.985 107.808C-142.982 124.215 -142.055 140.711 -141.221 157.283ZM-148.863 109.919C-147.883 126.03 -146.978 142.225 -146.162 158.493C-155.797 160.755 -165.594 162.496 -175.523 163.758C-175.907 149.114 -176.368 134.527 -176.897 120.006C-167.406 117.139 -158.051 113.791 -148.863 109.919ZM-144.314 102.475C-135.239 98.3632 -126.342 93.7127 -117.652 88.4809C-119.379 68.1636 -121.209 47.9916 -123.117 27.9894C-131.251 34.7139 -139.586 40.8798 -148.095 46.5261C-146.751 65.043 -145.483 83.6995 -144.314 102.475ZM-152.882 49.6359C-151.568 67.839 -150.329 86.1749 -149.187 104.624C-158.324 108.545 -167.634 111.935 -177.088 114.838C-177.72 97.9866 -178.442 81.2267 -179.234 64.5739C-170.296 60.0859 -161.503 55.1199 -152.882 49.6359ZM-148.515 40.7872C-140.052 35.0527 -131.77 28.7885 -123.695 21.9543C-125.855 -0.470306 -128.11 -22.6778 -130.422 -44.6337C-137.903 -36.5058 -145.576 -28.9037 -153.419 -21.7927C-151.71 -1.13699 -150.064 19.7331 -148.515 40.7872ZM-158.093 -17.6299C-156.419 2.70518 -154.809 23.2438 -153.294 43.9576C-161.86 49.5187 -170.604 54.5532 -179.497 59.102C-180.431 39.8791 -181.458 20.8015 -182.551 1.89355C-174.245 -4.14376 -166.085 -10.6397 -158.093 -17.6299ZM-153.944 -28.0962C-146.159 -35.3133 -138.545 -43.0332 -131.126 -51.2921C-133.714 -75.6935 -136.368 -99.7783 -139.038 -123.499C-145.855 -114.262 -152.84 -105.499 -159.975 -97.1785C-157.919 -74.4589 -155.892 -51.4168 -153.944 -28.0962ZM-164.526 -91.9537C-162.506 -69.5447 -160.518 -46.8298 -158.608 -23.8501C-166.542 -16.7584 -174.646 -10.1726 -182.897 -4.05533C-184.17 -25.7634 -185.527 -47.2435 -186.928 -68.4585C-179.321 -75.8587 -171.848 -83.6802 -164.526 -91.9537ZM-160.609 -104.162C-153.537 -112.594 -146.617 -121.48 -139.867 -130.847C-142.817 -156.953 -145.779 -182.608 -148.683 -207.749C-154.857 -197.847 -161.163 -188.342 -167.587 -179.211C-165.274 -154.649 -162.926 -129.612 -160.609 -104.162ZM-172.028 -172.985C-169.742 -148.699 -167.428 -123.963 -165.149 -98.8341C-172.407 -90.452 -179.818 -82.5312 -187.364 -75.04C-188.977 -99.2568 -190.64 -123.121 -192.295 -146.578C-185.426 -155.009 -178.666 -163.803 -172.028 -172.985ZM-168.313 -186.919C-161.954 -196.149 -155.716 -205.759 -149.61 -215.772C-152.773 -243.152 -155.858 -269.908 -158.774 -295.957C-164.358 -285.974 -170.027 -276.294 -175.774 -266.902C-173.5 -241.966 -171.091 -216.4 -168.63 -190.278C-168.524 -189.159 -168.419 -188.039 -168.313 -186.919ZM-180.152 -259.827C-178.046 -236.865 -175.834 -213.387 -173.578 -189.449C-173.3 -186.499 -173.022 -183.542 -172.742 -180.578C-179.313 -171.3 -186.007 -162.416 -192.812 -153.9C-193.204 -159.446 -193.595 -164.969 -193.984 -170.467C-195.464 -191.367 -196.919 -211.919 -198.306 -232.083C-192.178 -241.041 -186.124 -250.283 -180.152 -259.827ZM-176.534 -275.266C-170.852 -284.725 -165.248 -294.474 -159.73 -304.529C-162.849 -332.585 -165.758 -359.798 -168.342 -386.063C-173.394 -376.694 -178.483 -367.526 -183.608 -358.551C-181.527 -331.723 -179.127 -303.922 -176.534 -275.266ZM-188.023 -350.88C-185.909 -324.164 -183.496 -296.525 -180.905 -268.073C-186.81 -258.465 -192.796 -249.162 -198.857 -240.146C-200.817 -268.906 -202.622 -296.858 -204.142 -323.88C-198.734 -332.683 -193.36 -341.679 -188.023 -350.88ZM-184.29 -367.475C-179.229 -376.461 -174.203 -385.64 -169.214 -395.02C-169.857 -401.706 -170.479 -408.329 -171.076 -414.887C-172.977 -435.761 -174.633 -455.985 -175.98 -475.495C-180.506 -467.505 -185.029 -459.62 -189.549 -451.837C-188.773 -434.954 -187.768 -417.527 -186.576 -399.594C-185.876 -389.057 -185.111 -378.348 -184.29 -367.475ZM-194.177 -443.902C-193.457 -429.388 -192.578 -414.5 -191.565 -399.262C-190.705 -386.321 -189.748 -373.125 -188.711 -359.688C-193.981 -350.481 -199.288 -341.478 -204.627 -332.669C-205.575 -350.136 -206.396 -367.204 -207.053 -383.84C-207.541 -396.206 -207.939 -408.33 -208.231 -420.201C-203.55 -427.997 -198.865 -435.896 -194.177 -443.902ZM-189.955 -461.118C-185.503 -468.84 -181.047 -476.662 -176.588 -484.588C-178.17 -509.03 -179.238 -532.312 -179.661 -554.307C-183.589 -549.839 -187.446 -545.373 -191.229 -540.911C-191.616 -516.013 -191.124 -489.354 -189.955 -461.118ZM-196.307 -534.871C-196.557 -509.278 -195.92 -481.945 -194.612 -453.075C-199.226 -445.141 -203.836 -437.312 -208.442 -429.585C-209.078 -461.198 -208.923 -490.938 -207.695 -518.555C-205.035 -522.62 -202.364 -526.701 -199.681 -530.798C-198.563 -532.155 -197.438 -533.513 -196.307 -534.871ZM-191.075 -548.794C-187.376 -553.101 -183.61 -557.411 -179.779 -561.723C-179.863 -568.333 -179.885 -574.822 -179.842 -581.188C-183.365 -577.795 -186.844 -574.401 -190.277 -571.008C-190.633 -563.777 -190.897 -556.37 -191.075 -548.794ZM-195.521 -565.79C-195.84 -558.293 -196.064 -550.62 -196.2 -542.777C-198.709 -539.807 -201.185 -536.838 -203.628 -533.871L-203.715 -533.766L-203.789 -533.652C-204.93 -531.91 -206.068 -530.172 -207.204 -528.436C-206.7 -537.583 -206.071 -546.484 -205.304 -555.131C-204.926 -555.624 -204.547 -556.118 -204.168 -556.611C-203.669 -557.26 -203.171 -557.908 -202.671 -558.556C-200.312 -560.967 -197.928 -563.378 -195.521 -565.79ZM-189.04 -590.743C-185.923 -593.736 -182.763 -596.693 -179.559 -599.614L-179.523 -599.646L-179.512 -600.031L-179.503 -600.329C-182.703 -597.602 -185.849 -594.822 -188.942 -591.989C-188.975 -591.574 -189.008 -591.159 -189.04 -590.743ZM-194.332 -586.95C-194.367 -586.462 -194.401 -585.973 -194.434 -585.484C-197.336 -582.612 -200.2 -579.709 -203.025 -576.775C-202.95 -577.384 -202.875 -577.992 -202.798 -578.598C-200.021 -581.428 -197.2 -584.212 -194.332 -586.95ZM-188.322 -599.282C-185.354 -601.919 -182.339 -604.51 -179.276 -607.054C-179.23 -608.231 -179.182 -609.402 -179.132 -610.569C-182.132 -608.129 -185.076 -605.627 -187.966 -603.063C-188.088 -601.809 -188.207 -600.549 -188.322 -599.282ZM-193.45 -598.062C-193.559 -596.829 -193.664 -595.589 -193.767 -594.344C-196.451 -591.858 -199.097 -589.333 -201.703 -586.77C-201.523 -588.042 -201.339 -589.306 -201.151 -590.565C-198.629 -593.116 -196.062 -595.615 -193.45 -598.062ZM-187.205 -610.353C-184.455 -612.698 -181.657 -614.991 -178.81 -617.23C-178.712 -619.071 -178.607 -620.898 -178.495 -622.713C-181.24 -620.49 -183.929 -618.2 -186.566 -615.844C-186.787 -614.028 -187 -612.198 -187.205 -610.353ZM-192.203 -610.627C-192.391 -608.929 -192.572 -607.22 -192.746 -605.498C-195.145 -603.339 -197.506 -601.139 -199.831 -598.897C-199.551 -600.567 -199.264 -602.223 -198.97 -603.867C-196.756 -606.173 -194.501 -608.426 -192.203 -610.627ZM-185.593 -623.322C-183.121 -625.421 -180.603 -627.466 -178.039 -629.456C-177.874 -631.707 -177.697 -633.936 -177.508 -636.145C-179.94 -634.096 -182.32 -631.981 -184.65 -629.8C-184.978 -627.664 -185.292 -625.504 -185.593 -623.322ZM-190.539 -624.041C-190.801 -622.148 -191.053 -620.239 -191.295 -618.313C-193.328 -616.465 -195.329 -614.579 -197.299 -612.655C-196.934 -614.465 -196.56 -616.258 -196.175 -618.035C-194.332 -620.084 -192.453 -622.086 -190.539 -624.041ZM-183.359 -637.713C-181.233 -639.573 -179.068 -641.382 -176.862 -643.141C-176.622 -645.552 -176.368 -647.937 -176.097 -650.295C-178.149 -648.415 -180.157 -646.475 -182.122 -644.475C-182.55 -642.249 -182.963 -639.995 -183.359 -637.713ZM-188.437 -637.674C-188.743 -635.887 -189.039 -634.083 -189.325 -632.263C-190.885 -630.776 -192.422 -629.261 -193.937 -627.718C-193.527 -629.381 -193.107 -631.028 -192.678 -632.659C-191.289 -634.365 -189.875 -636.037 -188.437 -637.674ZM-180.323 -653.2C-178.636 -654.768 -176.92 -656.297 -175.174 -657.786C-174.871 -660.073 -174.553 -662.333 -174.219 -664.566C-175.803 -662.912 -177.355 -661.212 -178.875 -659.466C-179.374 -657.406 -179.857 -655.317 -180.323 -653.2ZM-185.977 -650.672C-186.237 -649.422 -186.493 -648.163 -186.742 -646.895C-187.65 -645.954 -188.549 -645 -189.438 -644.035C-189.093 -645.156 -188.743 -646.269 -188.387 -647.373C-187.594 -648.488 -186.79 -649.588 -185.977 -650.672ZM-176.187 -669.712C-175.094 -670.816 -173.986 -671.9 -172.863 -672.963C-172.56 -674.71 -172.246 -676.438 -171.921 -678.149C-172.897 -676.928 -173.858 -675.683 -174.803 -674.415C-174.82 -674.359 -174.837 -674.303 -174.854 -674.247C-175.309 -672.753 -175.753 -671.241 -176.187 -669.712ZM-170.24 -687.828C-170.099 -687.983 -169.958 -688.138 -169.816 -688.292C-169.737 -688.645 -169.656 -688.997 -169.576 -689.348C-169.649 -689.229 -169.722 -689.111 -169.795 -688.992C-169.944 -688.606 -170.093 -688.218 -170.24 -687.828ZM-156.54 -715.829C-156.86 -714.975 -157.175 -714.113 -157.486 -713.244C-153.83 -717.054 -149.956 -720.558 -145.854 -723.746C-124.597 -740.267 -97.4594 -748.091 -63.318 -746.205L-63.2792 -746.202L-63.2405 -746.199C-39.6566 -744.159 -16.5536 -741.7 6.11472 -738.939C10.2709 -741.869 14.445 -744.789 18.6359 -747.698C-3.53656 -751.951 -26.2084 -755.901 -49.4356 -759.433C-83.8961 -764.148 -110.373 -758.444 -130.596 -743.981C-140.653 -736.788 -149.251 -727.366 -156.54 -715.829ZM28.6323 -745.754C25.0669 -742.999 21.5149 -740.235 17.9772 -737.461C20.1319 -737.187 22.2825 -736.911 24.4294 -736.632C28.5162 -739.143 32.6173 -741.646 36.7317 -744.14C34.0393 -744.682 31.3395 -745.22 28.6323 -745.754ZM43.0562 -747.959C40.0125 -748.581 36.9595 -749.197 33.8969 -749.807C37.6369 -752.677 41.3914 -755.536 45.1593 -758.385C48.7012 -757.444 52.2284 -756.496 55.7413 -755.54C51.5002 -753.023 47.2715 -750.496 43.0562 -747.959ZM43.9653 -742.67C40.0671 -740.32 36.1806 -737.961 32.3067 -735.594C36.2861 -735.064 40.2521 -734.525 44.2053 -733.978C48.1446 -736.044 52.0944 -738.103 56.0538 -740.155C52.0405 -741.002 48.0111 -741.84 43.9653 -742.67ZM63.0677 -743.777C58.8268 -744.684 54.5679 -745.582 50.2903 -746.47C54.332 -748.89 58.3858 -751.301 62.4508 -753.702C66.6077 -752.555 70.7444 -751.399 74.8615 -750.233L74.4114 -749.86L73.9088 -749.442L73.5496 -749.143C70.0488 -747.36 66.5546 -745.572 63.0677 -743.777ZM67.6436 -737.679C65.2714 -735.68 62.9055 -733.677 60.5461 -731.668C61.8056 -731.486 63.0638 -731.304 64.3207 -731.121C68.0428 -732.74 71.7716 -734.354 75.5068 -735.963C72.8925 -736.538 70.2715 -737.11 67.6436 -737.679ZM83.3774 -739.341C79.7597 -740.148 76.1289 -740.949 72.4848 -741.743C73.7607 -742.811 75.0385 -743.877 76.3179 -744.942C78.3661 -745.985 80.4166 -747.026 82.4693 -748.064C86.7295 -746.841 90.9686 -745.608 95.1872 -744.367C91.2443 -742.698 87.3075 -741.023 83.3774 -739.341ZM83.8615 -734.11C80.4688 -732.657 77.081 -731.2 73.6988 -729.738C77.3208 -729.198 80.9322 -728.653 84.533 -728.103C87.9484 -729.286 91.3676 -730.466 94.7901 -731.642C91.1602 -732.47 87.5174 -733.293 83.8615 -734.11ZM102.76 -734.943C99.0946 -735.789 95.416 -736.63 91.7239 -737.466C95.3911 -739.026 99.064 -740.581 102.742 -742.131C104.742 -741.535 106.738 -740.938 108.729 -740.339C106.735 -738.544 104.745 -736.746 102.76 -734.943ZM104.185 -729.482C102.803 -728.223 101.422 -726.962 100.044 -725.699C101.614 -725.452 103.182 -725.204 104.748 -724.956C107.729 -725.726 110.711 -726.495 113.694 -727.261C110.534 -728.005 107.365 -728.745 104.185 -729.482ZM124.119 -729.93C120.414 -730.814 116.696 -731.693 112.965 -732.569C116.323 -733.709 119.685 -734.846 123.05 -735.979C126.796 -734.826 130.527 -733.669 134.242 -732.507C130.866 -731.65 127.492 -730.791 124.119 -729.93ZM124.159 -724.78C121.809 -724.18 119.459 -723.578 117.111 -722.976C119.723 -722.553 122.331 -722.129 124.933 -721.704C127.278 -722.105 129.623 -722.505 131.968 -722.905C129.371 -723.532 126.769 -724.157 124.159 -724.78ZM137.407 -726.733C136.455 -726.964 135.502 -727.195 134.548 -727.426C136.158 -727.834 137.768 -728.243 139.378 -728.65C138.72 -728.012 138.063 -727.373 137.407 -726.733ZM144.428 -725.023C144 -725.127 143.571 -725.232 143.143 -725.337C144.275 -726.435 145.408 -727.532 146.543 -728.627C148.765 -727.921 150.981 -727.214 153.192 -726.505C150.271 -726.012 147.35 -725.518 144.428 -725.023ZM144.244 -719.92C142.846 -719.683 141.447 -719.445 140.049 -719.208C141.722 -718.929 143.393 -718.65 145.062 -718.37C146.424 -718.486 147.787 -718.6 149.149 -718.715C147.516 -719.117 145.882 -719.519 144.244 -719.92ZM164.661 -720.019C161.993 -720.685 159.319 -721.351 156.637 -722.015C158.932 -722.402 161.226 -722.789 163.521 -723.175C166.176 -722.314 168.823 -721.452 171.463 -720.589L169.672 -720.439L169.671 -720.439L169.623 -720.435C167.97 -720.296 166.316 -720.158 164.661 -720.019ZM184.805 -714.948C183.085 -715.384 181.363 -715.82 179.637 -716.256C180.967 -716.368 182.295 -716.479 183.624 -716.591C185.285 -716.042 186.943 -715.493 188.598 -714.943C187.334 -714.945 186.07 -714.946 184.805 -714.948ZM295.998 -686.652C291.549 -687.752 287.086 -688.863 282.607 -689.986C287.364 -689.22 292.107 -688.467 296.839 -687.727C296.559 -687.369 296.278 -687.011 295.998 -686.652ZM236.259 -696.617C244.883 -694.403 253.446 -692.21 261.955 -690.046C145.887 -547.495 47.7157 -382.802 8.499 -228.969L8.48797 -228.926L8.47851 -228.882C-13.5058 -127.73 -49.3985 -56.7214 -93.5405 -7.42277C-101.768 1.7655 -110.286 10.2045 -119.06 17.9476C-121.264 -4.81388 -123.563 -27.3474 -125.919 -49.6164C-80.536 -100.753 -42.5344 -171.912 -17.0451 -271.093C26.2989 -413.034 122.933 -564.537 236.259 -696.617ZM223.729 -699.836C224.598 -699.612 225.467 -699.389 226.335 -699.166L226.336 -699.166C227.847 -698.778 229.356 -698.39 230.863 -698.003C117.898 -565.979 21.5434 -414.622 -21.8435 -272.5L-21.8599 -272.446L-21.8738 -272.392C-46.6045 -176.135 -83.1222 -106.654 -126.637 -56.3826C-129.271 -81.1045 -131.97 -105.494 -134.679 -129.501C-100.402 -177.48 -70.5584 -237.83 -47.4529 -314.401C-0.364103 -444.284 93.8267 -582.081 203.397 -703.334C210.204 -702.161 216.981 -700.993 223.729 -699.836ZM321.655 -675.285C322.112 -675.177 322.569 -675.068 323.026 -674.96C323.001 -674.926 322.975 -674.892 322.95 -674.858C322.518 -675 322.086 -675.143 321.655 -675.285ZM326.291 -679.326C318.015 -681.278 309.694 -683.287 301.322 -685.341C301.716 -685.843 302.11 -686.345 302.504 -686.847C311.37 -685.479 320.193 -684.16 328.979 -682.903C328.082 -681.712 327.186 -680.52 326.291 -679.326ZM328.332 -673.71C328.208 -673.544 328.084 -673.378 327.96 -673.212C335.816 -670.638 343.621 -668.117 351.379 -665.659C351.951 -666.46 352.522 -667.26 353.095 -668.06C344.881 -669.879 336.628 -671.765 328.332 -673.71ZM356.267 -672.48C348.088 -674.28 339.869 -676.15 331.606 -678.079C332.615 -679.421 333.626 -680.762 334.638 -682.1C343.363 -680.876 352.052 -679.713 360.708 -678.624C359.225 -676.58 357.744 -674.532 356.267 -672.48ZM358.408 -666.892C357.736 -665.954 357.064 -665.016 356.393 -664.077C363.984 -661.692 371.532 -659.37 379.042 -657.119C380.117 -658.706 381.193 -660.29 382.272 -661.873C374.35 -663.472 366.397 -665.149 358.408 -666.892ZM385.336 -666.356C377.454 -667.936 369.54 -669.592 361.591 -671.316C363.183 -673.523 364.779 -675.724 366.378 -677.921C372.308 -677.195 378.223 -676.506 384.125 -675.855C386.535 -675.589 388.943 -675.33 391.349 -675.077C389.339 -672.179 387.334 -669.272 385.336 -666.356ZM387.597 -660.808C386.419 -659.082 385.242 -657.353 384.067 -655.622C391.71 -653.359 399.314 -651.173 406.886 -649.073C408.433 -651.489 409.985 -653.899 411.541 -656.304C408.658 -656.817 405.772 -657.341 402.881 -657.877C397.799 -658.819 392.704 -659.797 387.597 -660.808ZM414.496 -660.86C410.934 -661.486 407.366 -662.131 403.793 -662.793C399.428 -663.602 395.056 -664.438 390.673 -665.298C392.786 -668.372 394.905 -671.437 397.03 -674.492C405.36 -673.654 413.667 -672.897 421.953 -672.234C419.458 -668.456 416.972 -664.665 414.496 -660.86ZM24.3915 -751.679C0.626818 -756.299 -23.7148 -760.58 -48.7 -764.379L-48.7184 -764.382L-48.7367 -764.384C-84.1071 -769.227 -111.974 -763.447 -133.505 -748.048C-138.447 -744.512 -143.037 -740.484 -147.295 -735.983C-139.562 -749.786 -130.011 -760.569 -118.407 -768.162C-98.08 -781.464 -70.9853 -785.276 -35.2125 -777.659C-10.3632 -772.368 13.7632 -766.59 37.2438 -760.468C32.9438 -757.55 28.6592 -754.62 24.3915 -751.679ZM-202.182 -619.906C-201.551 -620.83 -200.914 -621.746 -200.271 -622.654C-200.442 -621.901 -200.61 -621.146 -200.777 -620.388C-201.454 -619.626 -202.125 -618.859 -202.792 -618.085C-202.59 -618.694 -202.387 -619.301 -202.182 -619.906ZM-206.701 -605.348C-205.445 -606.988 -204.171 -608.603 -202.878 -610.193C-203.13 -608.883 -203.378 -607.564 -203.62 -606.237C-204.987 -604.795 -206.338 -603.334 -207.673 -601.855C-207.353 -603.026 -207.029 -604.191 -206.701 -605.348ZM-210.449 -591.012C-208.723 -593.089 -206.969 -595.13 -205.186 -597.136C-205.412 -595.739 -205.633 -594.333 -205.849 -592.919C-207.712 -591.014 -209.549 -589.081 -211.363 -587.122C-211.063 -588.427 -210.759 -589.723 -210.449 -591.012ZM-213.504 -577.256C-211.397 -579.672 -209.256 -582.048 -207.08 -584.384C-207.238 -583.227 -207.392 -582.064 -207.543 -580.896C-209.785 -578.59 -211.997 -576.255 -214.181 -573.89C-213.959 -575.018 -213.733 -576.14 -213.504 -577.256ZM-215.938 -564.49C-213.514 -567.23 -211.054 -569.932 -208.556 -572.595C-208.6 -572.218 -208.643 -571.841 -208.685 -571.463C-208.714 -571.213 -208.742 -570.963 -208.77 -570.713C-211.308 -567.991 -213.815 -565.242 -216.292 -562.469C-216.175 -563.144 -216.057 -563.818 -215.938 -564.49ZM-220.324 -535.247C-217.222 -539.415 -214.093 -543.581 -210.936 -547.744C-211.634 -538.793 -212.195 -529.59 -212.629 -520.146C-216.318 -514.506 -219.984 -508.896 -223.63 -503.314C-222.711 -514.304 -221.615 -524.954 -220.324 -535.247ZM-224.438 -492.929C-220.659 -498.721 -216.856 -504.543 -213.029 -510.398C-214.035 -482.668 -214.02 -452.958 -213.266 -421.527C-218.058 -413.556 -222.846 -405.693 -227.629 -397.933C-227.516 -431.713 -226.568 -463.479 -224.438 -492.929ZM-227.639 -388.418C-222.772 -396.257 -217.9 -404.2 -213.023 -412.253C-212.758 -402.862 -212.431 -393.323 -212.049 -383.642C-211.3 -364.677 -210.34 -345.163 -209.222 -325.148C-214.8 -316.092 -220.413 -307.242 -226.057 -298.587C-226.786 -322.48 -227.307 -345.67 -227.526 -368.075C-227.593 -374.931 -227.631 -381.713 -227.639 -388.418ZM-225.784 -289.911C-220.067 -298.565 -214.381 -307.414 -208.729 -316.47C-207.182 -289.632 -205.369 -261.918 -203.415 -233.44C-209.726 -224.257 -216.114 -215.377 -222.572 -206.78C-223.8 -235.275 -224.915 -263.025 -225.784 -289.911ZM-222.233 -198.979C-215.707 -207.527 -209.249 -216.356 -202.867 -225.486C-201.603 -207.195 -200.286 -188.595 -198.949 -169.718L-198.949 -169.716C-198.443 -162.584 -197.936 -155.411 -197.427 -148.201C-204.467 -139.622 -211.62 -131.426 -218.872 -123.585C-219.288 -132.934 -219.705 -142.221 -220.119 -151.441L-220.119 -151.442L-220.122 -151.508L-220.127 -151.616C-220.845 -167.609 -221.554 -183.403 -222.233 -198.979ZM-218.561 -116.59C-211.244 -124.36 -204.025 -132.481 -196.917 -140.979C-195.288 -117.833 -193.653 -94.3024 -192.072 -70.4383C-199.824 -62.9786 -207.712 -55.9588 -215.716 -49.3451C-216.617 -72.0684 -217.583 -94.4994 -218.561 -116.59ZM-215.47 -43.085C-207.406 -49.627 -199.457 -56.5678 -191.644 -63.9403C-190.272 -43.052 -188.945 -21.9131 -187.702 -0.557988C-196.12 5.45914 -204.684 11.0025 -213.37 16.1113C-213.996 -3.81264 -214.707 -23.5548 -215.47 -43.085ZM-213.193 21.7961C-204.453 16.7457 -195.835 11.2686 -187.361 5.32757C-186.294 23.9134 -185.293 42.66 -184.382 61.5447C-193.397 65.9505 -202.56 69.8707 -211.842 73.3472C-212.214 56.0453 -212.672 38.8553 -213.193 21.7961ZM-211.731 78.6395C-202.405 75.2033 -193.193 71.3287 -184.123 66.9746C-183.351 83.3222 -182.649 99.7715 -182.033 116.308C-191.568 119.051 -201.242 121.311 -211.027 123.13C-211.19 108.228 -211.429 93.3938 -211.731 78.6395ZM-210.975 128.205C-201.152 126.405 -191.432 124.168 -181.844 121.453C-181.329 135.692 -180.879 149.994 -180.505 164.351C-185.828 164.94 -191.188 165.395 -196.579 165.723C-201.29 166.01 -206.025 166.199 -210.78 166.295C-210.784 153.555 -210.851 140.856 -210.975 128.205ZM-196.275 170.714C-190.947 170.39 -185.646 169.943 -180.377 169.367C-180.083 181.212 -179.841 193.093 -179.656 205.004C-189.99 204.518 -200.43 203.581 -210.944 202.237C-210.845 191.9 -210.792 181.585 -210.782 171.295C-205.925 171.199 -201.089 171.007 -196.275 170.714ZM-210.995 207.27C-200.443 208.604 -189.962 209.533 -179.582 210.013C-179.485 216.906 -179.407 223.808 -179.35 230.719C-189.9 228.632 -200.53 226.133 -211.209 223.264C-211.125 217.927 -211.054 212.596 -210.995 207.27ZM-211.294 228.415C-200.577 231.268 -189.906 233.75 -179.312 235.821C-179.293 238.653 -179.277 241.485 -179.265 244.32C-189.922 240.739 -200.633 236.79 -211.368 232.51C-211.355 231.822 -211.343 231.134 -211.33 230.446C-211.318 229.769 -211.306 229.092 -211.294 228.415ZM-161.8 -699.637C-161.661 -700.133 -161.521 -700.627 -161.379 -701.119C-155.781 -708.266 -149.598 -714.504 -142.786 -719.798C-122.667 -735.434 -96.7973 -743.04 -63.6305 -741.214C-42.0185 -739.344 -20.8092 -737.121 0.034768 -734.635C-4.01653 -731.757 -8.05017 -728.869 -12.0651 -725.971C-33.6625 -726.948 -55.5621 -727.657 -77.7914 -728.006L-77.852 -728.007L-77.9125 -728.005C-110.805 -726.927 -137.206 -717.075 -158.193 -699.441C-159.831 -698.065 -161.434 -696.642 -163.005 -695.174C-162.614 -696.679 -162.213 -698.167 -161.8 -699.637ZM2.58362 -725.266C5.86139 -727.891 9.15268 -730.508 12.457 -733.118C14.1966 -732.901 15.9336 -732.681 17.6682 -732.46C13.718 -730.014 9.78175 -727.56 5.86022 -725.097C4.76875 -725.154 3.67657 -725.211 2.58362 -725.266ZM14.5409 -724.631C18.195 -726.909 21.8615 -729.18 25.5398 -731.445C29.2368 -730.961 32.9224 -730.47 36.597 -729.973C32.8479 -727.991 29.1087 -726.003 25.38 -724.01C21.7752 -724.223 18.1622 -724.43 14.5409 -724.631ZM34.925 -723.43C38.311 -725.227 41.7054 -727.019 45.1077 -728.806C46.3723 -728.63 47.6356 -728.454 48.8976 -728.277C46.8343 -726.499 44.7761 -724.718 42.7234 -722.934C40.1282 -723.102 37.5287 -723.267 34.925 -723.43ZM53.4904 -732.678L53.9498 -732.613C54.7634 -733.309 55.5779 -734.004 56.3931 -734.699C55.7015 -734.34 55.0102 -733.981 54.3192 -733.621C53.7856 -733.343 53.2521 -733.066 52.7188 -732.788L53.4904 -732.678ZM55.2843 -727.173L55.4838 -727.344L55.6275 -727.324L55.2843 -727.173ZM56.0387 -722.044C59.0239 -723.355 62.0138 -724.663 65.0082 -725.967C68.1457 -725.508 71.2753 -725.045 74.3971 -724.578C71.3664 -723.52 68.3389 -722.458 65.3146 -721.395C62.2285 -721.615 59.1366 -721.831 56.0387 -722.044ZM89.035 -722.354C87.6894 -722.561 86.3423 -722.768 84.9938 -722.975C82.6027 -722.146 80.2134 -721.315 77.826 -720.482C80.344 -720.295 82.8582 -720.105 85.3686 -719.914L86.8149 -720.292C87.5543 -720.98 88.2943 -721.667 89.035 -722.354ZM109.756 -719.095C108.17 -719.349 106.582 -719.602 104.992 -719.855C103.538 -719.479 102.085 -719.102 100.631 -718.725C102.226 -718.598 103.82 -718.471 105.412 -718.343C106.86 -718.594 108.308 -718.845 109.756 -719.095ZM244.471 -701.37C252.354 -700.035 260.197 -698.72 268.002 -697.432C268.564 -698.116 269.127 -698.799 269.69 -699.481C261.181 -700.129 252.64 -700.807 244.066 -701.508L244.471 -701.37ZM197.57 -704.339C193.212 -705.09 188.842 -705.843 184.459 -706.597L180.092 -706.978L180.042 -706.983L179.909 -706.994C175.822 -707.351 171.727 -707.709 167.623 -708.067C62.934 -598.212 -27.7389 -474.822 -77.8701 -357.699C-97.3456 -302.485 -119.805 -255.299 -144.443 -214.647L-144.018 -210.964L-144.015 -210.943L-144.014 -210.929L-144.012 -210.92L-144.012 -210.914L-144.009 -210.889L-144.007 -210.875L-144.006 -210.866L-144.005 -210.86L-144.004 -210.845C-141.213 -186.686 -138.366 -162.043 -135.525 -136.974C-102.909 -183.767 -74.4448 -242.237 -52.2201 -315.911L-52.2003 -315.976L-52.1771 -316.041C-5.12373 -445.866 88.5733 -583.29 197.57 -704.339ZM273.709 -696.495C282.647 -695.033 291.537 -693.61 300.383 -692.235C301.646 -693.836 302.911 -695.435 304.178 -697.03C294.754 -697.646 285.296 -698.313 275.798 -699.021C275.101 -698.18 274.405 -697.338 273.709 -696.495ZM306.062 -691.358C314.891 -690.005 323.678 -688.702 332.426 -687.462C334.347 -689.995 336.273 -692.521 338.203 -695.039C328.92 -695.513 319.605 -696.05 310.256 -696.639C308.856 -694.883 307.458 -693.122 306.062 -691.358ZM338.1 -686.665C346.792 -685.457 355.448 -684.313 364.071 -683.243C366.607 -686.715 369.152 -690.175 371.704 -693.621C369.596 -693.691 367.486 -693.764 365.375 -693.842C358.359 -694.1 351.326 -694.4 344.276 -694.739C342.212 -692.056 340.153 -689.365 338.1 -686.665ZM384.673 -680.824C387.99 -680.459 391.302 -680.105 394.609 -679.765C397.675 -684.159 400.754 -688.532 403.844 -692.885C395.18 -692.99 386.496 -693.175 377.789 -693.431C375.103 -689.818 372.425 -686.19 369.756 -682.547C374.739 -681.947 379.711 -681.372 384.673 -680.824ZM400.308 -679.191C408.599 -678.374 416.866 -677.64 425.11 -677C428.645 -682.32 432.197 -687.611 435.766 -692.873C427.174 -692.77 418.565 -692.756 409.936 -692.823C406.714 -688.302 403.504 -683.757 400.308 -679.191ZM-216.267 227.066C-216.287 228.214 -216.307 229.362 -216.327 230.511C-225.294 226.854 -234.275 222.971 -243.254 218.884C-234.241 221.85 -225.239 224.585 -216.267 227.066ZM-215.983 206.61C-216.039 211.702 -216.105 216.799 -216.184 221.902C-226.901 218.911 -237.664 215.555 -248.439 211.873C-248.29 208.261 -248.146 204.651 -248.009 201.044C-237.289 203.272 -226.603 205.142 -215.983 206.61ZM-215.776 171.361C-215.787 181.407 -215.837 191.478 -215.932 201.57C-226.503 200.094 -237.142 198.216 -247.82 195.978C-247.507 187.415 -247.227 178.867 -246.978 170.336C-236.514 171.072 -226.103 171.428 -215.776 171.361ZM-215.961 129.08C-215.843 141.464 -215.778 153.893 -215.775 166.362C-226.05 166.43 -236.415 166.073 -246.836 165.336C-246.534 154.467 -246.282 143.627 -246.074 132.82C-237.431 132.104 -228.84 131.1 -220.319 129.783C-218.864 129.558 -217.412 129.324 -215.961 129.08ZM-216.692 80.4224C-216.4 94.8821 -216.17 109.417 -216.013 124.018C-217.7 124.305 -219.39 124.579 -221.083 124.841C-229.32 126.115 -237.625 127.092 -245.981 127.796C-245.748 114.849 -245.577 101.952 -245.459 89.1115C-245.088 89.0164 -244.717 88.9206 -244.347 88.8243C-235.042 86.4077 -225.815 83.6197 -216.692 80.4224ZM-218.109 24.5851C-217.604 41.325 -217.161 58.1885 -216.801 75.1584C-226.231 78.5161 -235.778 81.4275 -245.415 83.9359C-245.292 68.619 -245.242 53.3859 -245.252 38.2501C-236.1 34.1031 -227.044 29.5612 -218.109 24.5851ZM-220.324 -39.2052C-219.581 -20.0115 -218.89 -0.618032 -218.282 18.9474C-227.162 23.9788 -236.162 28.568 -245.257 32.756C-245.285 14.7557 -245.393 -3.10387 -245.555 -20.7995C-237.042 -26.5471 -228.625 -32.6706 -220.324 -39.2052ZM-223.349 -111.57C-222.389 -89.8179 -221.445 -67.746 -220.566 -45.3983C-228.804 -38.7956 -237.16 -32.6112 -245.612 -26.809C-245.818 -47.8109 -246.097 -68.5771 -246.403 -89.0685C-238.628 -96.2214 -230.938 -103.712 -223.349 -111.57ZM-225.108 -150.959L-225.102 -150.838L-225.1 -150.784L-225.1 -150.782L-225.095 -150.666C-224.616 -140.022 -224.134 -129.291 -223.655 -118.48C-231.175 -110.556 -238.797 -103.004 -246.504 -95.7942C-246.696 -108.383 -246.897 -120.865 -247.095 -133.233L-247.096 -133.318L-247.098 -133.427C-247.282 -144.876 -247.464 -156.225 -247.637 -167.468C-240.685 -175.638 -233.794 -184.086 -226.975 -192.834C-226.369 -179.035 -225.742 -165.073 -225.108 -150.959ZM-230.553 -282.748C-229.658 -256.116 -228.535 -228.676 -227.312 -200.537C-234.056 -191.747 -240.872 -183.259 -247.751 -175.05C-248.168 -202.913 -248.512 -230.109 -248.656 -256.527C-242.592 -265.065 -236.556 -273.801 -230.553 -282.748ZM-232.616 -380.437C-232.596 -376.327 -232.566 -372.189 -232.525 -368.026C-232.284 -343.347 -231.679 -317.741 -230.835 -291.318C-236.756 -282.379 -242.711 -273.651 -248.695 -265.119C-248.809 -295.28 -248.639 -324.397 -247.994 -352.298C-247.963 -353.649 -247.93 -354.997 -247.897 -356.342C-242.809 -364.264 -237.715 -372.294 -232.616 -380.437ZM-230.032 -484.353C-231.902 -454.884 -232.658 -423.276 -232.64 -389.837C-237.644 -381.789 -242.642 -373.852 -247.635 -366.021C-246.583 -401.841 -244.672 -435.543 -241.485 -466.773C-237.691 -472.602 -233.873 -478.462 -230.032 -484.353ZM-226.325 -527.135C-227.512 -516.619 -228.508 -505.761 -229.332 -494.579C-233.009 -488.943 -236.665 -483.337 -240.299 -477.758C-238.831 -490.626 -237.129 -503.052 -235.162 -515.008C-232.241 -519.052 -229.295 -523.095 -226.325 -527.135ZM-223.937 -545.971L-223.968 -545.75C-226.392 -542.777 -228.794 -539.789 -231.173 -536.788L-231.082 -537.237C-228.729 -540.174 -226.348 -543.086 -223.937 -545.971ZM-222.242 -557.183C-222.34 -556.574 -222.437 -555.964 -222.534 -555.352C-224.635 -552.914 -226.713 -550.456 -228.77 -547.98C-228.64 -548.558 -228.508 -549.134 -228.375 -549.709C-226.358 -552.229 -224.314 -554.72 -222.242 -557.183ZM-220.129 -569.399C-220.292 -568.519 -220.453 -567.635 -220.613 -566.749C-222.308 -564.818 -223.986 -562.869 -225.647 -560.902C-225.448 -561.673 -225.248 -562.442 -225.046 -563.208C-223.428 -565.297 -221.79 -567.361 -220.129 -569.399ZM-217.624 -581.97C-217.796 -581.167 -217.966 -580.361 -218.134 -579.553C-219.302 -578.203 -220.459 -576.841 -221.606 -575.468C-221.415 -576.105 -221.224 -576.741 -221.031 -577.374C-219.908 -578.923 -218.773 -580.455 -217.624 -581.97ZM-214.88 -593.95L-214.923 -593.773C-214.961 -593.619 -214.999 -593.465 -215.036 -593.31C-215.461 -592.795 -215.884 -592.277 -216.305 -591.758L-216.266 -591.867C-215.807 -592.565 -215.345 -593.259 -214.88 -593.95ZM-165.232 -685.882C-165.775 -683.427 -166.292 -680.93 -166.785 -678.39C-146.737 -695.253 -122.263 -705.975 -92.5157 -709.78L-92.4336 -709.791L-92.3509 -709.796C-71.4229 -711.074 -50.6848 -712.045 -30.1255 -712.782C-26.2944 -715.614 -22.4444 -718.437 -18.5762 -721.253C-38.0696 -722.084 -57.8072 -722.691 -77.8107 -723.005C-109.7 -721.949 -134.966 -712.427 -154.977 -695.613C-158.555 -692.606 -161.972 -689.36 -165.232 -685.882ZM-3.27937 -720.553C-5.63167 -718.654 -7.97664 -716.751 -10.3142 -714.845C-7.38069 -716.722 -4.4382 -718.596 -1.48697 -720.465C-2.08424 -720.494 -2.68164 -720.523 -3.27937 -720.553ZM7.17954 -720.021C3.80014 -717.896 0.431828 -715.765 -2.92477 -713.629C0.255091 -713.714 3.43075 -713.794 6.60221 -713.869C10.0451 -715.747 13.498 -717.62 16.9604 -719.488C13.7068 -719.671 10.4466 -719.849 7.17954 -720.021ZM26.4926 -718.935C23.4957 -717.33 20.5057 -715.722 17.5229 -714.109C20.4452 -714.169 23.364 -714.225 26.2793 -714.278C29.3266 -715.651 32.3797 -717.021 35.4384 -718.388C32.462 -718.574 29.48 -718.756 26.4926 -718.935ZM46.1836 -717.697C44.9198 -717.137 43.6568 -716.576 42.3948 -716.015L41.609 -715.328C41.2976 -715.055 40.9863 -714.783 40.6751 -714.51C42.4885 -714.536 44.3005 -714.561 46.1112 -714.584C48.5627 -715.461 51.0166 -716.335 53.4729 -717.208C51.0467 -717.373 48.617 -717.536 46.1836 -717.697ZM65.9861 -716.334C64.4959 -715.809 63.0066 -715.284 61.5181 -714.758C62.115 -714.763 62.7119 -714.769 63.3085 -714.775C64.2024 -714.783 65.0959 -714.791 65.9892 -714.799C66.7439 -714.999 67.4988 -715.2 68.2538 -715.4L69.6772 -715.778L70.5352 -716.005C69.0202 -716.116 67.5038 -716.225 65.9861 -716.334ZM238.591 -706.975C233.911 -707.362 229.22 -707.756 224.518 -708.154L223.172 -708.61C221.868 -709.052 220.562 -709.494 219.254 -709.936C226.592 -709.945 233.912 -709.963 241.214 -709.994C240.339 -708.989 239.464 -707.983 238.591 -706.975ZM145.157 -710.012C147.607 -709.802 150.053 -709.591 152.496 -709.38C155.419 -709.128 158.337 -708.875 161.251 -708.622C57.3979 -599.152 -32.5252 -476.384 -82.4991 -359.591L-82.5312 -359.516L-82.5583 -359.439C-101.043 -307.021 -122.217 -261.91 -145.385 -222.802C-148.571 -250.394 -151.669 -277.334 -154.586 -303.531C-138.346 -333.244 -122.856 -365.597 -108.299 -400.987C-56.2193 -504.375 29.3968 -612.409 127.556 -710.025C129.407 -710.025 131.257 -710.024 133.106 -710.023C137.129 -710.021 141.146 -710.017 145.157 -710.012ZM273.598 -704.199C264.032 -704.919 254.425 -705.678 244.772 -706.467C245.807 -707.655 246.843 -708.841 247.88 -710.026C258.181 -710.082 268.448 -710.167 278.683 -710.291C276.985 -708.266 275.29 -706.235 273.598 -704.199ZM307.974 -701.795C298.595 -702.396 289.18 -703.049 279.725 -703.744C281.575 -705.961 283.429 -708.172 285.287 -710.377C295.329 -710.517 305.341 -710.697 315.323 -710.929C312.867 -707.895 310.417 -704.85 307.974 -701.795ZM341.91 -699.86C332.663 -700.316 323.385 -700.836 314.072 -701.411C316.671 -704.65 319.278 -707.876 321.893 -711.089C330.158 -711.3 338.403 -711.548 346.629 -711.839C348.208 -711.895 349.787 -711.952 351.364 -712.011C348.202 -707.981 345.05 -703.93 341.91 -699.86ZM375.335 -698.507C372.08 -698.608 368.821 -698.719 365.559 -698.839C359.719 -699.053 353.868 -699.297 348.004 -699.568C351.299 -703.823 354.606 -708.056 357.925 -712.266C367.549 -712.655 377.149 -713.106 386.725 -713.629C382.913 -708.62 379.116 -703.579 375.335 -698.507ZM407.378 -697.846C398.756 -697.93 390.112 -698.094 381.443 -698.33C385.377 -703.586 389.328 -708.81 393.296 -714C402.334 -714.527 411.352 -715.12 420.352 -715.787C416.007 -709.849 411.681 -703.868 407.378 -697.846ZM439.201 -697.92C430.651 -697.792 422.083 -697.755 413.494 -697.8C417.947 -704.008 422.423 -710.171 426.919 -716.288C435.802 -716.984 444.667 -717.755 453.515 -718.609C448.717 -711.767 443.945 -704.87 439.201 -697.92ZM-235.795 -548.5C-234.803 -549.937 -233.803 -551.363 -232.793 -552.779C-232.859 -552.501 -232.924 -552.222 -232.989 -551.944C-233.953 -550.732 -234.911 -549.514 -235.863 -548.29L-235.795 -548.5ZM-240.124 -534.304C-238.6 -536.4 -237.061 -538.478 -235.505 -540.539C-235.574 -540.205 -235.644 -539.872 -235.713 -539.537L-235.737 -539.421C-237.28 -537.485 -238.811 -535.539 -240.33 -533.581L-240.22 -533.965L-240.124 -534.304ZM-243.791 -520.748C-241.834 -523.385 -239.856 -526.004 -237.857 -528.603L-237.944 -528.134C-239.944 -525.544 -241.928 -522.944 -243.896 -520.335L-243.791 -520.748ZM-239.903 -516.982L-239.829 -517.424C-242.208 -514.27 -244.564 -511.103 -246.897 -507.921C-246.977 -507.574 -247.056 -507.227 -247.135 -506.88C-244.741 -510.249 -242.33 -513.616 -239.903 -516.982ZM-246.336 -468.485C-245.001 -481.402 -243.446 -493.909 -241.64 -505.98C-244.396 -502.113 -247.13 -498.244 -249.843 -494.373C-252.655 -480.701 -255.124 -466.439 -257.298 -451.625C-253.665 -457.218 -250.011 -462.838 -246.336 -468.485ZM-258.94 -439.913C-255.114 -445.81 -251.265 -451.736 -247.392 -457.692C-250.271 -426.556 -251.96 -393.16 -252.86 -357.859C-258.122 -349.676 -263.377 -341.608 -268.625 -333.649L-268.582 -334.387C-268.54 -335.094 -268.498 -335.801 -268.456 -336.507C-266.265 -373.18 -263.245 -407.772 -258.94 -439.913ZM-269.18 -323.759C-263.822 -331.826 -258.456 -340.004 -253.084 -348.298C-253.702 -319.406 -253.827 -289.275 -253.668 -258.082C-259.986 -249.212 -266.334 -240.557 -272.708 -232.1C-271.866 -263.772 -270.767 -294.386 -269.18 -323.759ZM-272.928 -223.557C-266.465 -232.03 -260.026 -240.703 -253.619 -249.591C-253.445 -223.496 -253.089 -196.678 -252.671 -169.239C-259.889 -160.8 -267.173 -152.661 -274.512 -144.796C-274.058 -171.658 -273.569 -197.944 -272.928 -223.557ZM-274.636 -137.389C-267.219 -145.226 -259.855 -153.336 -252.555 -161.745C-252.406 -152.13 -252.25 -142.44 -252.093 -132.679L-252.091 -132.587C-251.872 -118.936 -251.65 -105.148 -251.44 -91.2339C-259.462 -83.9142 -267.573 -76.9551 -275.754 -70.3239C-275.484 -85.5904 -275.237 -100.71 -274.993 -115.666L-274.993 -115.673L-274.993 -115.679L-274.988 -115.955C-274.871 -123.138 -274.754 -130.283 -274.636 -137.389ZM-275.87 -63.814C-267.618 -70.4015 -259.436 -77.3127 -251.341 -84.5803C-251.044 -64.4485 -250.776 -44.0595 -250.58 -23.449C-259.307 -17.6361 -268.131 -12.2195 -277.028 -7.16003C-276.941 -10.8572 -276.857 -14.5474 -276.776 -18.2305C-276.437 -33.5552 -276.141 -48.7548 -275.87 -63.814ZM-277.167 -1.34075C-268.205 -6.35986 -259.317 -11.7312 -250.526 -17.4928C-250.373 -0.138285 -250.273 17.3702 -250.252 35.0115C-256.835 37.9272 -263.466 40.6381 -270.133 43.1596C-272.911 44.2101 -275.695 45.2278 -278.485 46.2138C-277.98 30.251 -277.547 14.3938 -277.167 -1.34075ZM-268.364 47.8363C-262.291 45.5395 -256.25 43.0881 -250.248 40.471C-250.243 55.2931 -250.296 70.2072 -250.42 85.2009C-260.24 87.6089 -270.145 89.6086 -280.106 91.245C-279.565 77.9567 -279.086 64.7293 -278.657 51.5722C-275.217 50.3748 -271.786 49.1302 -268.364 47.8363ZM-280.316 96.342C-270.303 94.7235 -260.343 92.7438 -250.466 90.3578C-250.584 102.915 -250.753 115.526 -250.982 128.185C-261.202 128.914 -271.492 129.246 -281.82 129.226C-281.272 118.228 -280.773 107.265 -280.316 96.342ZM-282.072 134.221C-271.695 134.247 -261.352 133.923 -251.076 133.203C-251.281 143.756 -251.527 154.342 -251.821 164.956C-262.357 164.091 -272.945 162.846 -283.554 161.267C-283.025 152.231 -282.532 143.214 -282.072 134.221ZM-283.851 166.274C-273.194 167.851 -262.554 169.094 -251.963 169.958C-252.205 178.26 -252.476 186.58 -252.778 194.914C-263.545 192.549 -274.345 189.826 -285.144 186.791C-284.691 179.941 -284.26 173.102 -283.851 166.274ZM-285.486 191.885C-274.638 194.914 -263.787 197.63 -252.967 199.988C-253.095 203.379 -253.229 206.772 -253.368 210.168C-264.212 206.366 -275.064 202.241 -285.895 197.836C-285.756 195.852 -285.62 193.868 -285.486 191.885ZM-169.486 -662.41C-169.088 -665.135 -168.667 -667.818 -168.222 -670.459C-167.871 -670.783 -167.519 -671.104 -167.166 -671.424C-147.268 -689.422 -122.6 -700.877 -91.963 -704.81C-73.5722 -705.932 -55.3268 -706.818 -37.218 -707.515C-40.8426 -704.811 -44.4493 -702.099 -48.0375 -699.381C-67.6052 -696.996 -87.2322 -694.407 -106.914 -691.563L-107.018 -691.548L-107.119 -691.524C-131.187 -685.964 -151.807 -676.106 -169.486 -662.41ZM-38.1549 -700.57C-34.9172 -702.999 -31.6649 -705.422 -28.3985 -707.841L-27.5894 -707.869L-26.6133 -707.903C-29.3959 -705.59 -32.167 -703.273 -34.9262 -700.951C-36.0023 -700.824 -37.0785 -700.697 -38.1549 -700.57ZM-21.2798 -713.086L-20.311 -713.117C-17.8177 -715.17 -15.3155 -717.22 -12.8048 -719.265C-15.6396 -717.21 -18.4647 -715.15 -21.2798 -713.086ZM-19.9611 -702.675C-17.0184 -704.587 -14.0657 -706.495 -11.1035 -708.399C-8.38546 -708.478 -5.67038 -708.554 -2.95835 -708.627C-6.02085 -706.939 -9.07498 -705.247 -12.1204 -703.551C-14.7329 -703.262 -17.3464 -702.97 -19.9611 -702.675ZM0.728364 -704.949C3.12437 -706.268 5.52553 -707.585 7.93162 -708.898C10.205 -708.951 12.4763 -709.002 14.7456 -709.05C12.2622 -707.918 9.78293 -706.784 7.30794 -705.648C5.11557 -705.417 2.92235 -705.184 0.728364 -704.949ZM120.474 -710.024C115.648 -710.021 110.814 -710.015 105.972 -710.005C97.5794 -709.272 89.1741 -708.527 80.756 -707.766C-8.29591 -623.734 -86.5105 -532.452 -138.742 -444.265C-147.071 -426.891 -155.526 -410.153 -164.092 -394.007C-161.55 -367.705 -158.663 -340.41 -155.551 -312.235C-140.629 -340.072 -126.361 -370.213 -112.887 -402.977L-112.851 -403.065L-112.808 -403.151C-61.07 -505.893 23.4839 -613.023 120.474 -710.024ZM204.43 -714.93L207.183 -714.93C208.393 -716.252 209.605 -717.572 210.818 -718.891C205.976 -718.478 201.129 -718.067 196.278 -717.657C199.004 -716.748 201.721 -715.839 204.43 -714.93ZM213.969 -714.932C224.553 -714.938 235.097 -714.962 245.603 -715.015C247.801 -717.519 250.003 -720.015 252.211 -722.503C240.901 -721.488 229.567 -720.499 218.207 -719.523C216.792 -717.995 215.38 -716.465 213.969 -714.932ZM252.295 -715.052C262.543 -715.116 272.756 -715.211 282.937 -715.346C286.014 -718.99 289.102 -722.617 292.2 -726.228C281.32 -725.172 270.416 -724.153 259.489 -723.161C257.084 -720.467 254.687 -717.764 252.295 -715.052ZM289.567 -715.44C299.565 -715.591 309.532 -715.784 319.469 -716.03C323.342 -720.778 327.231 -725.498 331.134 -730.188C330.052 -730.073 328.971 -729.958 327.889 -729.843C318.412 -728.838 308.916 -727.87 299.402 -726.932C296.113 -723.12 292.834 -719.289 289.567 -715.44ZM346.453 -716.836C349.447 -716.942 352.438 -717.053 355.427 -717.171C360.025 -722.991 364.645 -728.768 369.285 -734.499C358.978 -733.267 348.646 -732.091 338.291 -730.961C334.2 -726.073 330.125 -721.153 326.067 -716.201C332.875 -716.386 339.671 -716.596 346.453 -716.836ZM362.018 -717.44C371.611 -717.846 381.178 -718.317 390.72 -718.86C395.969 -725.71 401.246 -732.5 406.545 -739.227C396.529 -737.878 386.488 -736.592 376.425 -735.362C371.601 -729.436 366.798 -723.461 362.018 -717.44ZM397.322 -719.249C406.319 -719.794 415.295 -720.408 424.25 -721.096C429.99 -728.885 435.763 -736.599 441.563 -744.232C432.292 -742.827 422.999 -741.485 413.686 -740.2C408.206 -733.283 402.75 -726.298 397.322 -719.249ZM430.851 -721.618C439.69 -722.336 448.51 -723.129 457.312 -724.006C463.434 -732.676 469.595 -741.256 475.789 -749.742C466.774 -748.202 457.738 -746.732 448.682 -745.325C442.707 -737.506 436.762 -729.602 430.851 -721.618ZM-290.403 190.49C-290.514 192.133 -290.626 193.776 -290.739 195.419C-297.708 191.714 -304.658 187.907 -311.579 184.009C-304.53 186.291 -297.468 188.456 -290.403 190.49ZM-288.814 165.515C-289.21 172.129 -289.626 178.753 -290.063 185.387C-300.99 182.22 -311.912 178.74 -322.796 174.993C-322.281 169.8 -321.78 164.614 -321.291 159.433C-310.476 161.766 -299.639 163.809 -288.814 165.515ZM-287.077 134.182C-287.525 142.935 -288.004 151.71 -288.518 160.504C-299.282 158.798 -310.062 156.755 -320.823 154.423C-320.151 147.183 -319.504 139.956 -318.879 132.743C-308.27 133.546 -297.658 134.042 -287.077 134.182ZM-285.353 97.1254C-285.801 107.778 -286.29 118.467 -286.825 129.189C-297.343 129.055 -307.897 128.565 -318.451 127.767C-317.679 118.707 -316.942 109.671 -316.236 100.661C-305.914 99.8206 -295.609 98.658 -285.353 97.1254ZM-283.716 53.2975C-284.14 66.1498 -284.612 79.0672 -285.143 92.0411C-295.335 93.589 -305.579 94.7658 -315.844 95.6196C-314.978 84.3917 -314.16 73.2059 -313.382 62.0679C-303.448 59.4896 -293.549 56.5815 -283.716 53.2975ZM-282.236 1.45714C-282.615 16.8513 -283.044 32.359 -283.543 47.9649C-293.312 51.2767 -303.146 54.2099 -313.017 56.811C-312.065 42.9817 -311.174 29.2279 -310.329 15.5609C-304.326 12.7826 -298.341 9.87111 -292.382 6.81525C-288.991 5.07643 -285.609 3.29108 -282.236 1.45714ZM-280.943 -59.8109C-281.194 -46.0939 -281.467 -32.2666 -281.775 -18.341C-281.878 -13.6786 -281.985 -9.00492 -282.096 -4.32052C-286.271 -2.01646 -290.461 0.21109 -294.664 2.36611C-299.751 4.97484 -304.858 7.47783 -309.981 9.88205C-309.31 -1.10397 -308.669 -12.0326 -308.05 -22.8979C-307.712 -28.8186 -307.381 -34.7202 -307.055 -40.6018C-298.292 -46.6843 -289.582 -53.075 -280.943 -59.8109ZM-279.98 -116.532L-279.988 -116.062L-279.995 -115.63C-280.261 -99.3542 -280.529 -82.8903 -280.827 -66.2605C-289.386 -59.4861 -298.019 -53.0607 -306.704 -46.9469C-305.738 -64.5257 -304.815 -81.9222 -303.903 -99.1117C-303.736 -102.263 -303.569 -105.406 -303.402 -108.543C-295.463 -116.105 -287.566 -123.935 -279.725 -132.063C-279.8 -127.519 -279.875 -122.96 -279.95 -118.386L-279.975 -116.867L-279.98 -116.532ZM-278.094 -216.834C-278.697 -191.619 -279.163 -165.773 -279.604 -139.392C-287.353 -131.248 -295.161 -123.402 -303.015 -115.824C-301.657 -141.315 -300.3 -166.326 -298.838 -190.774C-291.9 -199.252 -284.983 -207.933 -278.094 -216.834ZM-274.613 -315.615C-276.077 -286.618 -277.097 -256.445 -277.886 -225.281C-284.672 -216.411 -291.485 -207.76 -298.322 -199.311C-296.402 -230.672 -294.286 -261.08 -291.745 -290.359C-286.043 -298.661 -280.332 -307.076 -274.613 -315.615ZM-265.23 -430.213C-268.86 -400.858 -271.487 -369.627 -273.447 -336.805C-273.673 -333.019 -273.891 -329.211 -274.1 -325.381C-279.688 -316.977 -285.269 -308.694 -290.841 -300.522C-290.223 -307.311 -289.58 -314.037 -288.909 -320.699C-285.676 -352.798 -281.802 -383.345 -276.965 -412.088C-273.077 -418.1 -269.166 -424.141 -265.23 -430.213ZM-256.948 -484.159C-259.514 -470.523 -261.765 -456.354 -263.746 -441.692C-267.438 -436.001 -271.109 -430.338 -274.759 -424.701C-271.691 -441.572 -268.262 -457.782 -264.402 -473.28C-261.935 -476.908 -259.451 -480.535 -256.948 -484.159ZM-254.248 -497.748C-254.342 -497.297 -254.436 -496.846 -254.53 -496.395C-256.585 -493.458 -258.628 -490.52 -260.66 -487.581C-260.501 -488.159 -260.341 -488.736 -260.181 -489.312C-258.22 -492.134 -256.242 -494.946 -254.248 -497.748ZM-251.535 -510.058L-251.537 -510.047L-251.684 -509.847L-251.535 -510.058ZM-170.469 -655.208C-170.8 -652.617 -171.11 -649.99 -171.401 -647.328C-156.656 -658.197 -140.171 -666.899 -121.713 -673.234L-121.595 -673.275L-121.474 -673.303C-102.955 -677.665 -84.3737 -681.818 -65.747 -685.797C-62.4911 -688.326 -59.2181 -690.851 -55.9287 -693.371C-72.6041 -691.288 -89.3267 -689.052 -106.096 -686.629C-131.186 -680.817 -152.441 -670.189 -170.469 -655.208ZM-46.0913 -694.582C-48.8989 -692.452 -51.6948 -690.319 -54.4788 -688.182C-52.7689 -688.54 -51.0587 -688.897 -49.3482 -689.253C-48.3321 -689.936 -47.3147 -690.618 -46.2959 -691.3C-44.8172 -692.566 -43.3349 -693.831 -41.849 -695.095C-43.2628 -694.925 -44.6769 -694.754 -46.0913 -694.582ZM-29.2947 -696.576C-31.6449 -695.031 -33.9884 -693.484 -36.3251 -691.935C-34.4705 -692.313 -32.6155 -692.689 -30.7603 -693.064C-28.2963 -694.465 -25.8261 -695.864 -23.3497 -697.26C-25.3307 -697.034 -27.3123 -696.806 -29.2947 -696.576ZM-10.5656 -698.695C-12.0498 -697.867 -13.5319 -697.039 -15.0119 -696.211C-13.8755 -696.435 -12.739 -696.659 -11.6025 -696.882C-10.0188 -697.624 -8.43316 -698.364 -6.84571 -699.103C-8.0854 -698.968 -9.32535 -698.831 -10.5656 -698.695ZM25.1882 -707.491C24.4209 -707.413 23.6535 -707.336 22.8859 -707.258C23.3625 -707.474 23.8391 -707.69 24.316 -707.905L24.9843 -708.208L25.8104 -708.581L26.8365 -709.044L27.0293 -709.131C26.415 -708.585 25.8014 -708.038 25.1882 -707.491ZM67.0048 -706.507C68.9075 -706.683 70.8094 -706.859 72.7108 -707.033C-14.7325 -623.923 -91.492 -533.881 -143.1 -446.718L-143.156 -446.624L-143.203 -446.525C-150.366 -431.58 -157.622 -417.11 -164.96 -403.084C-165.348 -407.195 -165.727 -411.28 -166.097 -415.34C-168.245 -438.935 -170.077 -461.66 -171.501 -483.434C-170.735 -484.798 -169.968 -486.165 -169.201 -487.535C-120.209 -557.801 -53.5928 -629.744 21.6339 -697.586C23.8832 -698.209 26.1339 -698.83 28.3859 -699.45C41.2514 -701.852 54.1261 -704.201 67.0048 -706.507ZM215.857 -724.342C205.335 -723.44 194.789 -722.549 184.218 -721.66C183.336 -721.952 182.452 -722.244 181.568 -722.535C182.997 -724.002 184.429 -725.466 185.863 -726.927C190.87 -727.766 195.875 -728.604 200.878 -729.442L200.953 -729.454C208.737 -730.757 216.516 -732.06 224.289 -733.364C221.47 -730.368 218.659 -727.361 215.857 -724.342ZM257.075 -727.964C245.841 -726.947 234.576 -725.956 223.283 -724.981C226.333 -728.246 229.393 -731.499 232.462 -734.737C244.569 -736.772 256.661 -738.813 268.732 -740.871C264.832 -736.594 260.946 -732.291 257.075 -727.964ZM296.925 -731.713C286.109 -730.652 275.263 -729.627 264.39 -728.63C268.498 -733.196 272.624 -737.734 276.765 -742.244C287.579 -744.096 298.377 -745.962 309.155 -747.851L311.395 -748.244C306.551 -742.776 301.727 -737.265 296.925 -731.713ZM335.751 -735.714C332.956 -735.411 330.16 -735.112 327.362 -734.815C319.645 -733.997 311.912 -733.203 304.165 -732.43C309.196 -738.213 314.251 -743.951 319.327 -749.641C330.476 -751.612 341.602 -753.609 352.702 -755.639C347.026 -749.062 341.374 -742.419 335.751 -735.714ZM373.821 -740.082C363.556 -738.835 353.265 -737.645 342.947 -736.503C348.792 -743.432 354.667 -750.293 360.568 -757.084C371.4 -759.084 382.205 -761.117 392.982 -763.192C386.565 -755.578 380.176 -747.873 373.821 -740.082ZM411.017 -744.88C401.038 -743.513 391.033 -742.21 381.002 -740.964C387.572 -748.972 394.178 -756.889 400.811 -764.707C411.265 -766.742 421.69 -768.817 432.084 -770.94C425.029 -762.37 418.004 -753.681 411.017 -744.88ZM445.932 -749.959C436.711 -748.536 427.467 -747.178 418.201 -745.877C425.396 -754.887 432.63 -763.78 439.895 -772.545C449.377 -774.507 458.832 -776.509 468.258 -778.557C460.78 -769.162 453.334 -759.626 445.932 -749.959ZM480.044 -755.548C471.083 -753.991 462.1 -752.503 453.095 -751.078C460.693 -760.946 468.336 -770.674 476.011 -780.254C485.105 -782.258 494.171 -784.307 503.206 -786.404C495.446 -776.273 487.721 -765.985 480.044 -755.548ZM-273.132 -470.169C-271.645 -472.426 -270.149 -474.677 -268.642 -476.922C-268.775 -476.399 -268.907 -475.875 -269.038 -475.351C-270.595 -473.059 -272.144 -470.766 -273.687 -468.472C-273.503 -469.039 -273.318 -469.604 -273.132 -470.169ZM-278.901 -451.625C-276.733 -454.912 -274.552 -458.197 -272.357 -461.481C-275.839 -446.237 -278.942 -430.372 -281.725 -413.936C-285.468 -408.147 -289.19 -402.385 -292.891 -396.648C-288.691 -415.76 -284.061 -434.11 -278.901 -451.625ZM-295.816 -382.883C-291.813 -389.096 -287.787 -395.338 -283.736 -401.611C-287.755 -376.054 -291.064 -349.19 -293.884 -321.2C-294.848 -311.63 -295.754 -301.926 -296.613 -292.094C-302.636 -283.335 -308.649 -274.704 -314.652 -266.19C-312.97 -279.299 -311.209 -292.196 -309.347 -304.866C-305.362 -331.983 -300.92 -358.039 -295.816 -382.883ZM-315.98 -255.667C-309.82 -264.341 -303.65 -273.135 -297.469 -282.061C-299.87 -253.262 -301.887 -223.406 -303.733 -192.67C-311.095 -183.699 -318.481 -174.954 -325.885 -166.414C-322.786 -197.041 -319.558 -226.846 -315.98 -255.667ZM-326.748 -157.825C-319.226 -166.412 -311.719 -175.203 -304.235 -184.224C-305.646 -160.237 -306.964 -135.728 -308.291 -110.781C-316.658 -102.854 -325.074 -95.2247 -333.522 -87.8574C-331.264 -111.583 -329.036 -134.928 -326.748 -157.825ZM-334.208 -80.6491C-325.662 -88.0144 -317.146 -95.6423 -308.674 -103.567L-308.901 -99.286L-308.901 -99.2814C-309.879 -80.8481 -310.87 -62.1843 -311.912 -43.3228C-314.332 -41.6572 -316.756 -40.0151 -319.184 -38.3958C-325.938 -33.8909 -332.718 -29.5611 -339.517 -25.3893L-339.307 -27.54C-337.562 -45.4281 -335.875 -63.1398 -334.208 -80.6491ZM-316.41 -34.2363C-315.026 -35.1594 -313.643 -36.0899 -312.261 -37.0279C-312.518 -32.4241 -312.778 -27.8089 -313.041 -23.1826C-313.711 -11.4361 -314.406 0.382721 -315.136 12.2663C-324.896 16.714 -334.707 20.8131 -344.541 24.612C-343.016 9.92002 -341.551 -4.67588 -340.127 -19.1611C-332.196 -23.9664 -324.286 -28.9826 -316.41 -34.2363ZM-345.122 30.1906C-335.218 26.4139 -325.329 22.3374 -315.485 17.9124C-316.314 31.2404 -317.188 44.6482 -318.12 58.1255C-328.341 60.6989 -338.598 62.9257 -348.856 64.8573C-347.567 53.2488 -346.326 41.6909 -345.122 30.1906ZM-349.435 70.0407C-339.108 68.1254 -328.78 65.9166 -318.485 63.3628C-319.246 74.2041 -320.045 85.0894 -320.89 96.0133C-331.449 96.7835 -342.025 97.2207 -352.583 97.3769C-351.501 88.2367 -350.453 79.1235 -349.435 70.0407ZM-353.178 102.378C-342.557 102.232 -331.913 101.806 -321.282 101.047C-321.969 109.797 -322.686 118.571 -323.436 127.367C-334.236 126.453 -345.033 125.224 -355.791 123.732C-354.897 116.599 -354.027 109.481 -353.178 102.378ZM-356.415 128.689C-345.597 130.187 -334.734 131.423 -323.863 132.343C-324.468 139.328 -325.094 146.326 -325.743 153.336C-336.71 150.87 -347.652 148.11 -358.533 145.108C-357.813 139.627 -357.107 134.154 -356.415 128.689ZM-359.194 150.11C-348.253 153.118 -337.247 155.882 -326.212 158.352C-326.68 163.33 -327.16 168.313 -327.653 173.302C-329.741 172.567 -331.827 171.823 -333.912 171.069C-342.63 165.876 -351.287 160.557 -359.866 155.132C-359.641 153.457 -359.417 151.783 -359.194 150.11ZM-172.718 -633.456C-172.524 -635.838 -172.317 -638.196 -172.095 -640.528C-156.833 -652.402 -139.631 -661.784 -120.206 -668.465C-105.099 -672.023 -89.9513 -675.441 -74.7718 -678.738C-77.5865 -676.522 -80.3877 -674.302 -83.175 -672.079C-100.946 -666.543 -118.57 -660.86 -136.02 -655.009L-136.153 -654.964L-136.281 -654.905C-149.349 -648.819 -161.467 -641.647 -172.718 -633.456ZM-69.9598 -676.162C-67.8415 -677.825 -65.7156 -679.487 -63.5823 -681.146C-62.4861 -681.38 -61.3897 -681.613 -60.2931 -681.846C-62.6995 -680.205 -65.0978 -678.563 -67.4877 -676.918C-68.312 -676.666 -69.136 -676.414 -69.9598 -676.162ZM-48.2816 -682.999C-47.5846 -683.601 -46.8868 -684.202 -46.1881 -684.803C-45.6579 -684.913 -45.1278 -685.023 -44.5975 -685.132C-44.9773 -684.913 -45.357 -684.693 -45.7364 -684.474L-46.5498 -684.003C-47.1274 -683.668 -47.7046 -683.334 -48.2816 -682.999ZM176.282 -724.273C175.578 -724.504 174.873 -724.735 174.168 -724.965L177.5 -725.524C177.094 -725.107 176.688 -724.69 176.282 -724.273ZM163.897 -728.309C170.413 -729.406 176.926 -730.499 183.436 -731.59C186.966 -735.181 190.511 -738.756 194.067 -742.314C180.214 -738.892 166.363 -735.446 152.527 -731.968C156.333 -730.751 160.123 -729.531 163.897 -728.309ZM200.25 -734.407L200.276 -734.411L200.301 -734.415C210.206 -736.074 220.102 -737.731 229.986 -739.391C234.879 -744.543 239.795 -749.659 244.731 -754.737C230.99 -751.387 217.238 -748.022 203.486 -744.637C199.593 -740.778 195.715 -736.899 191.852 -733L200.18 -734.395L200.25 -734.407ZM238.212 -740.775C250.241 -742.8 262.252 -744.834 274.239 -746.884C280.261 -753.43 286.316 -759.914 292.397 -766.334L290.432 -765.856L284.317 -764.37L284.301 -764.366L284.285 -764.362L284.269 -764.358L284.253 -764.354L284.237 -764.35C274.136 -761.895 264.022 -759.436 253.901 -756.972C248.648 -751.615 243.417 -746.215 238.212 -740.775ZM308.292 -752.776C311.113 -753.27 313.933 -753.766 316.752 -754.263C323.725 -762.065 330.737 -769.777 337.78 -777.39C325.672 -774.43 313.534 -771.474 301.375 -768.517C294.994 -761.839 288.642 -755.089 282.324 -748.271C290.994 -749.761 299.65 -751.261 308.292 -752.776ZM324.737 -755.678C335.832 -757.651 346.902 -759.65 357.943 -761.684C365.726 -770.624 373.551 -779.439 381.409 -788.121C369.844 -785.256 358.243 -782.401 346.612 -779.552C339.286 -771.698 331.991 -763.737 324.737 -755.678ZM365.862 -763.15C376.65 -765.157 387.408 -767.198 398.136 -769.281C406.611 -779.25 415.13 -789.059 423.68 -798.695C412.538 -795.878 401.354 -793.077 390.133 -790.286C382.007 -781.382 373.912 -772.333 365.862 -763.15ZM406.021 -770.821C416.434 -772.866 426.817 -774.953 437.166 -777.088C442.441 -783.44 447.731 -789.726 453.032 -795.942C456.81 -800.37 460.594 -804.764 464.382 -809.121C453.744 -806.358 443.058 -803.615 432.33 -800.888C431.631 -800.108 430.934 -799.326 430.236 -798.544C422.134 -789.455 414.058 -780.21 406.021 -770.821ZM445.035 -778.722C454.458 -780.691 463.851 -782.701 473.214 -784.758C476.914 -789.368 480.622 -793.942 484.335 -798.481C489.954 -805.348 495.588 -812.134 501.231 -818.834C491.854 -816.324 482.434 -813.833 472.974 -811.36C467.586 -805.213 462.205 -798.991 456.836 -792.697C452.896 -788.077 448.962 -783.418 445.035 -778.722ZM481.027 -786.487C490.055 -788.5 499.054 -790.556 508.021 -792.662C511.513 -797.183 515.012 -801.67 518.516 -806.125C524.428 -813.639 530.356 -821.059 536.296 -828.381C527.475 -825.937 518.61 -823.515 509.705 -821.112C502.522 -812.652 495.352 -804.05 488.205 -795.315C485.81 -792.387 483.417 -789.444 481.027 -786.487ZM-360.644 160.872C-360.18 161.058 -359.716 161.243 -359.252 161.428C-359.703 161.145 -360.153 160.862 -360.604 160.578L-360.644 160.872ZM-365.25 157.638L-365.426 158.939C-370.155 157.011 -374.868 155.044 -379.561 153.04C-385.814 149.631 -392.026 146.166 -398.191 142.652C-397.948 141.292 -397.706 139.933 -397.465 138.574C-395.445 139.234 -393.422 139.887 -391.395 140.534C-382.776 146.328 -374.055 152.037 -365.25 157.638ZM-364.257 150.253C-364.343 150.894 -364.429 151.536 -364.514 152.177C-367.849 150.047 -371.172 147.901 -374.481 145.741C-371.015 146.769 -367.54 147.774 -364.058 148.756C-364.125 149.255 -364.191 149.754 -364.257 150.253ZM-361.366 127.985C-362.03 133.232 -362.707 138.487 -363.398 143.749C-372.046 141.302 -380.652 138.706 -389.197 135.986C-391.531 134.416 -393.857 132.839 -396.175 131.256C-395.655 128.283 -395.138 125.312 -394.626 122.343C-383.62 124.457 -372.52 126.357 -361.366 127.985ZM-358.219 102.426C-359.04 109.279 -359.88 116.147 -360.742 123.027C-371.815 121.408 -382.841 119.519 -393.78 117.415C-392.887 112.198 -392.007 106.988 -391.139 101.787C-380.223 102.254 -369.237 102.487 -358.219 102.426ZM-354.57 70.9693C-355.559 79.7632 -356.576 88.5845 -357.624 97.4303C-368.558 97.5009 -379.468 97.2787 -390.314 96.8217C-389.15 89.7978 -388.008 82.7895 -386.885 75.7983C-376.147 74.461 -365.362 72.8708 -354.57 70.9693ZM-350.356 32.1583C-351.529 43.322 -352.738 54.5379 -353.992 65.7998C-364.697 67.7142 -375.4 69.3165 -386.063 70.6652C-384.58 61.366 -383.129 52.0979 -381.707 42.8644C-371.269 39.5816 -360.807 36.0319 -350.356 32.1583ZM-345.467 -15.9592C-346.857 -1.86716 -348.287 12.3253 -349.775 26.6052C-360.128 30.4914 -370.501 34.0549 -380.86 37.3521C-378.986 25.118 -377.16 12.9461 -375.369 0.844711C-365.394 -4.46965 -355.417 -10.0535 -345.467 -15.9592ZM-339.676 -75.9755C-341.183 -60.1418 -342.71 -44.1515 -344.283 -28.0255C-344.409 -26.7416 -344.534 -25.4568 -344.66 -24.1711L-344.858 -22.1461C-354.701 -16.232 -364.578 -10.6389 -374.46 -5.31481C-373.136 -14.3003 -371.83 -23.2461 -370.538 -32.1485C-369.511 -39.2315 -368.491 -46.2868 -367.478 -53.3127C-358.194 -60.5987 -348.92 -68.1384 -339.676 -75.9755ZM-332.412 -151.402C-334.607 -129.246 -336.753 -106.69 -338.932 -83.7973L-338.932 -83.7965L-338.935 -83.7658L-338.995 -83.1249C-348.116 -75.3049 -357.271 -67.7808 -366.441 -60.5096L-365.316 -68.3197L-365.309 -68.3734L-365.308 -68.3768C-362.597 -87.209 -359.917 -105.819 -357.221 -124.175C-348.942 -133.031 -340.669 -142.096 -332.412 -151.402ZM-322.062 -247.136C-325.472 -218.912 -328.572 -189.783 -331.565 -159.904C-339.674 -150.673 -347.8 -141.68 -355.936 -132.893C-351.59 -162.284 -347.181 -191.004 -342.51 -218.918C-335.709 -228.19 -328.892 -237.591 -322.062 -247.136ZM-303.205 -371.403C-307.306 -350.239 -310.962 -328.27 -314.294 -305.593C-316.599 -289.907 -318.75 -273.873 -320.787 -257.524C-327.42 -248.193 -334.04 -239 -340.646 -229.933C-337.196 -250.076 -333.593 -269.784 -329.76 -289.004C-325.469 -310.522 -320.892 -331.412 -315.923 -351.6C-311.71 -358.17 -307.471 -364.771 -303.205 -371.403ZM-288.05 -437.615C-292.626 -420.688 -296.757 -403.064 -300.525 -384.806C-304.388 -378.809 -308.228 -372.839 -312.048 -366.895C-306.392 -388.561 -300.237 -409.37 -293.444 -429.226C-291.655 -432.024 -289.857 -434.82 -288.05 -437.615ZM-283.286 -454.427L-283.418 -453.982L-283.487 -453.749C-284.322 -452.482 -285.154 -451.215 -285.985 -449.947L-285.809 -450.411C-284.971 -451.752 -284.13 -453.091 -283.286 -454.427ZM-173.215 -626.854C-173.343 -624.999 -173.464 -623.129 -173.577 -621.244C-166.303 -626.684 -158.718 -631.785 -150.803 -636.534L-150.672 -636.612L-150.533 -636.674C-134.02 -644.023 -117.219 -651.244 -100.171 -658.343C-98.0785 -660.057 -95.9772 -661.77 -93.8674 -663.481C-107.439 -659.184 -120.919 -654.798 -134.297 -650.313C-148.346 -643.759 -161.283 -635.914 -173.215 -626.854ZM-9.76164 -688.751C-2.89136 -690.716 3.99469 -692.664 10.8951 -694.595C-60.9122 -629.087 -124.556 -559.921 -172.054 -492.181C-173.505 -515.948 -174.444 -538.541 -174.752 -559.85C-144.23 -594.069 -109.604 -628.371 -72.1038 -662.032C-63.8471 -666.173 -55.5185 -670.29 -47.1242 -674.381C-34.7685 -679.228 -22.3095 -684.018 -9.76164 -688.751ZM146.613 -735.635L144.982 -735.224L143.478 -734.844C139.391 -736.136 135.286 -737.423 131.16 -738.705C140.71 -741.904 150.279 -745.078 159.862 -748.228C155.426 -744.054 151.009 -739.856 146.613 -735.635ZM200.95 -749.161C186.108 -745.506 171.265 -741.823 156.435 -738.104C161.307 -742.737 166.205 -747.342 171.124 -751.917C187.34 -757.209 203.59 -762.433 219.846 -767.592C213.514 -761.505 207.214 -755.36 200.95 -749.161ZM251.333 -761.492C237.715 -758.175 224.082 -754.846 210.445 -751.497C217.146 -758.067 223.887 -764.575 230.662 -771.016C245.308 -775.638 259.954 -780.21 274.58 -784.733C266.79 -777.085 259.038 -769.336 251.333 -761.492ZM298.773 -773.03C295.6 -772.258 292.426 -771.486 289.251 -770.715L283.034 -769.203L282.937 -769.18C275.491 -767.37 268.037 -765.558 260.577 -763.743C268.686 -771.924 276.845 -780 285.043 -787.962C298.533 -792.116 312.002 -796.23 325.434 -800.306C316.504 -791.361 307.612 -782.265 298.773 -773.03ZM343.975 -784.054C331.955 -781.11 319.902 -778.171 307.824 -775.232C317.038 -784.775 326.306 -794.166 335.613 -803.39C348.228 -807.206 360.806 -810.989 373.335 -814.741C363.508 -804.712 353.715 -794.477 343.975 -784.054ZM387.461 -794.775C375.971 -791.919 364.442 -789.075 352.881 -786.237C361.392 -795.269 369.944 -804.156 378.52 -812.886C380.108 -814.502 381.696 -816.112 383.285 -817.717C395.225 -821.286 407.116 -824.826 418.948 -828.341C412.864 -822.022 406.788 -815.617 400.727 -809.129C396.297 -804.388 391.874 -799.603 387.461 -794.775ZM429.622 -805.359C418.544 -802.546 407.421 -799.75 396.259 -796.965C398.963 -799.898 401.67 -802.815 404.38 -805.716C412.472 -814.376 420.586 -822.887 428.713 -831.24C440.124 -834.626 451.476 -837.989 462.759 -841.33C451.689 -829.646 440.632 -817.647 429.622 -805.359ZM470.227 -815.81C459.649 -813.048 449.02 -810.306 438.347 -807.581C449.66 -820.1 461.014 -832.308 472.375 -844.177L472.741 -844.285L472.742 -844.285L472.747 -844.287L472.799 -844.302L472.883 -844.327L472.983 -844.356C483.544 -847.483 494.041 -850.591 504.466 -853.681C493.039 -841.411 481.615 -828.777 470.227 -815.81ZM506.901 -825.535C497.61 -823.031 488.274 -820.548 478.897 -818.082C490.561 -831.254 502.257 -844.068 513.946 -856.492C523.049 -859.193 532.095 -861.881 541.077 -864.556C529.675 -851.921 518.271 -838.903 506.901 -825.535ZM541.765 -835.092C533.038 -832.656 524.266 -830.242 515.452 -827.848C527.062 -841.389 538.7 -854.555 550.328 -867.315C558.679 -869.807 566.974 -872.289 575.207 -874.762C564.048 -861.909 552.89 -848.675 541.765 -835.092ZM-308.238 -405.719C-306.953 -407.792 -305.664 -409.864 -304.37 -411.936C-310.244 -393.206 -315.613 -373.734 -320.583 -353.597C-324.707 -347.165 -328.807 -340.761 -332.885 -334.384C-325.306 -359.125 -317.156 -382.942 -308.238 -405.719ZM-338.092 -316.94C-333.472 -324.182 -328.824 -331.458 -324.144 -338.769C-327.858 -322.884 -331.348 -306.609 -334.664 -289.982C-339.13 -267.588 -343.284 -244.535 -347.247 -220.909C-354.796 -210.626 -362.327 -200.501 -369.838 -190.513C-363.563 -218.804 -357.064 -246.373 -350.127 -273.095C-346.262 -287.987 -342.262 -302.609 -338.092 -316.94ZM-372.416 -178.797C-364.649 -189.062 -356.86 -199.467 -349.051 -210.035C-353.513 -182.858 -357.749 -154.952 -361.941 -126.446C-371.077 -116.697 -380.221 -107.198 -389.362 -97.9092C-383.768 -125.41 -378.175 -152.406 -372.416 -178.797ZM-391.182 -88.9449C-381.862 -98.34 -372.532 -107.946 -363.207 -117.808C-365.555 -101.744 -367.895 -85.4959 -370.258 -69.0864L-370.26 -69.0731L-370.26 -69.0723L-370.267 -69.0204C-370.889 -64.6998 -371.513 -60.368 -372.139 -56.0254C-382.23 -48.1417 -392.336 -40.553 -402.43 -33.2019L-401.723 -36.7054C-401.123 -39.6787 -400.524 -42.6472 -399.927 -45.6108L-398.342 -53.478L-398.272 -53.8226L-398.261 -53.8792L-398.255 -53.9064L-398.229 -54.0394C-395.868 -65.7562 -393.523 -77.3938 -391.182 -88.9449ZM-403.897 -25.9377C-393.666 -33.3262 -383.414 -40.9534 -373.17 -48.8782C-373.938 -43.5565 -374.71 -38.2191 -375.487 -32.8666C-376.953 -22.7591 -378.437 -12.5974 -379.946 -2.38666C-390.633 3.26471 -401.321 8.61265 -411.976 13.7227C-409.241 0.420164 -406.553 -12.8035 -403.897 -25.9377ZM-413.243 19.8678C-402.48 14.753 -391.671 9.39928 -380.853 3.7398C-382.589 15.4396 -384.36 27.2025 -386.174 39.0209C-397.221 42.4433 -408.246 45.5734 -419.209 48.4799C-417.19 38.9058 -415.203 29.3672 -413.243 19.8678ZM-420.367 53.9562C-409.313 51.0564 -398.184 47.9322 -387.02 44.5134C-388.395 53.4122 -389.796 62.3419 -391.228 71.2992C-402.475 72.6385 -413.672 73.7055 -424.776 74.569C-423.288 67.6812 -421.819 60.8099 -420.367 53.9562ZM-425.881 79.6681C-414.693 78.8127 -403.401 77.7542 -392.05 76.4227C-393.129 83.1314 -394.227 89.8552 -395.344 96.5929C-406.678 96.0399 -417.937 95.2394 -429.075 94.2581C-428 89.3871 -426.935 84.5237 -425.881 79.6681ZM-430.165 99.1837C-418.949 100.177 -407.602 100.991 -396.17 101.555C-396.998 106.515 -397.837 111.482 -398.688 116.456C-407.656 114.676 -416.561 112.756 -425.382 110.73C-427.501 109.198 -429.611 107.663 -431.712 106.125C-431.194 103.81 -430.678 101.496 -430.165 99.1837ZM-414.975 118.179C-409.853 119.289 -404.705 120.36 -399.535 121.385C-399.923 123.638 -400.314 125.892 -400.708 128.148C-405.5 124.847 -410.257 121.523 -414.975 118.179ZM-415.96 132.319C-411.417 133.906 -406.85 135.465 -402.262 136.992C-402.371 137.608 -402.481 138.225 -402.59 138.842L-402.799 140.012C-407.212 137.47 -411.6 134.904 -415.96 132.319ZM-174.098 -611.27C-174.047 -612.415 -173.993 -613.554 -173.937 -614.689C-165.818 -620.964 -157.301 -626.797 -148.361 -632.168C-136.864 -637.284 -125.228 -642.337 -113.466 -647.33C-114.461 -646.497 -115.453 -645.664 -116.443 -644.83C-132.994 -636.08 -149.192 -627.229 -164.984 -618.284L-165.122 -618.206L-165.249 -618.111C-168.242 -615.872 -171.191 -613.592 -174.098 -611.27ZM113.718 -738.101L114.855 -738.486L114.326 -738.646L113.718 -738.101ZM122.985 -741.23C138.12 -746.325 153.306 -751.355 168.522 -756.325C176.717 -763.936 184.973 -771.465 193.278 -778.903C172.789 -770.875 152.349 -762.678 132.03 -754.322C127.563 -750.418 123.115 -746.492 118.687 -742.546C120.122 -742.108 121.555 -741.67 122.985 -741.23ZM179.904 -760.029C195.937 -765.229 211.996 -770.363 228.054 -775.434C238.236 -785.102 248.492 -794.616 258.802 -803.963C241.432 -797.477 224.044 -790.864 206.681 -784.129C197.698 -776.201 188.767 -768.164 179.904 -760.029ZM238.984 -778.877C253.475 -783.429 267.962 -787.932 282.424 -792.387C294.01 -803.625 305.671 -814.633 317.376 -825.389C302.136 -819.927 286.845 -814.361 271.531 -808.694C260.62 -798.941 249.762 -788.996 238.984 -778.877ZM292.995 -795.638C306.354 -799.736 319.687 -803.796 332.979 -807.818C338.37 -813.154 343.773 -818.433 349.185 -823.653C356.402 -830.615 363.636 -837.472 370.879 -844.22C357.169 -839.481 343.387 -834.652 329.556 -829.736C328.633 -828.899 327.71 -828.061 326.787 -827.221C315.477 -816.925 304.203 -806.39 292.995 -795.638ZM343.263 -810.926C355.764 -814.697 368.225 -818.437 380.634 -822.146C393.899 -835.524 407.217 -848.523 420.538 -861.104C407.972 -856.901 395.321 -852.618 382.602 -848.256C372.604 -839.066 362.615 -829.66 352.656 -820.054C349.522 -817.031 346.391 -813.988 343.263 -810.926ZM390.686 -825.148C402.527 -828.681 414.317 -832.186 426.044 -835.667C439.746 -849.73 453.483 -863.346 467.196 -876.469C455.513 -872.68 443.733 -868.817 431.871 -864.879C418.135 -852.08 404.388 -838.821 390.686 -825.148ZM435.909 -838.593C447.233 -841.951 458.496 -845.286 469.687 -848.599C483.615 -863.125 497.555 -877.145 511.446 -890.607C500.464 -887.15 489.374 -883.62 478.19 -880.02C464.115 -866.73 450 -852.904 435.909 -838.593ZM479.404 -851.475C490.086 -854.638 500.699 -857.781 511.235 -860.906C525.134 -875.655 539.026 -889.858 552.847 -903.459C542.719 -900.359 532.48 -897.193 522.139 -893.961C507.939 -880.381 493.672 -866.2 479.404 -851.475ZM520.816 -863.75C529.795 -866.417 538.716 -869.07 547.571 -871.712C560.924 -886.34 574.264 -900.435 587.535 -913.947C579.518 -911.553 571.418 -909.113 563.241 -906.628C549.166 -892.958 535.001 -878.646 520.816 -863.75ZM556.917 -874.503C565.134 -876.96 573.293 -879.406 581.389 -881.843C593.938 -896.14 606.479 -909.949 618.963 -923.227C611.88 -921.16 604.722 -919.054 597.492 -916.91C584.033 -903.373 570.487 -889.22 556.917 -874.503ZM-436.379 126.716C-433.84 127.981 -431.291 129.239 -428.732 130.491C-431.232 128.976 -433.721 127.455 -436.199 125.929L-436.379 126.716ZM-440.729 123.314L-440.98 124.412C-444.144 122.819 -447.291 121.218 -450.421 119.608C-447.206 120.853 -443.975 122.089 -440.729 123.314ZM-434.881 120.164C-425.47 123.673 -415.939 127.082 -406.314 130.353C-413.454 125.407 -420.514 120.411 -427.485 115.379C-429.487 114.917 -431.485 114.45 -433.478 113.977C-433.943 116.038 -434.411 118.101 -434.881 120.164ZM-438.341 112.812C-438.73 114.538 -439.122 116.265 -439.515 117.993C-444.326 114.995 -449.095 111.978 -453.819 108.949C-448.697 110.265 -443.536 111.555 -438.341 112.812ZM-435.185 98.7263C-435.494 100.114 -435.803 101.502 -436.113 102.891C-438.32 101.262 -440.517 99.6297 -442.705 97.9952C-440.205 98.247 -437.699 98.4909 -435.185 98.7263ZM-431.081 80.0518C-432.077 84.6289 -433.081 89.2128 -434.095 93.8031C-439.585 93.2916 -445.044 92.7384 -450.467 92.1515C-454.959 88.7444 -459.406 85.3291 -463.802 81.9097C-453.034 81.4338 -442.112 80.8369 -431.081 80.0518ZM-425.776 55.3591C-427.16 61.8776 -428.559 68.4113 -429.976 74.9592C-441.865 75.8198 -453.639 76.4582 -465.247 76.9597C-464.019 72.6208 -462.798 68.2883 -461.585 63.9625C-455.097 62.492 -448.563 60.9725 -441.994 59.3892C-436.611 58.0918 -431.203 56.7513 -425.776 55.3591ZM-418.9 22.5367C-420.78 31.6238 -422.685 40.7452 -424.619 49.8975C-430.825 51.5053 -437.01 53.0448 -443.165 54.5284C-448.822 55.8919 -454.453 57.2078 -460.052 58.4861C-458.194 51.8363 -456.352 45.2027 -454.525 38.5861C-442.748 33.4561 -430.857 28.1371 -418.9 22.5367ZM-409.866 -21.6525C-412.42 -9.03786 -415.005 3.65476 -417.636 16.4165C-429.426 21.9865 -441.167 27.2787 -452.814 32.3824C-450.058 22.3703 -447.333 12.3982 -444.632 2.47013C-433.103 -5.33437 -421.501 -13.3463 -409.866 -21.6525ZM-397.584 -82.5222C-399.428 -73.3995 -401.277 -64.2263 -403.134 -55.0064L-403.167 -54.846C-404.315 -49.1463 -405.467 -43.4288 -406.624 -37.6943C-406.953 -36.062 -407.283 -34.4285 -407.613 -32.7935L-407.924 -31.2525L-408.404 -28.8769C-419.839 -20.6483 -431.253 -12.7102 -442.608 -4.97931C-439.513 -16.3796 -436.447 -27.7205 -433.399 -38.9962L-433.398 -38.9972L-432.809 -41.1781C-431.962 -44.3117 -431.116 -47.4401 -430.271 -50.5634C-419.408 -60.9879 -408.505 -71.617 -397.584 -82.5222ZM-379.577 -169.364C-385.065 -143.883 -390.418 -117.869 -395.782 -91.4167C-406.447 -80.6865 -417.101 -70.2276 -427.725 -59.9724C-421.056 -84.5974 -414.439 -108.889 -407.749 -132.789C-398.393 -144.812 -389.001 -156.99 -379.577 -169.364ZM-347.487 -302.192C-350.041 -293.017 -352.531 -283.735 -354.967 -274.352C-362.789 -244.219 -370.055 -213.016 -377.067 -180.934C-386.124 -168.974 -395.152 -157.202 -404.149 -145.582C-393.317 -183.88 -382.238 -221.137 -370.396 -257.111C-368.29 -263.507 -366.16 -269.863 -364.004 -276.175C-358.537 -284.806 -353.033 -293.476 -347.487 -302.192ZM-322.033 -383.121C-329.422 -362.47 -336.264 -341.077 -342.693 -319.024C-347.411 -311.626 -352.099 -304.262 -356.759 -296.929C-346.485 -325.711 -335.569 -353.548 -323.725 -380.305L-323.215 -381.154L-322.771 -381.894C-322.525 -382.303 -322.279 -382.712 -322.033 -383.121ZM-174.363 -604.624C-174.374 -604.334 -174.384 -604.043 -174.394 -603.752L-174.411 -603.234C-163.219 -611.015 -151.744 -618.763 -140.012 -626.47C-147.553 -622.338 -155.012 -618.185 -162.381 -614.012C-166.456 -610.962 -170.449 -607.832 -174.363 -604.624ZM111.974 -744.583L113.085 -744.247C114.646 -745.642 116.209 -747.035 117.775 -748.426C115.179 -747.346 112.587 -746.264 109.996 -745.179C110.656 -744.98 111.315 -744.782 111.974 -744.583ZM129.362 -758.631C120.367 -754.93 111.394 -751.197 102.452 -747.434C98.0019 -748.756 93.5286 -750.07 89.0319 -751.374C113.407 -763.629 138.08 -775.598 162.897 -787.234C151.624 -777.844 140.437 -768.304 129.362 -758.631ZM204.042 -788.468C183.915 -780.656 163.821 -772.679 143.827 -764.548C156.078 -775.079 168.457 -785.443 180.927 -795.617C202.896 -805.748 224.948 -815.609 246.979 -825.169C232.573 -813.234 218.242 -800.987 204.042 -788.468ZM268.907 -813.055C251.829 -806.731 234.724 -800.283 217.632 -793.716C232.831 -806.917 248.165 -819.798 263.57 -832.313C281.511 -839.98 299.42 -847.44 317.239 -854.677C310.707 -849.256 304.18 -843.757 297.663 -838.185C288.05 -829.965 278.459 -821.584 268.907 -813.055ZM326.94 -834.113C311.945 -828.779 296.891 -823.344 281.807 -817.809C288.162 -823.403 294.532 -828.929 300.913 -834.385C311.485 -843.425 322.085 -852.27 332.689 -860.904C347.959 -867.013 363.151 -872.952 378.229 -878.712C361.121 -864.442 343.992 -849.551 326.94 -834.113ZM379.99 -852.646C366.489 -848.013 352.912 -843.291 339.281 -838.483C357.075 -854.368 374.929 -869.638 392.731 -884.209C406.125 -889.247 419.418 -894.138 432.585 -898.875C415.096 -884.184 397.527 -868.745 379.99 -852.646ZM429.261 -869.281C416.878 -865.168 404.407 -860.976 391.864 -856.705C410.032 -873.152 428.208 -888.869 446.27 -903.758C458.28 -908.009 470.175 -912.126 481.937 -916.105C464.47 -901.31 446.873 -885.67 429.261 -869.281ZM475.581 -884.433C464.061 -880.722 452.441 -876.937 440.737 -873.079C458.871 -889.722 476.965 -905.546 494.89 -920.449C505.84 -924.088 516.664 -927.603 527.348 -930.988C510.226 -916.342 492.931 -900.792 475.581 -884.433ZM519.531 -898.384C508.697 -894.996 497.752 -891.535 486.711 -888.005C504.475 -904.524 522.156 -920.17 539.626 -934.84C549.733 -937.98 559.706 -940.999 569.529 -943.893C553.026 -929.619 536.323 -914.418 519.531 -898.384ZM560.628 -911.06C550.647 -908.025 540.552 -904.924 530.354 -901.757C547.448 -917.855 564.425 -933.063 581.167 -947.283C590.206 -949.887 599.11 -952.38 607.868 -954.759C592.296 -941.06 576.517 -926.466 560.628 -911.06ZM594.848 -921.341C587.028 -919.02 579.125 -916.655 571.145 -914.246C587.215 -929.616 603.151 -944.131 618.851 -957.704C625.221 -959.389 631.509 -961.011 637.709 -962.569C623.567 -949.57 609.255 -935.806 594.848 -921.341ZM625.763 -930.413C618.885 -928.418 611.932 -926.385 604.909 -924.316C649.569 -968.586 693.154 -1005.93 733.406 -1034.42C742.762 -1041.05 751.932 -1047.18 760.887 -1052.82C718.523 -1021.16 672.612 -979.599 625.763 -930.413ZM-387.101 -248.974C-373.509 -281.703 -359.295 -313.65 -344.089 -344.721C-352.683 -323.171 -360.79 -301.025 -368.544 -278.351C-374.777 -268.511 -380.961 -258.721 -387.101 -248.974ZM-398.015 -222.211C-390.483 -234.225 -382.889 -246.293 -375.225 -258.432C-388.282 -218.748 -400.412 -177.518 -412.297 -135.089C-424.175 -119.833 -435.999 -104.823 -447.763 -89.9716C-431.52 -135.167 -415.207 -179.314 -398.015 -222.211ZM-453.03 -75.2757C-440.697 -90.8069 -428.293 -106.495 -415.825 -122.437C-422.141 -99.6841 -428.408 -76.5995 -434.728 -53.2364C-447.911 -40.5998 -461.039 -28.2548 -474.073 -16.0719L-472.186 -21.392L-472.095 -21.649C-469.27 -29.6179 -466.455 -37.5589 -463.645 -45.4705C-460.101 -55.4528 -456.565 -65.3886 -453.03 -75.2757ZM-477.713 -5.80753C-464.329 -18.2952 -450.829 -30.9396 -437.258 -43.8805L-437.635 -42.483L-438.213 -40.3455L-438.218 -40.3274L-438.247 -40.2219L-438.267 -40.1485C-441.802 -27.0708 -445.36 -13.9089 -448.959 -0.671704C-462.42 8.42281 -475.788 17.2472 -489.002 25.9417C-485.211 15.3132 -481.451 4.7292 -477.713 -5.80753ZM-491.809 33.8019C-478.359 24.9597 -464.727 15.9925 -450.98 6.75186C-453.532 16.1165 -456.106 25.518 -458.709 34.9534C-472.037 40.7402 -485.246 46.305 -498.253 51.7789C-496.093 45.7731 -493.946 39.7805 -491.809 33.8019ZM-495.867 56.2004C-484.222 51.3 -472.392 46.3143 -460.419 41.1427C-462.131 47.3285 -463.856 53.5285 -465.595 59.742C-472.466 61.2874 -479.288 62.7806 -486.049 64.24C-489.356 61.5575 -492.629 58.877 -495.867 56.2004ZM-481.052 68.2741C-476.438 67.2723 -471.796 66.2526 -467.128 65.2097C-468.208 69.054 -469.294 72.9034 -470.386 76.7576C-473.977 73.9303 -477.533 71.1017 -481.052 68.2741ZM-492.843 82.9606C-485.957 82.7556 -478.987 82.5247 -471.946 82.2487C-472.622 84.6269 -473.301 87.0069 -473.983 89.3886C-477.908 88.8943 -481.809 88.388 -485.684 87.8728C-488.086 86.2357 -490.472 84.598 -492.843 82.9606ZM-467.61 85.2819C-468.06 86.858 -468.51 88.435 -468.961 90.0128C-466.03 90.3721 -463.086 90.724 -460.129 91.0671C-462.639 89.1404 -465.132 87.2117 -467.61 85.2819ZM-476.428 94.1272C-476.079 94.1715 -475.73 94.2158 -475.38 94.26L-475.517 94.737C-475.821 94.5337 -476.125 94.3304 -476.428 94.1272ZM-471.017 97.1779L-471.151 97.6446C-469.844 98.5116 -468.532 99.378 -467.217 100.244C-457.597 102.838 -447.824 105.36 -437.929 107.764C-442.793 104.182 -447.609 100.585 -452.374 96.9792C-458.42 96.3187 -464.417 95.6174 -470.358 94.8864L-470.523 95.4598L-470.896 96.7586L-471.017 97.1779ZM-482.622 101.194C-481.01 101.647 -479.393 102.098 -477.77 102.547L-477.945 103.15C-479.509 102.499 -481.068 101.847 -482.622 101.194ZM-472.949 103.874L-473.297 105.074C-469.505 106.635 -465.685 108.187 -461.839 109.729C-464.334 108.112 -466.815 106.493 -469.283 104.871C-470.507 104.539 -471.73 104.207 -472.949 103.874ZM-179.692 -592.641L-180.225 -592.2C-180.047 -592.366 -179.869 -592.531 -179.691 -592.697L-179.692 -592.641ZM-174.598 -596.836L-174.593 -597.012C-174.115 -597.346 -173.637 -597.68 -173.158 -598.014C-173.639 -597.621 -174.118 -597.229 -174.598 -596.836ZM-90.7648 -651.817C-99.5619 -646.411 -108.246 -640.98 -116.808 -635.525C-124.524 -629.791 -132.122 -624.038 -139.591 -618.273C-151.732 -607.546 -163.483 -596.787 -174.797 -586.018C-174.871 -579.883 -174.882 -573.625 -174.834 -567.248C-149.33 -595.547 -121.077 -623.871 -90.7648 -651.817ZM93.9229 -759.417C121.744 -773.308 149.931 -786.823 178.258 -799.893C200.095 -817.696 222.208 -834.915 244.415 -851.424C235.023 -846.853 225.624 -842.208 216.228 -837.494C193.755 -826.217 171.303 -814.544 149 -802.529C130.412 -788.507 112.017 -774.114 93.9229 -759.417ZM196.653 -808.308C218.069 -818.023 239.538 -827.476 260.961 -836.636C264.608 -839.596 268.258 -842.536 271.911 -845.454C292.634 -862.008 313.453 -877.883 334.208 -892.962C312.635 -883.507 290.861 -873.579 269.005 -863.23C262.381 -858.455 255.759 -853.613 249.145 -848.708C231.559 -835.666 214.031 -822.179 196.653 -808.308ZM277.867 -843.807C295.35 -851.165 312.786 -858.323 330.123 -865.263C355.114 -885.592 380.137 -904.755 404.9 -922.533C388.749 -916.109 372.399 -909.371 355.907 -902.342C329.973 -884.067 303.854 -864.481 277.867 -843.807ZM345.85 -871.51C360.731 -877.375 375.525 -883.074 390.2 -888.599C414.809 -908.72 439.324 -927.513 463.451 -944.751C450.579 -940.112 437.526 -935.238 424.323 -930.144C398.424 -912.113 372.152 -892.484 345.85 -871.51ZM404.949 -894.107C418.002 -898.942 430.95 -903.635 443.769 -908.176C467.309 -927.557 490.661 -945.543 513.551 -961.915C502.846 -958.448 491.974 -954.791 480.954 -950.954C456.008 -933.672 430.56 -914.637 404.949 -894.107ZM457.673 -913.061C469.378 -917.138 480.965 -921.084 492.418 -924.895C514.388 -943.136 536.111 -960.002 557.353 -975.301C548.173 -972.673 538.834 -969.881 529.352 -966.931C505.92 -950.674 481.925 -932.637 457.673 -913.061ZM505.563 -929.23C516.234 -932.715 526.778 -936.079 537.181 -939.315C557.197 -956.095 576.944 -971.603 596.234 -985.683C588.173 -983.697 579.958 -981.562 571.599 -979.284C550.065 -964.221 527.968 -947.468 505.563 -929.23ZM549.623 -943.146C559.472 -946.147 569.186 -949.03 578.749 -951.79C609.745 -978.07 639.956 -1000.99 668.639 -1019.92C691.724 -1035.16 713.851 -1047.84 734.63 -1057.62C733.793 -1057.67 732.95 -1057.71 732.102 -1057.74C705.112 -1047.67 675.262 -1032.16 643.519 -1011.98C635.726 -1007.02 627.823 -1001.78 619.823 -996.282C621.999 -996.752 624.163 -997.211 626.314 -997.658L627.331 -992.762C621.337 -991.518 615.238 -990.177 609.04 -988.743C589.683 -974.996 569.811 -959.743 549.623 -943.146ZM590.521 -955.147C599.304 -957.621 607.953 -959.987 616.455 -962.242C644.279 -986.249 671.379 -1007.32 697.192 -1024.98C718.675 -1039.68 739.297 -1052.03 758.73 -1061.74C758.175 -1061.79 757.617 -1061.83 757.057 -1061.87C730.965 -1051.64 702.106 -1036.03 671.394 -1015.75C645.526 -998.675 618.384 -978.32 590.521 -955.147ZM643.818 -969.239L644.038 -968.345C673.912 -995.418 702.975 -1019.01 730.518 -1038.5C736.505 -1042.74 742.424 -1046.79 748.265 -1050.64C732.856 -1042.25 716.721 -1032.28 700.015 -1020.85C676.786 -1004.96 652.488 -986.274 627.539 -965.14C633.031 -966.555 638.459 -967.922 643.818 -969.239ZM-510.101 84.4889C-505.673 85.1231 -501.202 85.7548 -496.691 86.3788C-498.222 85.3192 -499.747 84.2598 -501.264 83.2008C-504.096 83.2785 -506.913 83.3531 -509.713 83.4259L-510.101 84.4889ZM-515.086 83.5645L-515.158 83.7611L-515.762 83.6737L-515.913 83.5856L-515.086 83.5645ZM-512.155 75.5225C-512.517 76.5161 -512.879 77.5099 -513.241 78.5041L-516.345 78.584L-517.165 78.605L-517.24 78.607L-517.245 78.6073L-517.264 78.6078L-517.447 78.6125L-518.492 78.6393L-519.973 78.6774L-521.056 78.7053C-522.064 78.7313 -523.07 78.7574 -524.074 78.7835C-524.613 78.4642 -525.151 78.145 -525.689 77.8259C-521.679 76.96 -517.636 76.0949 -513.561 75.2262L-512.799 75.0638L-512.155 75.5225ZM-506.155 73.6503L-506.155 73.6499L-505.669 73.5464L-505.598 73.5314C-499.572 72.2498 -493.481 70.9545 -487.335 69.6321C-484.114 72.2362 -480.86 74.8417 -477.577 77.447C-485.058 77.7173 -492.46 77.9422 -499.768 78.1456C-501.911 76.6462 -504.041 75.1475 -506.155 73.6503ZM-504.147 68.1108C-503.005 64.9581 -501.867 61.809 -500.733 58.6634C-497.953 60.9686 -495.147 63.277 -492.316 65.5874C-496.282 66.437 -500.226 67.277 -504.147 68.1108ZM-506.824 60.8132C-507.85 63.6515 -508.878 66.4926 -509.909 69.3364L-511.686 69.7146C-513.698 68.2753 -515.697 66.8377 -517.682 65.4024C-514.084 63.8759 -510.464 62.3472 -506.824 60.8132ZM-498.753 38.3679C-500.169 42.3226 -501.59 46.283 -503.017 50.2491C-505.045 48.5486 -507.059 46.8504 -509.058 45.1549C-505.637 42.8975 -502.201 40.636 -498.753 38.3679ZM-485.643 1.58812C-489.054 11.1909 -492.483 20.8306 -495.94 30.5053C-501.672 34.2749 -507.373 38.0246 -513.037 41.7658C-515.768 39.4308 -518.469 37.1018 -521.139 34.78C-510.315 24.5861 -499.377 14.3898 -488.351 4.11164L-488.345 4.10598L-488.343 4.10463L-488.269 4.03513L-488.238 4.00631L-488.226 3.99573L-488.222 3.99222L-488.222 3.99192L-485.643 1.58812ZM-462.663 -63.1568C-464.559 -57.8321 -466.457 -52.4942 -468.357 -47.1437C-471.198 -39.144 -474.044 -31.1161 -476.9 -23.0607C-478.598 -18.272 -480.299 -13.4736 -482.004 -8.66575C-485.112 -5.7662 -488.214 -2.87437 -491.31 0.0114219L-491.31 0.0119716L-491.32 0.0212297L-491.342 0.0413211C-502.634 10.5678 -513.84 21.0147 -524.934 31.4681C-526.288 30.2817 -527.634 29.0974 -528.971 27.9155C-526.552 22.6528 -524.138 17.4009 -521.729 12.1595L-521.729 12.1577L-520.71 9.9406C-506.025 -8.69482 -491.218 -27.2909 -476.299 -46.0266L-476.297 -46.0288L-476.296 -46.0305L-476.296 -46.0309L-476.032 -46.3615L-475.728 -46.7436L-475.36 -47.2061L-475.334 -47.2386C-471.119 -52.5319 -466.895 -57.8365 -462.663 -63.1568ZM-412.588 -198.916C-427.946 -159.455 -442.701 -119.011 -457.454 -77.7548C-464.985 -68.2724 -472.491 -58.8458 -479.971 -49.4523L-479.974 -49.4495C-490.648 -36.0437 -501.27 -22.7049 -511.834 -9.36708C-493.45 -49.3398 -475.263 -88.7093 -456.782 -127.57C-442.222 -151.258 -427.516 -174.997 -412.588 -198.916ZM-374.813 -290.407C-381.725 -274.743 -388.452 -258.889 -395.037 -242.857C-397.541 -236.76 -400.024 -230.636 -402.49 -224.488C-413.789 -206.466 -424.951 -188.566 -436.007 -170.737C-416.322 -211.113 -396.113 -250.967 -374.813 -290.407ZM68.4417 -757.23C72.1564 -756.195 75.855 -755.152 79.5376 -754.103C92.9959 -765.205 106.632 -776.143 120.403 -786.889C102.934 -777.191 85.5921 -767.295 68.4417 -757.23ZM146.294 -806.75C117.777 -791.382 89.5004 -775.455 61.7346 -759.085C57.9175 -760.134 54.0832 -761.175 50.2315 -762.206C54.3543 -765.303 58.4926 -768.385 62.6453 -771.454C107.073 -800.794 152.924 -828.755 198.944 -854.683C223.46 -868.496 248.017 -881.728 272.425 -894.28C255.1 -883.271 237.741 -871.826 220.429 -859.996C195.548 -842.995 170.756 -825.196 146.294 -806.75ZM266.453 -867.553C248.992 -859.281 231.482 -850.742 213.986 -841.963C201.272 -835.583 188.564 -829.076 175.884 -822.452C191.592 -833.887 207.402 -845.039 223.249 -855.868C256.501 -878.588 289.911 -899.879 322.907 -919.373C348.593 -931.693 373.96 -943.163 398.778 -953.667C355.494 -928.608 310.898 -899.57 266.453 -867.553ZM353.46 -906.734C333.088 -898.046 312.503 -888.917 291.808 -879.394C340.966 -913.656 389.977 -944.036 436.848 -969.185C450.063 -974.359 463.078 -979.226 475.857 -983.767C436.38 -962.077 395.148 -936.088 353.46 -906.734ZM421.961 -934.592C406.745 -928.715 391.335 -922.548 375.776 -916.11C419.856 -946.138 463.163 -972.175 504.122 -993.099C504.666 -993.377 505.209 -993.654 505.752 -993.93C513.921 -996.577 521.973 -999.075 529.899 -1001.42L529.641 -1001.28C495.148 -982.778 458.924 -960.301 421.961 -934.592ZM478.667 -955.452C466.569 -951.233 454.297 -946.798 441.877 -942.159C472.772 -962.937 503.014 -981.323 532.005 -996.874C539.314 -1000.8 546.541 -1004.53 553.674 -1008.08C559.523 -1009.63 565.291 -1011.08 570.974 -1012.44C566.493 -1010.04 561.98 -1007.56 557.437 -1005.01C532.033 -990.74 505.636 -974.112 478.667 -955.452ZM527.133 -971.477C517.09 -968.347 506.888 -965.043 496.546 -961.571C518.173 -976.037 539.361 -989.121 559.886 -1000.65C570.115 -1006.4 580.17 -1011.75 590.024 -1016.69C594.773 -1017.68 599.455 -1018.59 604.065 -1019.42C597.857 -1016.02 591.578 -1012.46 585.235 -1008.74C566.383 -997.677 546.955 -985.209 527.133 -971.477ZM569.446 -983.879C560.841 -981.526 552.087 -979.023 543.198 -976.374C558.348 -986.526 573.232 -995.898 587.766 -1004.43C622.317 -1024.7 654.836 -1040.16 684.194 -1049.95L684.359 -1049.96C661.914 -1040.35 637.989 -1027.72 613.035 -1012.47C598.821 -1003.78 584.264 -994.224 569.446 -983.879ZM606.951 -993.391C599.392 -991.634 591.688 -989.739 583.851 -987.712C594.616 -994.992 605.224 -1001.83 615.643 -1008.2C648.634 -1028.37 679.677 -1043.82 707.733 -1053.75C708.241 -1053.74 708.748 -1053.74 709.252 -1053.72C687.713 -1044.04 664.769 -1031.41 640.836 -1016.2C629.746 -1009.14 618.437 -1001.53 606.951 -993.391ZM-574.103 78.9319C-560.843 61.3962 -547.468 44.081 -533.984 26.8453C-537.004 33.4143 -540.034 39.9994 -543.074 46.6011C-543.421 46.3381 -543.767 46.0751 -544.113 45.8123L-547.138 49.7938C-546.6 50.2026 -546.06 50.6117 -545.519 51.0212C-555.153 60.2587 -564.687 69.5427 -574.103 78.9319ZM-541.129 54.3325C-542.512 57.3339 -543.898 60.3388 -545.287 63.3474C-542.464 61.4234 -539.628 59.5031 -536.782 57.5848C-538.24 56.4983 -539.689 55.4142 -541.129 54.3325ZM-531.152 32.6594C-532.423 35.4226 -533.696 38.1888 -534.97 40.958C-532.847 38.9425 -530.719 36.9283 -528.587 34.9146C-529.446 34.162 -530.301 33.4102 -531.152 32.6594ZM-552.953 67.1479L-552.639 67.3415L-553.348 68.8763L-553.931 69.2788L-554.96 68.7948L-556.132 68.243C-555.491 67.6185 -554.851 66.9945 -554.209 66.3707C-553.791 66.6295 -553.372 66.8885 -552.953 67.1479ZM375.108 -948.894C395.331 -957.794 415.251 -966.094 434.746 -973.732C448.033 -980.857 461.151 -987.564 474.055 -993.823C492.702 -1002.87 510.919 -1010.98 528.566 -1018.08C503.068 -1009.25 476.191 -998.327 448.35 -985.55C424.537 -974.621 400.036 -962.347 375.108 -948.894ZM475.338 -988.887C484.974 -992.301 494.479 -995.529 503.834 -998.564C523.587 -1008.59 542.82 -1017.45 561.354 -1025C534.541 -1015.76 505.986 -1003.75 476.237 -989.324C475.937 -989.179 475.638 -989.033 475.338 -988.887ZM535.056 -1008.13C540.739 -1009.76 546.355 -1011.32 551.9 -1012.79C566.014 -1019.8 579.8 -1026.09 593.184 -1031.61C574.678 -1025.28 555.235 -1017.41 535.056 -1008.13ZM576.166 -1018.79C580.278 -1019.73 584.346 -1020.62 588.365 -1021.45C600.63 -1027.59 612.615 -1033.11 624.268 -1037.97C608.914 -1032.77 592.837 -1026.35 576.166 -1018.79ZM609.837 -1025.5L610.292 -1022.79C625.621 -1030.97 640.499 -1038.12 654.817 -1044.16C639.75 -1039.11 623.908 -1032.72 607.428 -1025.09C608.233 -1025.23 609.036 -1025.37 609.837 -1025.5ZM196.489 -859.039C238.005 -882.43 279.667 -904.174 320.551 -923.789C363.559 -949.191 405.884 -971.562 446.264 -990.094C462.665 -997.621 478.753 -1004.52 494.444 -1010.73C404.784 -979.673 300.53 -927.404 197.345 -863.026C179.22 -851.717 161.132 -840.038 143.169 -828.039C160.871 -838.653 178.669 -848.999 196.489 -859.039ZM-564.636 76.5863L-564.441 76.6134L-564.347 76.5469L-564.536 76.4879L-564.636 76.5863ZM-560.495 72.5108L-559.178 72.9217L-558.676 72.5715L-559.313 72.2708L-559.946 71.9722L-560.495 72.5108ZM-537.807 50.5746C-536.012 51.9219 -534.203 53.2728 -532.381 54.6269C-527.411 51.2949 -522.408 47.9668 -517.375 44.6343C-519.873 42.493 -522.347 40.3569 -524.795 38.227C-529.152 42.3401 -533.49 46.4541 -537.807 50.5746ZM-546.907 72.5696L-547.645 72.225L-548.68 71.7413C-548.414 71.5585 -548.149 71.3758 -547.883 71.1931L-547.171 70.7048C-546.545 71.0882 -545.918 71.4721 -545.288 71.8563L-545.887 72.1198C-546.227 72.2697 -546.567 72.4196 -546.907 72.5696ZM-539.696 69.4086C-540.683 68.8086 -541.666 68.2093 -542.646 67.6111C-539.286 65.3218 -535.907 63.037 -532.511 60.7539C-530.935 61.9193 -529.348 63.087 -527.752 64.2567C-531.761 65.9716 -535.743 67.6875 -539.696 69.4086ZM-522.401 61.9745C-524.315 60.5789 -526.214 59.1857 -528.1 57.7956C-523.234 54.5397 -518.333 51.2854 -513.403 48.0248C-510.759 50.2728 -508.088 52.5259 -505.391 54.7828C-511.106 57.1893 -516.778 59.5828 -522.401 61.9745ZM-540.871 75.3765L-539.914 75.8197L-539.073 75.6332C-539.407 75.4313 -539.741 75.2295 -540.074 75.0278L-540.871 75.3765ZM-534.452 72.5821C-533.628 73.0786 -532.802 73.5756 -531.973 74.0731C-527.455 73.088 -522.895 72.1072 -518.297 71.1245C-519.891 69.9768 -521.476 68.8305 -523.052 67.6859C-526.878 69.3174 -530.678 70.9481 -534.452 72.5821ZM744.181 -1061.95C743.72 -1061.75 743.258 -1061.54 742.795 -1061.34L742.816 -1061.5C743.071 -1061.59 743.325 -1061.67 743.579 -1061.75L743.87 -1061.85L744.181 -1061.95ZM-112.887 85.5398C-114.651 64.8879 -116.521 44.3884 -118.47 24.0673C-108.592 15.5577 -99.024 6.1969 -89.8155 -4.08743C-44.9664 -54.1758 -8.76482 -126.027 13.3551 -227.777C52.487 -381.236 150.778 -545.891 267.053 -688.387C275.099 -685.646 283.084 -682.932 291.013 -680.254C172.668 -527.638 73.5134 -350.325 38.8491 -185.447L38.8422 -185.413L38.836 -185.38C19.358 -78.3947 -16.3867 -5.40208 -61.7832 43.0956C-77.6999 60.0997 -94.8246 74.1158 -112.887 85.5398ZM-482.608 95.9988C-488.526 94.3326 -494.376 92.6473 -500.151 90.9544C-495.971 91.5377 -491.755 92.1152 -487.505 92.6829C-485.88 93.7885 -484.247 94.8939 -482.608 95.9988ZM-112.412 91.1404C-110.869 109.433 -109.41 127.843 -108.057 146.353C-79.7948 134.752 -53.4832 117.601 -30.0256 93.6147C16.6234 45.915 52.2249 -29.0603 69.1975 -141.886L69.201 -141.91L69.2051 -141.934C99.1759 -317.911 199.256 -507.938 319.808 -670.63C311.934 -673.228 304.009 -675.876 296.03 -678.562C177.535 -526.051 78.3229 -348.859 43.7491 -184.451C24.1529 -76.8422 -11.902 -2.87666 -58.1329 46.5126C-75.0017 64.5338 -93.2019 79.2579 -112.412 91.1404ZM-104.488 199.503C-105.464 183.469 -106.531 167.496 -107.676 151.595C-78.2691 139.756 -50.8533 122.063 -26.4509 97.1107C21.1635 48.4239 57.0666 -27.657 74.1381 -141.117C104.024 -316.563 204.135 -506.424 324.811 -668.983C332.701 -666.393 340.541 -663.855 348.336 -661.379C225.994 -488.844 125.413 -286.482 100.314 -99.7558L100.312 -99.7406L100.311 -99.7253C85.8438 18.9465 50.3809 95.9031 2.48102 142.808C-28.5439 173.188 -64.9183 191.089 -104.488 199.503ZM-104.183 204.548C-63.5368 196.032 -26.0198 177.714 5.97926 146.38C54.9788 98.3987 90.7257 20.2006 105.272 -99.1055C130.297 -285.254 230.892 -487.414 353.343 -659.795C360.973 -657.392 368.561 -655.05 376.112 -652.779C254.481 -472.117 156.049 -260.708 136.199 -66.0519L136.198 -66.0446L136.197 -66.0373C124.237 58.4867 88.9085 137.423 39.7592 183.535C0.119782 220.726 -48.772 236.807 -102.327 238.013C-102.899 226.832 -103.519 215.675 -104.183 204.548ZM-101.104 263.632C-101.409 256.749 -101.733 249.873 -102.075 243.007C-47.6216 241.753 2.47697 225.37 43.1803 187.182C93.5656 139.91 129.151 59.5948 141.173 -65.5478C160.963 -259.601 259.401 -470.782 381.13 -651.278C388.813 -648.995 396.458 -646.787 404.07 -644.666C284.462 -456.91 189.531 -238.4 174.961 -37.4572C165.507 92.9239 130.31 173.838 79.912 219.162C31.3164 262.865 -31.8802 273.886 -101.104 263.632Z" fill="url(#paint0_linear_44_499)"/>
<defs>
<linearGradient id="paint0_linear_44_499" x1="1632" y1="-2225" x2="-473.006" y2="95.6453" gradientUnits="userSpaceOnUse">
<stop stop-color="#21BF73"/>
<stop offset="1" stop-color="#B0EACD"/>
</linearGradient>
</defs>
</svg>
