<svg width="30" height="30" viewBox="0 0 30 30" fill="none" xmlns="http://www.w3.org/2000/svg">
<circle cx="15" cy="15" r="15" fill="#22B98A" fill-opacity="0.12"/>
<path d="M19.8131 14.22L18.1331 15.282L14.7371 11.886L15.7931 10.206C16.2851 9.43198 17.2691 9.39598 17.9951 10.116L19.9031 12.024C20.5811 12.702 20.5391 13.758 19.8131 14.22Z" fill="#20B486"/>
<path opacity="0.4" d="M16.627 19.77L11.401 20.388C11.041 20.43 10.717 20.376 10.447 20.244C10.153 20.1 9.92496 19.872 9.78096 19.578C9.64896 19.308 9.60096 18.984 9.63696 18.63L10.261 13.398C10.411 12.09 10.897 11.664 12.277 11.742L14.749 11.892L18.145 15.288L18.289 17.76C18.415 19.14 17.941 19.62 16.627 19.77Z" fill="#20B486"/>
<path d="M12.5882 18.09L10.4402 20.238C10.1462 20.094 9.91822 19.866 9.77422 19.572L11.9282 17.418C12.1142 17.238 12.4142 17.238 12.5942 17.418C12.7802 17.61 12.7802 17.904 12.5882 18.09Z" fill="#20B486"/>
</svg>
