<svg width="16" height="14" viewBox="0 0 16 14" fill="none" xmlns="http://www.w3.org/2000/svg">
<path d="M14.3438 3.75049C14.9688 3.28174 15.5312 2.71924 15.9688 2.06299C15.4062 2.31299 14.75 2.50049 14.0938 2.56299C14.7812 2.15674 15.2812 1.53174 15.5312 0.750488C14.9062 1.12549 14.1875 1.40674 13.4688 1.56299C12.8438 0.906738 12 0.531738 11.0625 0.531738C9.25 0.531738 7.78125 2.00049 7.78125 3.81299C7.78125 4.06299 7.8125 4.31299 7.875 4.56299C5.15625 4.40674 2.71875 3.09424 1.09375 1.12549C0.8125 1.59424 0.65625 2.15674 0.65625 2.78174C0.65625 3.90674 1.21875 4.90674 2.125 5.50049C1.59375 5.46924 1.0625 5.34424 0.625 5.09424V5.12549C0.625 6.71924 1.75 8.03174 3.25 8.34424C3 8.40674 2.6875 8.46924 2.40625 8.46924C2.1875 8.46924 2 8.43799 1.78125 8.40674C2.1875 9.71924 3.40625 10.6567 4.84375 10.688C3.71875 11.563 2.3125 12.0942 0.78125 12.0942C0.5 12.0942 0.25 12.063 0 12.0317C1.4375 12.9692 3.15625 13.5005 5.03125 13.5005C11.0625 13.5005 14.3438 8.53174 14.3438 4.18799C14.3438 4.03174 14.3438 3.90674 14.3438 3.75049Z" fill="white"/>
</svg>
