<svg width="34" height="15" viewBox="0 0 34 15" fill="none" xmlns="http://www.w3.org/2000/svg">
<g clip-path="url(#clip0_33588_38)">
<path fill-rule="evenodd" clip-rule="evenodd" d="M2.77667 8.35205C1.8619 8.35205 0.801429 8.78602 0.226667 9.23607L0.752857 10.329C1.21429 9.91114 1.95905 9.55753 2.63095 9.55753C3.27048 9.55753 3.61857 9.76649 3.61857 10.1924C3.61857 10.4817 3.38381 10.6264 2.94667 10.6827C1.29524 10.8916 0 11.3417 0 12.6034C0 13.5999 0.720476 14.2107 1.83762 14.2107C2.63905 14.2107 3.35143 13.7687 3.69143 13.1901V14.05H5.18095V10.4416C5.18095 8.95479 4.13667 8.35205 2.77667 8.35205ZM2.2181 13.0534C1.79714 13.0534 1.58667 12.8525 1.58667 12.515C1.58667 11.8881 2.29095 11.6792 3.5781 11.5426C3.58619 12.3784 3.01143 13.0534 2.2181 13.0534V13.0534Z" fill="black"/>
<path fill-rule="evenodd" clip-rule="evenodd" d="M19.2262 9.44502V8.51278H17.7366V14.05H19.3314V11.3818C19.3314 10.1121 20.1004 9.74238 20.6428 9.74238C20.8533 9.74238 21.1366 9.80667 21.3228 9.94329L21.6143 8.48064C21.3714 8.37616 21.1123 8.35205 20.9019 8.35205C20.0843 8.35205 19.5662 8.7137 19.2262 9.44502Z" fill="black"/>
<path fill-rule="evenodd" clip-rule="evenodd" d="M29.0133 8.35205C28.1714 8.35205 27.54 8.85032 27.2081 9.32447C26.9005 8.70566 26.261 8.35205 25.4838 8.35205C24.6419 8.35205 24.0591 8.81817 23.7838 9.34858V8.51278H22.2457V14.05H23.8405V11.197C23.8405 10.1763 24.3829 9.68612 24.8848 9.68612C25.3381 9.68612 25.7591 9.97544 25.7591 10.7309V14.05H27.3619V11.197C27.3619 10.1603 27.8881 9.68612 28.4143 9.68612C28.8353 9.68612 29.2805 9.99151 29.2805 10.7228V14.05H30.8753V10.2246C30.8753 8.9789 30.0333 8.35205 29.0133 8.35205V8.35205Z" fill="black"/>
<path fill-rule="evenodd" clip-rule="evenodd" d="M10.8152 8.10284V8.51271H8.39476V7.95015C8.39476 7.21882 8.81571 7.00987 9.17999 7.00987C9.39047 7.00987 9.66571 7.05809 9.89237 7.18667L10.3862 6.06959C10.0948 5.90082 9.61714 5.74813 8.97761 5.74813C7.95761 5.74813 6.79999 6.31873 6.79999 8.11088V8.52074H5.87714V9.7423H6.79999V14.0499H8.39476V9.73426H10.8152V14.0499H12.41V9.73426H13.859V8.51271H12.41V7.95015C12.41 7.21882 12.8309 7.00987 13.1952 7.00987C13.6 7.00987 13.9076 7.18667 13.9076 7.18667L14.4014 6.06959C14.4014 6.06959 13.8995 5.74813 12.9929 5.74813C11.9809 5.74009 10.8152 6.31069 10.8152 8.10284V8.10284Z" fill="black"/>
<path fill-rule="evenodd" clip-rule="evenodd" d="M14.8062 8.5127H16.401V14.0499H14.8062V8.5127Z" fill="black"/>
<path fill-rule="evenodd" clip-rule="evenodd" d="M24.0995 0.789551C19.7929 0.789551 15.9557 3.75504 14.871 7.57241H16.4334C17.34 4.72746 20.4243 2.23613 24.0995 2.23613C28.5681 2.23613 32.4214 5.61149 32.4214 10.8674C32.4214 12.0488 32.2676 13.1096 31.9762 14.0499H33.49L33.5062 14.0017C33.7572 13.0292 33.8786 11.9764 33.8786 10.8674C33.8786 5.00874 29.58 0.789551 24.0995 0.789551Z" fill="#4A4AF4"/>
</g>
<defs>
<clipPath id="clip0_33588_38">
<rect width="34" height="13.4211" fill="white" transform="translate(0 0.789551)"/>
</clipPath>
</defs>
</svg>
