<svg width="36" height="10" viewBox="0 0 36 10" fill="none" xmlns="http://www.w3.org/2000/svg">
<path fill-rule="evenodd" clip-rule="evenodd" d="M22.7198 8.94943C22.4911 9.45569 23.0482 9.12536 23.1164 9.06756C23.8678 8.43777 24.4206 6.54771 24.0806 6.25867C23.6514 5.8953 21.6606 5.89854 20.7782 6.49493C20.4095 6.74483 20.6162 6.7933 21.005 6.7714C21.6854 6.73154 22.2964 6.69025 22.8191 6.73154C23.3149 6.7714 23.3428 6.99509 23.2157 7.47946C23.068 8.04281 22.9749 8.38571 22.7198 8.94943Z" fill="#FBAF29"/>
<path fill-rule="evenodd" clip-rule="evenodd" d="M21.904 7.42717C16.7674 9.36966 10.8406 9.10001 5.96572 6.71948C5.89826 6.6868 5.65943 6.56006 5.38727 6.43367C5.17442 6.33565 5.1341 6.36796 5.0996 6.40279C5.05191 6.45054 5.07013 6.53708 5.14574 6.60027C8.00849 8.98906 11.4505 10.1377 15.2084 9.98687C18.0766 9.87126 20.7498 8.89714 22.2804 7.86019C22.5065 7.70688 22.5871 7.50796 22.4933 7.41461C22.3967 7.31838 22.1424 7.33669 21.904 7.42717Z" fill="#FBAF29"/>
<path fill-rule="evenodd" clip-rule="evenodd" d="M28.0565 0.000145144C29.5325 -0.0156533 30.5963 1.26007 30.5971 2.93865C30.5979 4.56876 29.5616 5.85166 28.0829 5.889C26.5972 5.92599 25.5175 4.63662 25.5159 2.9505C25.5136 1.30603 26.572 0.0163026 28.0565 0.000145144ZM13.6398 1.13372C13.6398 0.0788119 11.2977 -0.637862 10.5452 0.930849C9.95941 -0.289219 8.10893 -0.249005 7.60492 0.940185L7.60531 0.317583C7.60531 0.223152 7.51226 0.136979 7.40991 0.136979H6.35925C6.25728 0.136979 6.16424 0.223152 6.16424 0.317583V5.58169C6.16424 5.67612 6.25728 5.76265 6.35925 5.76265H7.48861C7.59058 5.76265 7.68091 5.67612 7.68091 5.58169V2.24355C7.68091 1.86691 7.85305 1.44143 8.28378 1.35346C8.75755 1.25615 9.14408 1.49887 9.14408 2.00586L9.14369 5.58169C9.14369 5.67612 9.23674 5.76265 9.3387 5.76265H10.4871C10.5894 5.76265 10.6825 5.67612 10.6825 5.58169L10.6829 2.03494C10.6829 1.23066 12.1274 1.02277 12.1278 2.03494V5.58169C12.1278 5.67612 12.2205 5.76265 12.3228 5.76265H13.4448C13.5472 5.76265 13.6398 5.67612 13.6398 5.58169V1.13372ZM24.8703 0.326371C24.8703 0.231939 24.7773 0.146484 24.6753 0.146484H20.9608C20.9092 0.146484 20.858 0.166232 20.822 0.199265C20.7855 0.233376 20.7693 0.280412 20.7693 0.328166V1.05956C20.7693 1.15327 20.8681 1.23693 20.9697 1.23693H22.9221L20.6975 4.25371C20.5837 4.40797 20.5892 4.51016 20.5916 4.55515L20.5919 4.56162L20.5921 4.5686L20.594 5.40807C20.594 5.58796 20.6661 5.66839 20.8891 5.58114C22.2495 5.04866 23.6991 5.01706 24.7916 5.62243C24.8808 5.67234 24.989 5.61812 24.989 5.47737L24.9893 4.53485C24.9893 4.47381 24.9537 4.41421 24.8978 4.38261C24.2667 4.01386 23.4641 3.91512 22.6853 3.92626L24.7653 1.24878C24.8649 1.1206 24.8703 0.983082 24.8703 0.9461V0.326371ZM36 1.52409C36 0.689646 35.4546 0.00026015 34.1779 0.0365247C33.5855 0.0534003 33.1237 0.470622 32.8671 1.06091V0.302584C32.8671 0.207435 32.774 0.121621 32.672 0.121621H31.5818C31.4799 0.121621 31.3872 0.207435 31.3872 0.302584V5.58644C31.3872 5.68087 31.4799 5.76668 31.5818 5.76668H32.7217C32.824 5.76668 32.9171 5.68087 32.9171 5.58644V2.26733C32.9171 1.77327 33.3746 1.35605 33.796 1.34097C34.1437 1.32912 34.4915 1.63827 34.4915 1.98763V5.58644C34.4915 5.68087 34.5846 5.76668 34.6865 5.76668H35.8054C35.9074 5.76668 36.0004 5.68087 36 5.58644V1.52409ZM17.0048 0.011537C18.6118 -0.040885 19.4415 0.524626 19.4415 1.41221V3.87533C19.4415 4.06024 19.5012 4.38554 19.5613 4.45843L19.8567 4.81856C19.911 4.88858 19.9005 4.99486 19.8331 5.05518L19.0298 5.76575C18.9922 5.79914 18.9398 5.81745 18.8879 5.81602C18.8359 5.81422 18.7847 5.79196 18.7498 5.75642L18.133 5.12017C17.7038 5.56289 17.1374 5.81961 16.488 5.85157C15.3982 5.90327 14.5992 5.37223 14.6181 4.2588C14.6383 3.04914 15.6118 2.41756 16.6574 2.3436L17.8938 2.25671V1.74326C17.8938 1.35117 17.6251 1.05531 17.0048 1.05531C16.5888 1.05531 16.305 1.31167 16.2329 1.65744C16.2135 1.7447 16.1154 1.8104 16.0193 1.80107L15.0186 1.69479C14.9651 1.68904 14.9143 1.66211 14.8829 1.6219C14.8512 1.58133 14.8387 1.52819 14.8496 1.47899C15.0904 0.381005 16.0239 0.0431339 17.0048 0.011537ZM4.82368 1.41085C4.82368 0.522907 3.99439 -0.042604 2.38739 0.00981798C1.40612 0.0417739 0.472547 0.379644 0.231787 1.47799C0.220932 1.52647 0.233338 1.57996 0.265129 1.62018C0.29692 1.66075 0.347321 1.6884 0.400823 1.69414L1.40186 1.79935C1.49762 1.80976 1.59571 1.74405 1.61509 1.65608C1.6872 1.31031 1.971 1.05467 2.38739 1.05467C3.00731 1.05467 3.27599 1.34981 3.27599 1.74154V2.25571L2.03962 2.34224C0.994001 2.41584 0.020492 3.04742 0.000331705 4.25708C-0.0186655 5.37158 0.780379 5.90227 1.8702 5.84985C2.51959 5.81897 3.08602 5.56224 3.5152 5.11845L4.13241 5.75505C4.16692 5.79024 4.21809 5.81286 4.27005 5.81538C4.322 5.81681 4.37472 5.7985 4.41194 5.76511L5.21564 5.05382C5.28271 4.99386 5.29357 4.88722 5.2389 4.8172L4.94348 4.45779C4.88338 4.38382 4.82368 4.05888 4.82368 3.87397V1.41085ZM28.0565 4.80357C28.8858 4.80357 28.9253 3.97739 28.9253 2.95695C28.9253 1.93688 28.8331 1.1211 28.0565 1.10925C27.2532 1.09741 27.1877 1.93688 27.1877 2.95695C27.1877 3.97739 27.2664 4.80357 28.0565 4.80357ZM17.907 3.03491V3.71927C17.907 4.24995 17.5271 4.702 17.2127 4.78925C16.5931 4.96268 16.1911 4.51673 16.2062 4.04134C16.2256 3.44064 16.7959 3.07441 17.2774 3.05789L17.907 3.03491ZM3.28921 3.71794V3.0343L2.65959 3.0562C2.17807 3.0738 1.60776 3.43932 1.58838 4.03966C1.57326 4.5154 1.9753 4.96099 2.59484 4.78793C2.90926 4.70068 3.28921 4.24827 3.28921 3.71794Z" fill="#2A2D2E"/>
</svg>
