<svg width="31" height="15" viewBox="0 0 31 15" fill="none" xmlns="http://www.w3.org/2000/svg">
<path fill-rule="evenodd" clip-rule="evenodd" d="M6.32853 2.40405C6.39555 3.00212 6.15031 3.60242 5.78551 4.03403C5.4207 4.46564 4.82247 4.80116 4.23718 4.75648C4.15722 4.1707 4.45272 3.55997 4.79048 3.17752C5.16747 2.74628 5.80341 2.42528 6.32853 2.40405ZM8.22125 5.88788C8.12548 5.94513 7.0864 6.5664 7.09866 7.82783C7.11244 9.33698 8.42325 9.86235 8.49691 9.89187C8.49861 9.89256 8.49965 9.89297 8.5 9.89313C8.49929 9.89518 8.49795 9.89936 8.49597 9.90554C8.46301 10.0084 8.25207 10.6665 7.77686 11.3451C7.34161 11.9666 6.89113 12.5863 6.17942 12.599C5.83784 12.6051 5.60942 12.5086 5.37196 12.4082C5.12338 12.3031 4.8649 12.1938 4.45631 12.1938C4.02841 12.1938 3.75804 12.3064 3.49757 12.4149C3.27172 12.5089 3.05332 12.5999 2.74615 12.6116C2.05957 12.6366 1.53711 11.9394 1.09843 11.3198C0.201655 10.0529 -0.483401 7.73882 0.436607 6.17625C0.893564 5.40055 1.70999 4.90936 2.59649 4.89707C2.97856 4.8901 3.34865 5.03355 3.67261 5.15913C3.92015 5.25508 4.14076 5.34059 4.31922 5.34059C4.4793 5.34059 4.69394 5.25779 4.94425 5.16122C5.3382 5.00924 5.82052 4.82316 6.31765 4.87212C6.6577 4.88702 7.61312 5.0073 8.22659 5.88466C8.2254 5.88539 8.22361 5.88646 8.22125 5.88788Z" fill="#2A2D2E"/>
<path d="M12.2762 12V2.92031H15.3962C15.9893 2.92031 16.5093 3.03812 16.9562 3.27375C17.403 3.50125 17.7483 3.82625 17.9921 4.24875C18.244 4.66312 18.3699 5.14656 18.3699 5.69906C18.3699 6.25156 18.244 6.735 17.9921 7.14937C17.7483 7.56375 17.403 7.88875 16.9562 8.12437C16.5174 8.35187 15.9974 8.46562 15.3962 8.46562H13.2512V12H12.2762ZM13.2512 7.55156H15.4449C15.8349 7.55156 16.1762 7.47844 16.4687 7.33219C16.7612 7.17781 16.9887 6.9625 17.1512 6.68625C17.3137 6.40187 17.3949 6.06875 17.3949 5.68687C17.3949 5.305 17.3137 4.97594 17.1512 4.69969C16.9887 4.42344 16.7612 4.21219 16.4687 4.06594C16.1762 3.91156 15.8349 3.83437 15.4449 3.83437H13.2512V7.55156ZM20.7449 12.1463C20.3305 12.1463 19.9609 12.0691 19.6359 11.9147C19.3109 11.7522 19.0549 11.5328 18.868 11.2566C18.6812 10.9803 18.5877 10.6634 18.5877 10.3059C18.5877 9.96469 18.6609 9.65594 18.8071 9.37969C18.9534 9.09531 19.1809 8.85562 19.4896 8.66062C19.7984 8.46562 20.1924 8.3275 20.6718 8.24625L23.2312 7.81969V8.64844L20.8912 9.03844C20.4199 9.11969 20.0787 9.27 19.8674 9.48937C19.6643 9.70875 19.5627 9.96875 19.5627 10.2694C19.5627 10.5619 19.6765 10.8097 19.904 11.0128C20.1396 11.2159 20.4402 11.3175 20.8059 11.3175C21.2527 11.3175 21.6427 11.2241 21.9759 11.0372C22.309 10.8422 22.569 10.5822 22.7559 10.2572C22.9427 9.93219 23.0362 9.57062 23.0362 9.1725V7.515C23.0362 7.125 22.894 6.80812 22.6096 6.56437C22.3252 6.32062 21.9555 6.19875 21.5005 6.19875C21.1024 6.19875 20.753 6.30031 20.4524 6.50344C20.1518 6.69844 19.9284 6.95437 19.7821 7.27125L18.9534 6.82031C19.0752 6.54406 19.2662 6.29219 19.5262 6.06469C19.7943 5.83719 20.099 5.65844 20.4402 5.52844C20.7815 5.39031 21.1349 5.32125 21.5005 5.32125C21.9799 5.32125 22.4024 5.41469 22.768 5.60156C23.1418 5.78844 23.4302 6.04844 23.6334 6.38156C23.8446 6.70656 23.9502 7.08437 23.9502 7.515V12H23.0362V10.6959L23.1702 10.83C23.0565 11.0737 22.8777 11.2972 22.634 11.5003C22.3984 11.6953 22.118 11.8537 21.793 11.9756C21.4762 12.0894 21.1268 12.1463 20.7449 12.1463ZM25.3347 14.6813C25.2047 14.6813 25.0707 14.6691 24.9325 14.6447C24.8025 14.6284 24.6725 14.5959 24.5425 14.5472V13.6941C24.6238 13.7022 24.7253 13.7144 24.8472 13.7306C24.9772 13.755 25.1072 13.7672 25.2372 13.7672C25.6353 13.7672 25.94 13.6819 26.1513 13.5113C26.3625 13.3488 26.5697 13.0319 26.7728 12.5606L27.1872 11.5856L27.1628 12.39L24.3963 5.4675H25.3835L27.6503 11.1834H27.3944L29.6491 5.4675H30.6607L27.6747 12.8288C27.5447 13.1456 27.3782 13.4463 27.175 13.7306C26.98 14.015 26.7322 14.2425 26.4316 14.4131C26.131 14.5919 25.7653 14.6813 25.3347 14.6813Z" fill="#2A2D2E"/>
</svg>
