<svg width="32" height="12" viewBox="0 0 32 12" fill="none" xmlns="http://www.w3.org/2000/svg">
<g clip-path="url(#clip0_33588_2)">
<path d="M10.3587 5.10397C10.3592 4.76376 10.3288 4.42414 10.2676 4.08887H5.284V6.01048H8.13774C8.07933 6.31718 7.95574 6.60954 7.77444 6.86992C7.59313 7.13031 7.35786 7.35331 7.08281 7.5255V8.77607H8.78633C9.78376 7.90769 10.3587 6.62295 10.3587 5.10397Z" fill="#4285F4"/>
<path d="M5.28401 9.98118C6.70878 9.98118 7.91133 9.5386 8.78635 8.77606L7.08282 7.52793C6.60833 7.83294 5.9985 8.00528 5.28401 8.00528C3.90608 8.00528 2.73584 7.12805 2.31755 5.9458H0.562988V7.23175C1.00263 8.05828 1.67696 8.75312 2.51064 9.23864C3.34432 9.72416 4.30453 9.98124 5.28401 9.98118V9.98118Z" fill="#34A853"/>
<path d="M2.31753 5.94579C2.09633 5.32625 2.09633 4.65531 2.31753 4.03577V2.74951H0.562973C0.192517 3.44506 -0.000427246 4.21282 -0.000427246 4.99139C-0.000427246 5.76996 0.192517 6.53772 0.562973 7.23327L2.31753 5.94579Z" fill="#FBBC04"/>
<path d="M15.1346 5.86335V9.37959H13.9525V0.693H17.0856C17.4597 0.685408 17.8317 0.747949 18.18 0.877006C18.5284 1.00606 18.8462 1.19907 19.115 1.44487C19.3823 1.67998 19.5955 1.96455 19.7413 2.28085C19.887 2.59715 19.9623 2.93841 19.9623 3.28336C19.9623 3.62831 19.887 3.96957 19.7413 4.28588C19.5955 4.60218 19.3823 4.88675 19.115 5.12185C18.5668 5.61558 17.8903 5.86203 17.0856 5.86122H15.134L15.1346 5.86335ZM15.1346 1.76361V4.7964H17.116C17.4303 4.80186 17.7394 4.71977 18.0047 4.56038C18.27 4.40099 18.4797 4.17136 18.6077 3.90013C18.7356 3.62891 18.7761 3.32811 18.7242 3.03527C18.6723 2.74243 18.5301 2.47052 18.3156 2.25347C18.3049 2.2431 18.2956 2.23303 18.2833 2.22297C18.1342 2.07236 17.9529 1.95341 17.7514 1.87401C17.5499 1.7946 17.3329 1.75656 17.1147 1.76239L15.1346 1.76361ZM22.6868 3.24325C23.5606 3.24325 24.2497 3.46347 24.754 3.90392C25.2583 4.34436 25.5108 4.9486 25.5115 5.71664V9.37959H24.381V8.55605H24.3302C23.8408 9.23563 23.1897 9.57521 22.377 9.57481C21.6841 9.57481 21.1042 9.38071 20.6373 8.99253C20.4135 8.81428 20.2345 8.59114 20.1134 8.33936C19.9923 8.08757 19.9322 7.81347 19.9374 7.53698C19.9374 6.92166 20.1836 6.43262 20.6761 6.06985C21.1686 5.70708 21.8254 5.52529 22.6464 5.52448C23.3477 5.52448 23.9268 5.64648 24.3797 5.88775V5.63215C24.381 5.44371 24.338 5.25735 24.2536 5.08657C24.1693 4.9158 24.0457 4.76489 23.8919 4.64481C23.5794 4.37859 23.172 4.23351 22.7511 4.23852C22.0915 4.23852 21.5692 4.50135 21.1842 5.02699L20.1457 4.40659C20.7166 3.63062 21.5633 3.24284 22.6858 3.24325H22.6868ZM21.1574 7.56077C21.1568 7.7026 21.1919 7.84252 21.26 7.96897C21.328 8.09541 21.4269 8.20475 21.5485 8.28794C21.81 8.48198 22.1344 8.58487 22.4668 8.57923C22.9652 8.57791 23.4429 8.39066 23.7957 8.05826C24.1872 7.71013 24.3828 7.30171 24.3826 6.833C24.0139 6.55584 23.5001 6.41706 22.8412 6.41665C22.3612 6.41665 21.9609 6.52585 21.6403 6.74424C21.3173 6.96721 21.1558 7.23685 21.1558 7.56077H21.1574ZM32 3.43816L28.0551 12H26.8355L28.299 9.00381L25.704 3.43816H26.9882L28.8617 7.7084H28.8872L30.7115 3.43816H32Z" fill="#5F6368"/>
<path d="M5.28401 1.97621C6.03731 1.96457 6.76523 2.23321 7.31054 2.72411L8.81994 1.30029C7.86325 0.452106 6.59619 -0.013729 5.28401 0.000308272C4.30463 0.000497383 3.34457 0.257655 2.51094 0.743089C1.67731 1.22852 1.00291 1.92314 0.562988 2.74943L2.31755 4.03569C2.73584 2.85344 3.90608 1.97621 5.28401 1.97621Z" fill="#EA4335"/>
</g>
<defs>
<clipPath id="clip0_33588_2">
<rect width="32" height="12" fill="white"/>
</clipPath>
</defs>
</svg>
