<svg width="38" height="9" viewBox="0 0 38 9" fill="none" xmlns="http://www.w3.org/2000/svg">
<path d="M9.73511 2.83104C9.43037 2.20067 8.85258 1.79347 7.9819 1.79347C7.71466 1.79806 7.45205 1.86313 7.21435 1.98361C6.97665 2.10411 6.77018 2.27683 6.61089 2.48844L6.57911 2.52661V0.0560336C6.57911 0.0417553 6.57337 0.0280627 6.56313 0.0179667C6.55289 0.00787036 6.53899 0.00219727 6.52451 0.00219727H5.29348C5.27917 0.00245382 5.26554 0.00823856 5.25552 0.0183071C5.24548 0.0283756 5.23987 0.0419233 5.23987 0.0560336V7.14282C5.23987 7.15684 5.24553 7.17028 5.25558 7.18019C5.26563 7.19011 5.27926 7.19568 5.29348 7.19568H6.61188C6.6262 7.19568 6.63993 7.19015 6.65015 7.18025C6.66035 7.17036 6.66622 7.15693 6.66648 7.14282V4.12115C6.66648 3.53385 7.06359 3.11784 7.69896 3.11784C8.39389 3.11784 8.56963 3.68165 8.56963 4.25622V7.14282C8.56963 7.15684 8.57527 7.17028 8.58532 7.18019C8.59537 7.19011 8.60902 7.19568 8.62323 7.19568H9.93862C9.95297 7.19568 9.9667 7.19015 9.97691 7.18025C9.98712 7.17036 9.99302 7.15693 9.99328 7.14282V4.08395C9.99328 3.97922 9.99328 3.87643 9.97938 3.7766C9.95675 3.44942 9.87401 3.12901 9.73511 2.83104Z" fill="#5A31F4"/>
<path d="M3.15208 3.88127C3.15208 3.88127 2.48097 3.72563 2.23377 3.66299C1.98656 3.60034 1.55471 3.46722 1.55471 3.14518C1.55471 2.82314 1.90317 2.72036 2.2566 2.72036C2.61003 2.72036 3.00317 2.80454 3.03394 3.19119C3.03519 3.20513 3.04169 3.21807 3.05217 3.22752C3.06265 3.23694 3.07634 3.24213 3.09053 3.24209L4.39006 3.23719C4.39771 3.23721 4.40528 3.23568 4.4123 3.23268C4.41931 3.22969 4.42562 3.2253 4.43084 3.21978C4.43606 3.21427 4.44008 3.20776 4.44262 3.20065C4.44516 3.19353 4.44621 3.18598 4.44566 3.17846C4.36525 1.94121 3.26426 1.49878 2.24865 1.49878C1.04442 1.49878 0.163841 2.28185 0.163841 3.14518C0.163841 3.77555 0.344525 4.36678 1.76517 4.77789C2.01436 4.84934 2.3529 4.94233 2.64875 5.02358C3.00416 5.12147 3.19576 5.26927 3.19576 5.50223C3.19576 5.77238 2.79866 5.96031 2.4085 5.96031C1.84361 5.96031 1.44253 5.75378 1.40977 5.3828C1.40806 5.36923 1.40136 5.35673 1.39092 5.34771C1.38049 5.33868 1.36706 5.33375 1.35318 5.33386L0.0566219 5.33973C0.0490206 5.33973 0.0414974 5.34123 0.0344991 5.34417C0.0275009 5.34709 0.0211723 5.35137 0.0158907 5.35677C0.0106093 5.36215 0.0064825 5.36854 0.00375835 5.37553C0.00103419 5.38254 -0.000231856 5.39 3.4857e-05 5.39749C0.059601 6.56524 1.20327 7.19463 2.26952 7.19463C3.85795 7.19463 4.57571 6.31368 4.57571 5.48852C4.5777 5.1009 4.48735 4.21799 3.15208 3.88127Z" fill="#5A31F4"/>
<path d="M19.8703 1.79149C19.2102 1.79149 18.6571 2.1517 18.3007 2.58632V1.8424C18.3007 1.82855 18.2952 1.81524 18.2853 1.80536C18.2756 1.79548 18.2622 1.78979 18.2481 1.78955H17.0151C17.0009 1.78955 16.9872 1.79511 16.9772 1.80502C16.9671 1.81494 16.9614 1.82839 16.9614 1.8424V8.79215C16.9618 8.80595 16.9676 8.81923 16.9776 8.82886C16.9877 8.83858 17.0011 8.84405 17.0151 8.84405H18.3345C18.3484 8.84405 18.3618 8.83858 18.3717 8.82886C18.3815 8.81914 18.3871 8.80586 18.3871 8.79215V6.50754H18.407C18.6164 6.82271 19.1892 7.20056 19.9379 7.20056C21.3455 7.20056 22.519 6.04944 22.519 4.49407C22.5201 3.00135 21.3525 1.79149 19.8703 1.79149ZM19.7482 5.87619C19.4704 5.883 19.1965 5.808 18.9621 5.66079C18.7277 5.51356 18.543 5.3008 18.4316 5.04964C18.3203 4.79848 18.2874 4.52031 18.3372 4.25064C18.3869 3.98097 18.5171 3.73203 18.7109 3.5356C18.9048 3.33915 19.1537 3.20412 19.4257 3.14774C19.6977 3.09137 19.9807 3.11618 20.2383 3.21903C20.496 3.32188 20.7167 3.4981 20.8724 3.7252C21.0281 3.95231 21.1115 4.21998 21.1123 4.49407C21.1151 4.67323 21.082 4.8512 21.015 5.01775C20.948 5.1843 20.8482 5.33614 20.7215 5.46456C20.5948 5.59298 20.4436 5.69546 20.2764 5.76609C20.1094 5.83674 19.9299 5.87415 19.7482 5.87619Z" fill="#5A31F4"/>
<path d="M13.057 1.48608C11.8269 1.48608 11.2134 1.89817 10.7209 2.22805L10.706 2.23783C10.6807 2.25496 10.6628 2.28093 10.656 2.31051C10.6492 2.34009 10.6539 2.37111 10.6693 2.39738L11.1558 3.22351C11.1649 3.23898 11.1774 3.25226 11.1923 3.26241C11.2072 3.27256 11.2242 3.27934 11.2422 3.28225C11.2597 3.28536 11.2776 3.28461 11.2948 3.28003C11.312 3.27546 11.3279 3.26721 11.3415 3.25581L11.3801 3.2245C11.6333 3.01503 12.0393 2.73507 13.0222 2.65872C13.5692 2.61567 14.0418 2.75661 14.3903 3.07767C14.7734 3.42614 15.0028 3.98897 15.0028 4.58313C15.0028 5.67649 14.3495 6.36362 13.3002 6.37734C12.4354 6.37244 11.8546 5.92805 11.8546 5.27125C11.8546 4.92277 12.0145 4.69569 12.3263 4.4686C12.35 4.45181 12.3669 4.42711 12.3736 4.39904C12.3804 4.37097 12.3766 4.34144 12.363 4.3159L11.9262 3.5015C11.9181 3.48693 11.9072 3.47407 11.8941 3.46365C11.881 3.45324 11.8659 3.44548 11.8497 3.44082C11.8332 3.43597 11.8158 3.4346 11.7988 3.43678C11.7816 3.43897 11.7651 3.44468 11.7504 3.45355C11.26 3.74035 10.6584 4.265 10.6911 5.27321C10.7308 6.55646 11.813 7.53627 13.2197 7.57641H13.2902H13.3865C15.0583 7.52257 16.2655 6.29903 16.2655 4.6399C16.2655 3.11682 15.1397 1.48608 13.057 1.48608Z" fill="#5A31F4"/>
<path d="M27.7182 2.26929H26.8802C26.8607 2.26954 26.8418 2.27736 26.8279 2.29106C26.8139 2.30478 26.806 2.3233 26.8059 2.3427V4.07621C26.806 4.09552 26.814 4.11393 26.828 4.12749C26.8419 4.14104 26.8607 4.14866 26.8802 4.14866H27.7182C28.2285 4.14866 28.6048 3.75222 28.6048 3.20897C28.6048 2.66571 28.2285 2.26929 27.7182 2.26929Z" fill="#5A31F4"/>
<path d="M30.2924 5.33588C30.2924 5.58744 30.5078 5.72741 30.8831 5.72741C31.3933 5.72741 31.6951 5.4553 31.6951 4.97272V4.83374L30.9308 4.87289C30.5276 4.89246 30.2924 5.0579 30.2924 5.33588Z" fill="#5A31F4"/>
<path d="M36.4972 0.0178309H25.2392C25.0546 0.0178307 24.8716 0.0537145 24.7011 0.12343C24.5304 0.193146 24.3754 0.295328 24.2449 0.424137C24.1143 0.552946 24.0108 0.705858 23.9402 0.874134C23.8695 1.04241 23.8333 1.22275 23.8335 1.40485V7.48146C23.8335 7.84915 23.9816 8.2018 24.2452 8.46188C24.5088 8.72197 24.8664 8.86821 25.2392 8.86847H36.4972C36.6821 8.86899 36.8654 8.83358 37.0364 8.76424C37.2073 8.69489 37.3628 8.59294 37.4939 8.46432C37.6248 8.33567 37.7289 8.18283 37.8 8.01451C37.871 7.8462 37.9077 7.66573 37.908 7.48342V1.4068C37.9083 1.22413 37.8721 1.04317 37.8013 0.874351C37.7306 0.705533 37.6266 0.552173 37.4955 0.423091C37.3645 0.294011 37.2088 0.191756 37.0375 0.122207C36.8662 0.0526577 36.6825 0.0171854 36.4972 0.0178309ZM27.7608 4.83078H26.8753C26.8555 4.83078 26.8367 4.83851 26.8226 4.85227C26.8087 4.86605 26.8008 4.88472 26.8008 4.9042V6.14731C26.8008 6.16678 26.793 6.18545 26.779 6.19922C26.765 6.21299 26.7462 6.22072 26.7264 6.22072H26.1028C26.0833 6.22047 26.0644 6.21265 26.0505 6.19893C26.0366 6.18524 26.0288 6.16671 26.0285 6.14731V1.66325C26.0285 1.64379 26.0363 1.62512 26.0504 1.61134C26.0643 1.59758 26.0831 1.58985 26.1028 1.58985H27.7608C28.7 1.58985 29.3721 2.26427 29.3721 3.2108C29.3721 4.15734 28.7049 4.83273 27.7659 4.83273L27.7608 4.83078ZM32.4268 6.14634C32.427 6.15606 32.4253 6.1657 32.4215 6.17473C32.4178 6.18374 32.4123 6.19196 32.4055 6.19888C32.3984 6.2058 32.3902 6.2113 32.3811 6.21505C32.3721 6.21879 32.3622 6.22072 32.3524 6.22072H31.7637C31.7538 6.22072 31.744 6.21879 31.735 6.21505C31.7258 6.2113 31.7175 6.2058 31.7107 6.19888C31.7038 6.19196 31.6983 6.18374 31.6947 6.17473C31.691 6.1657 31.6891 6.15606 31.6893 6.14634V6.01224C31.6902 6.00046 31.6874 5.98869 31.6809 5.9787C31.6747 5.96868 31.6653 5.96095 31.654 5.95665C31.6429 5.95236 31.6307 5.95175 31.6191 5.95489C31.6075 5.95801 31.5973 5.96474 31.59 5.97406C31.4142 6.16298 31.1283 6.30001 30.6726 6.30001C30.0016 6.30001 29.5577 5.95546 29.5577 5.36033C29.5513 5.21522 29.5816 5.07081 29.6462 4.9402C29.7106 4.80962 29.8072 4.69696 29.9271 4.6125C30.1693 4.43337 30.5445 4.34038 31.1015 4.31884L31.6922 4.29927V4.12894C31.6922 3.78537 31.4579 3.63953 31.0816 3.63953C30.7054 3.63953 30.468 3.77069 30.4126 3.98506C30.4081 4.0002 30.3987 4.01344 30.3857 4.02267C30.3728 4.0319 30.357 4.03657 30.341 4.03595H29.7583C29.7476 4.03622 29.7369 4.03416 29.7271 4.02994C29.7174 4.02571 29.7085 4.0194 29.7014 4.01147C29.6943 4.00353 29.689 3.99418 29.686 3.98403C29.683 3.97388 29.6822 3.96322 29.6838 3.95276C29.7712 3.44376 30.1981 3.05712 31.1085 3.05712C32.0755 3.05712 32.4239 3.50054 32.4239 4.34722L32.4268 6.14634ZM36.0942 3.23722L34.7838 6.68372C34.4859 7.4844 33.9647 7.68996 33.3938 7.68996C33.2863 7.69255 33.1789 7.67969 33.0751 7.65179C33.0589 7.6475 33.0448 7.63809 33.0344 7.62498C33.0243 7.61191 33.0187 7.59587 33.0185 7.57935V7.05567C33.0185 7.04471 33.0209 7.03388 33.0256 7.02395C33.0303 7.01403 33.0371 7.00523 33.0457 6.99823C33.0543 6.99121 33.0642 6.98615 33.075 6.98339C33.0857 6.98063 33.097 6.98024 33.1079 6.98225C33.1979 6.99909 33.2893 7.00761 33.3809 7.00772C33.5388 7.01552 33.6947 6.97086 33.8239 6.88088C33.9528 6.79089 34.0475 6.6608 34.0927 6.51144L34.1315 6.39104C34.1375 6.37493 34.1375 6.35724 34.1315 6.34112L32.9064 3.23821C32.9026 3.22712 32.9016 3.2153 32.9034 3.20374C32.9052 3.19217 32.9097 3.18117 32.9164 3.17164C32.9233 3.16211 32.9324 3.15431 32.9428 3.14886C32.9533 3.14342 32.965 3.14049 32.9768 3.14032H33.5726C33.5878 3.14047 33.6026 3.1451 33.6152 3.15366C33.6278 3.1622 33.6374 3.17426 33.643 3.18829L34.475 5.37697C34.4805 5.39127 34.4902 5.40358 34.503 5.41227C34.5158 5.42097 34.531 5.42562 34.5465 5.42562C34.5619 5.42562 34.5772 5.42097 34.5899 5.41227C34.6026 5.40358 34.6125 5.39127 34.6179 5.37697L35.3397 3.19416C35.3445 3.17928 35.3541 3.16631 35.3669 3.15716C35.3798 3.14799 35.3952 3.14312 35.411 3.14326H36.0218C36.0335 3.14321 36.0451 3.14592 36.0557 3.15111C36.0662 3.15632 36.0754 3.16388 36.0825 3.17321C36.0895 3.18254 36.0942 3.19337 36.0962 3.20483C36.0983 3.21628 36.0976 3.22805 36.0942 3.23918V3.23722Z" fill="#5A31F4"/>
</svg>
